<?xml version="1.0" standalone="no"?>
<!DOCTYPE svg PUBLIC "-//W3C//DTD SVG 1.1//EN" "http://www.w3.org/Graphics/SVG/1.1/DTD/svg11.dtd" >
<svg>
<metadata>
Created by FontForge 20120731 at Mon May 28 14:00:21 2018
 By www
Copyright (c) 2012 by Jos Buivenga. All rights reserved.
</metadata>
<defs>
<font id="MuseoSansCyrlW03-100" horiz-adv-x="376" >
  <font-face 
    font-family="MuseoSansCyrlW03-100"
    font-weight="250"
    font-stretch="normal"
    units-per-em="1000"
    panose-1="2 0 0 0 0 0 0 0 0 0"
    ascent="800"
    descent="-200"
    x-height="500"
    cap-height="700"
    bbox="-114 -212 1088 874"
    underline-thickness="50"
    underline-position="-125"
    unicode-range="U+0020-FB04"
  />
<missing-glyph horiz-adv-x="510" 
d="M5 700h500v-700h-500v700zM425 650h-340l170 -255zM455 95v510l-170 -255zM225 350l-170 255v-510zM425 50l-170 255l-170 -255h340z" />
    <glyph glyph-name="uniFB00" unicode="ff" horiz-adv-x="612" 
d="M102 462h-63v38h63v20q0 62 17.5 98.5t42.5 56t52 25t46 5.5h12.5t13.5 -2v-39q-6 2 -23 2q-15 0 -35.5 -4.5t-39 -19.5t-31.5 -44t-13 -77v-21h263v20q0 62 17.5 98.5t42.5 56t52 25t46 5.5h12.5t13.5 -2v-39q-6 2 -23 2q-15 0 -35.5 -4.5t-39 -19.5t-31.5 -44t-13 -77
v-21h137v-38h-137v-462h-42v462h-263v-462h-42v462z" />
    <glyph glyph-name="uniFB01" unicode="fi" horiz-adv-x="514" 
d="M102 462h-63v38h63v20q0 62 17.5 98.5t42.5 56t52 25t46 5.5q8 0 14 -0.5t12 -1.5v-39q-8 2 -23 2t-35.5 -4.5t-39 -19.5t-31.5 -44t-13 -77v-21h284v-500h-42v462h-242v-462h-42v462zM382 700h50v-73h-50v73z" />
    <glyph glyph-name="uniFB02" unicode="fl" horiz-adv-x="521" 
d="M102 459h-63v38h63v23q0 62 17.5 98.5t42.5 56t52 25t46 5.5q8 0 14 -0.5t12 -1.5v-39q-8 2 -23 2t-35.5 -4.5t-39 -19.5t-31.5 -44t-13 -77v-24h137v-38h-137v-459h-42v459zM381 700h42v-586q0 -26 6 -41.5t15 -23.5t19 -10.5t19 -2.5h6.5t8.5 1v-39q-8 -2 -18 -2
q-11 0 -27.5 3t-32.5 14t-27 32t-11 56v599z" />
    <glyph glyph-name="uniFB03" unicode="ffi" horiz-adv-x="819" 
d="M102 462h-63v38h63v20q0 62 17.5 98.5t42.5 56t52 25t46 5.5q8 0 14 -0.5t12 -1.5v-39q-8 2 -23 2t-35.5 -4.5t-39 -19.5t-31.5 -44t-13 -77v-21h263v20q0 62 17.5 98.5t42.5 56t52 25t46 5.5q8 0 14 -0.5t12 -1.5v-39q-8 2 -23 2t-35.5 -4.5t-39 -19.5t-31.5 -44
t-13 -77v-21h284v-500h-42v462h-242v-462h-42v462h-263v-462h-42v462zM687 700h50v-73h-50v73z" />
    <glyph glyph-name="uniFB04" unicode="ffl" horiz-adv-x="826" 
d="M102 462h-63v38h63v20q0 62 17.5 98.5t42.5 56t52 25t46 5.5q8 0 14 -0.5t12 -1.5v-39q-8 2 -23 2t-35.5 -4.5t-39 -19.5t-31.5 -44t-13 -77v-21h263v20q0 62 17.5 98.5t42.5 56t52 25t46 5.5q8 0 14 -0.5t12 -1.5v-39q-8 2 -23 2t-35.5 -4.5t-39 -19.5t-31.5 -44
t-13 -77v-21h137v-38h-137v-462h-42v462h-263v-462h-42v462zM686 700h42v-586q0 -26 6 -41.5t15 -23.5t19 -10.5t19 -2.5h6.5t8.5 1v-39q-8 -2 -18 -2q-11 0 -27.5 3t-32.5 14t-27 32t-11 56v599z" />
    <glyph glyph-name="f_j.liga" unicode="fj" horiz-adv-x="514" 
d="M102 462h-63v38h63v20q0 62 17.5 98.5t42.5 56t52 25t46 5.5q8 0 14 -0.5t12 -1.5v-39q-8 2 -23 2t-35.5 -4.5t-39 -19.5t-31.5 -44t-13 -77v-21h284v-520q0 -62 -17.5 -99t-42.5 -56t-52.5 -24.5t-46.5 -5.5q-6 0 -12 0.5t-13 1.5v39q6 -2 22 -2q15 0 35.5 4.5
t39.5 19.5t32 44t13 77v483h-242v-462h-42v462zM382 700h50v-73h-50v73z" />
    <glyph glyph-name=".notdef" horiz-adv-x="510" 
d="M5 700h500v-700h-500v700zM425 650h-340l170 -255zM455 95v510l-170 -255zM225 350l-170 255v-510zM425 50l-170 255l-170 -255h340z" />
    <glyph glyph-name=".null" horiz-adv-x="0" 
 />
    <glyph glyph-name="nonmarkingreturn" horiz-adv-x="333" 
 />
    <glyph glyph-name="space" unicode=" " horiz-adv-x="250" 
 />
    <glyph glyph-name="exclam" unicode="!" horiz-adv-x="250" 
d="M103 700h43v-525h-43v525zM96 61h59v-61h-59v61z" />
    <glyph glyph-name="quotedbl" unicode="&#x22;" horiz-adv-x="313" 
d="M187 709h43v-151h-43v151zM83 709h43v-151h-43v151z" />
    <glyph glyph-name="numbersign" unicode="#" horiz-adv-x="731" 
d="M203 199h-152l7 40h152l39 221h-152l7 40h152l35 200h43l-35 -200h189l35 200h43l-35 -200h149l-7 -40h-149l-39 -221h149l-7 -40h-149l-35 -199h-43l35 199h-189l-35 -199h-43zM442 239l39 221h-189l-39 -221h189z" />
    <glyph glyph-name="dollar" unicode="$" horiz-adv-x="560" 
d="M101 108q33 -35 83.5 -56.5t103.5 -21.5q33 0 61.5 9.5t49.5 27.5t33 43.5t12 57.5q0 48 -26.5 79t-67 53.5t-87 41.5t-87 43t-67 58t-26.5 88q0 32 13 62.5t36.5 55t57 40.5t75.5 21v95h43v-94q45 -2 86.5 -17t76.5 -47l-24 -37q-29 27 -70 43.5t-83 16.5q-39 0 -70 -12
t-52 -31.5t-32.5 -44.5t-11.5 -50q0 -45 26.5 -73.5t67 -49.5t87 -39.5t87 -44t67 -62t26.5 -93.5q0 -36 -12.5 -67.5t-36 -55.5t-57 -39.5t-75.5 -18.5v-93h-43v93q-53 3 -104 24.5t-89 61.5z" />
    <glyph glyph-name="percent" unicode="%" horiz-adv-x="696" 
d="M190 451q-27 0 -50.5 10t-41.5 28t-28 41.5t-10 50.5t10 51t28 41.5t41.5 28t50.5 10.5t51 -10.5t41.5 -28t28 -41.5t10.5 -51t-10.5 -50.5t-28 -41.5t-41.5 -28t-51 -10zM589 700h52l-531 -700h-52zM190 491q38 0 63 26t25 64t-25 64.5t-63 26.5t-62.5 -26.5
t-24.5 -64.5t24.5 -64t62.5 -26zM376 118q0 27 10 51t28 41.5t41.5 28t50.5 10.5t51 -10.5t41.5 -28t28 -41.5t10.5 -51t-10.5 -50.5t-28 -41.5t-41.5 -28t-51 -10t-50.5 10t-41.5 28t-28 41.5t-10 50.5zM419 118q0 -38 24.5 -64t62.5 -26t63 26t25 64t-25 64.5t-63 26.5
t-62.5 -26.5t-24.5 -64.5z" />
    <glyph glyph-name="ampersand" unicode="&#x26;" horiz-adv-x="656" 
d="M64 191q0 31 8.5 60.5t25 55t41.5 44.5t57 28v2q-21 8 -39 21t-32 32t-22 45t-8 59q0 37 13.5 69t39.5 55.5t64 36.5t87 13q19 0 37.5 -2.5t36.5 -7.5l-14 -38q-13 3 -30.5 5.5t-32.5 2.5q-33 0 -61.5 -9.5t-49.5 -26.5t-33 -41.5t-12 -55.5q0 -19 5.5 -43.5t23 -46
t51.5 -36.5t91 -15h163v102h43v-102h97v-40h-97v-112q0 -67 -16 -115.5t-45.5 -80t-70.5 -47t-91 -15.5q-51 0 -93 15.5t-72.5 42.5t-47.5 64t-17 81zM109 193q0 -34 12.5 -63.5t36 -51.5t58 -35t78.5 -13q40 0 73 11.5t57 37.5t37 67t13 100v112h-161q-105 0 -154.5 -46
t-49.5 -119z" />
    <glyph glyph-name="quotesingle" unicode="'" horiz-adv-x="209" 
d="M83 709h43v-151h-43v151z" />
    <glyph glyph-name="parenleft" unicode="(" horiz-adv-x="264" 
d="M172 -95q-51 90 -80.5 201t-29.5 229q0 109 28.5 205.5t81.5 184.5h44q-54 -91 -83.5 -188t-29.5 -203q0 -112 28 -220.5t85 -208.5h-44v0z" />
    <glyph glyph-name="parenright" unicode=")" horiz-adv-x="264" 
d="M48 -95q57 100 85 208.5t28 220.5q0 106 -29.5 203t-83.5 188h44q53 -88 81.5 -184.5t28.5 -205.5q0 -118 -29.5 -229t-80.5 -201h-44v0z" />
    <glyph glyph-name="asterisk" unicode="*" horiz-adv-x="496" 
d="M118 369l99 130v2l-156 47l13 42l155 -54l-5 164h47l-5 -164l156 53l14 -41l-157 -47v-2l98 -130l-35 -26l-93 134h-2l-93 -133z" />
    <glyph glyph-name="plus" unicode="+" horiz-adv-x="560" 
d="M22 303h237v263h43v-263h236v-40h-236v-263h-43v263h-237v40z" />
    <glyph glyph-name="comma" unicode="," horiz-adv-x="253" 
d="M105 61h56l-67 -155h-42z" />
    <glyph glyph-name="hyphen" unicode="-" horiz-adv-x="432" 
d="M78 303h276v-40h-276v40z" />
    <glyph glyph-name="period" unicode="." horiz-adv-x="217" 
d="M78 63h61v-63h-61v63z" />
    <glyph glyph-name="slash" unicode="/" horiz-adv-x="389" 
d="M299 740h44l-253 -782h-44z" />
    <glyph glyph-name="zero" unicode="0" horiz-adv-x="612" 
d="M306 -12q-67 0 -112 28t-72.5 77t-39.5 115t-12 142t12 142t39.5 115t72.5 77t112 28t112 -28t72.5 -77t39.5 -115t12 -142t-12 -142t-39.5 -115t-72.5 -77t-112 -28zM306 30q56 0 93 24.5t58.5 67.5t30.5 101.5t9 126.5q0 67 -9 125.5t-30.5 102t-58.5 68t-93 24.5
t-93 -24.5t-58.5 -68t-30.5 -102t-9 -125.5q0 -68 9 -126.5t30.5 -101.5t58.5 -67.5t93 -24.5z" />
    <glyph glyph-name="one" unicode="1" horiz-adv-x="452" 
d="M58 40h159v570v24q0 5 1 11h-2q-3 -4 -7 -10q-5 -5 -12 -13.5t-18 -19.5l-83 -83l-30 29l151 152h43v-660h155v-40h-357v40z" />
    <glyph glyph-name="two" unicode="2" horiz-adv-x="555" 
d="M64 0q-3 19 -3 37q0 61 27.5 105.5t69 80.5t90 67t90 64.5t69 73t27.5 92.5q0 31 -11.5 58.5t-32.5 48t-51 32t-68 11.5q-53 0 -97.5 -27.5t-72.5 -72.5l-32 22q15 26 36.5 48t47.5 38t56.5 25t62.5 9q52 0 90.5 -16t64.5 -42.5t39 -61.5t13 -72q0 -60 -27.5 -104
t-69 -80t-89.5 -66.5t-89.5 -64t-69 -73t-27.5 -92.5h383v-40h-426v0z" />
    <glyph glyph-name="three" unicode="3" horiz-adv-x="557" 
d="M86 117q30 -34 80 -60.5t108 -26.5q33 0 64.5 12.5t56 35t39.5 54t15 70.5q0 41 -16 72t-42 52t-59.5 32t-69.5 11h-48l-12 30l196 229q5 7 10.5 12.5l10.5 10.5t10 9v2q-6 -1 -14 -1q-7 -1 -17 -1h-23h-287v40h401v-30l-226 -261q31 0 71.5 -9t75.5 -32.5t59.5 -63.5
t24.5 -102q0 -45 -17.5 -84t-48 -68t-71 -45.5t-85.5 -16.5q-61 0 -118.5 26t-99.5 71z" />
    <glyph glyph-name="four" unicode="4" horiz-adv-x="593" 
d="M41 230l363 470h40v-460h104v-40h-104v-200h-43v200h-360v30zM401 240v328v22t1 20q1 11 2 21h-2q-6 -7 -11 -15q-5 -7 -11 -16t-13 -17l-266 -341v-2h300z" />
    <glyph glyph-name="five" unicode="5" horiz-adv-x="549" 
d="M93 116q10 -15 24.5 -30.5t34.5 -27.5t45.5 -20t57.5 -8q41 0 76.5 14t61.5 38.5t41 58t15 72.5q0 40 -15 73.5t-41 58.5t-61.5 39t-76.5 14q-35 0 -72 -11t-64 -31l-32 11l40 333h325v-40h-287l-25 -209q-2 -11 -3 -19t-2 -13q-1 -6 -2 -11h2q17 11 50.5 21.5t69.5 10.5
q50 0 93.5 -18t76 -48.5t51 -72t18.5 -88.5t-19 -88t-51 -71.5t-76 -48t-93 -17.5q-60 0 -112.5 26.5t-84.5 74.5z" />
    <glyph glyph-name="six" unicode="6" horiz-adv-x="583" 
d="M66 314q0 43 7.5 89t22.5 90.5t39 84t57.5 69.5t76.5 47.5t97 17.5q66 0 123 -28l-21 -39q-21 12 -49 18.5t-56 6.5q-60 0 -105.5 -28.5t-77 -74.5t-48.5 -103.5t-21 -115.5h2q29 45 82.5 70.5t115.5 25.5q46 0 85.5 -15.5t68 -44.5t45 -71t16.5 -95q0 -55 -17.5 -98
t-47 -72t-68.5 -44.5t-82 -15.5q-58 0 -103.5 26t-77 70.5t-48 104t-16.5 125.5zM316 30q37 0 67.5 14t52 39.5t33.5 60.5t12 76q0 86 -48 134t-124 48q-36 0 -71 -11t-62.5 -31t-44 -47.5t-16.5 -59.5q0 -26 12 -64t36.5 -73.5t62.5 -60.5t90 -25z" />
    <glyph glyph-name="seven" unicode="7" horiz-adv-x="518" 
d="M405 595q6 13 13 25t12 21q6 11 12 19v2q-6 -1 -14 -1q-7 -1 -17.5 -1h-23.5h-340v40h443v-30l-332 -670h-45z" />
    <glyph glyph-name="eight" unicode="8" horiz-adv-x="589" 
d="M63 195q0 45 15.5 80.5t36.5 60.5t41.5 40t30.5 21q-39 24 -64.5 57.5t-25.5 84.5q0 34 13 65.5t39 55.5t64.5 38t89.5 14q49 0 87.5 -13t65.5 -36.5t41 -56t14 -70.5t-12 -70.5t-27.5 -59t-31.5 -44.5t-24 -25q45 -25 74.5 -60t29.5 -90q0 -41 -17.5 -77.5t-48 -63.5
t-71.5 -42.5t-88 -15.5q-43 0 -84.5 14t-74.5 40.5t-53 65t-20 87.5zM376 356q7 7 22 22.5t30 39t26.5 52.5t11.5 63q0 32 -12 57.5t-34 43t-51.5 27t-65.5 9.5q-38 0 -68 -10t-50.5 -27.5t-31.5 -41t-11 -50.5q0 -39 21.5 -66t55.5 -47t75.5 -36.5t81.5 -35.5zM108 198
q0 -39 16 -70t42 -52.5t59 -33.5t68 -12q34 0 67 11.5t58.5 32t41 49t15.5 61.5q0 41 -23.5 68.5t-59.5 48t-79.5 37.5t-84.5 37q-10 -5 -30 -19t-40 -36t-35 -52.5t-15 -69.5z" />
    <glyph glyph-name="nine" unicode="9" horiz-adv-x="583" 
d="M115 55q16 -9 44 -17t59 -8q61 0 107 28.5t77.5 74.5t48.5 103.5t21 115.5h-2q-29 -45 -82.5 -70.5t-115.5 -25.5q-46 0 -85.5 15.5t-68 45t-45 70.5t-16.5 92q0 57 17.5 100.5t47 73t68.5 44.5t82 15q58 0 103.5 -26t77 -70.5t48 -104t16.5 -126.5q0 -64 -16.5 -134
t-53 -128.5t-93.5 -96.5t-138 -38q-31 0 -62 7t-60 21zM274 298q40 0 75.5 13t62 33t41.5 44.5t15 48.5q0 36 -13.5 77t-39 75.5t-61.5 57.5t-81 23q-41 0 -72.5 -14t-53.5 -39.5t-33.5 -60.5t-11.5 -77t12.5 -75.5t35.5 -57t54.5 -36t69.5 -12.5z" />
    <glyph glyph-name="colon" unicode=":" horiz-adv-x="213" 
d="M78 500h57v-59h-57v59zM78 59h57v-59h-57v59z" />
    <glyph glyph-name="semicolon" unicode=";" horiz-adv-x="275" 
d="M123 500h57v-59h-57v59zM123 61h52l-56 -155h-41z" />
    <glyph glyph-name="less" unicode="&#x3c;" horiz-adv-x="560" 
d="M48 301l439 197v-48l-377 -166v-2l377 -166v-48l-439 197v36z" />
    <glyph glyph-name="equal" unicode="=" horiz-adv-x="560" 
d="M52 383h456v-40h-456v40zM52 223h456v-40h-456v40z" />
    <glyph glyph-name="greater" unicode="&#x3e;" horiz-adv-x="560" 
d="M73 116l377 166v2l-377 166v48l439 -197v-36l-439 -197v48z" />
    <glyph glyph-name="question" unicode="?" horiz-adv-x="435" 
d="M162 219q0 41 13.5 70.5t33 53.5t43 44t43 42.5t33 49t13.5 62.5q0 27 -10.5 50.5t-30 41t-46 27.5t-59.5 10t-67 -11t-60 -31l-23 34q26 22 67 36t82 14q43 0 78.5 -13t60.5 -36t39 -54.5t14 -68.5q0 -42 -13.5 -71.5t-33.5 -53.5t-43.5 -44t-43.5 -42t-33.5 -48
t-13.5 -62v-44h-43v44zM154 61h59v-61h-59v61z" />
    <glyph glyph-name="at" unicode="@" horiz-adv-x="761" 
d="M63 243q0 76 27.5 142.5t74.5 116t110 78t134 28.5q64 0 108.5 -15t72 -40t39.5 -57t12 -65v-344h70v-40h-265q-40 0 -75 15.5t-61.5 41.5t-41.5 61.5t-15 75.5t15 75.5t41.5 62.5t61.5 42.5t75 15.5h150q-1 25 -11 48.5t-31 42t-55.5 29.5t-83.5 11q-65 0 -121 -25.5
t-97.5 -69.5t-65 -103.5t-23.5 -126.5q0 -68 23.5 -127t65 -102.5t97.5 -68.5t121 -25v-42q-73 0 -137 28.5t-112 78t-75.5 116t-27.5 142.5zM298 241q0 -32 12 -60t32.5 -49t48.5 -33t60 -12h145v310h-143q-33 0 -61 -12.5t-49 -33.5t-33 -49.5t-12 -60.5z" />
    <glyph glyph-name="A" unicode="A" horiz-adv-x="624" 
d="M289 700h46l262 -700h-46l-91 242h-297l-90 -242h-46zM445 282l-106 284q-5 11 -9 25.5t-8 27.5q-4 15 -9 31h-2q-5 -16 -9 -31q-4 -13 -8.5 -27.5t-8.5 -25.5l-107 -284h267z" />
    <glyph glyph-name="B" unicode="B" horiz-adv-x="608" 
d="M107 700h235q38 0 70.5 -12.5t56 -35t37 -55t13.5 -72.5q0 -57 -25 -95t-66 -58v-2q52 -14 85.5 -61.5t33.5 -115.5q0 -44 -14.5 -79.5t-41 -61t-62 -39t-77.5 -13.5h-245v700zM341 388q59 0 96 37t37 100q0 62 -36 98.5t-98 36.5h-190v-272h191zM348 40q71 0 112.5 40.5
t41.5 112.5t-43.5 113.5t-111.5 41.5h-197v-308h198z" />
    <glyph glyph-name="C" unicode="C" horiz-adv-x="719" 
d="M60 355q0 76 25.5 141.5t71.5 113.5t110 75t140 27q66 0 133 -20.5t117 -67.5l-26 -32q-43 38 -103 58.5t-120 20.5q-67 0 -122.5 -24t-95.5 -66t-62.5 -100t-22.5 -126t22 -127.5t62.5 -103.5t97 -69.5t124.5 -25.5q65 0 127 24t110 71l27 -30q-22 -21 -48.5 -40
t-59.5 -34t-71.5 -23.5t-84.5 -8.5q-79 0 -143.5 29t-110.5 78.5t-71.5 116.5t-25.5 143z" />
    <glyph glyph-name="D" unicode="D" horiz-adv-x="738" 
d="M107 700h220q78 0 142.5 -23.5t110 -68.5t71 -110t25.5 -148q0 -84 -25.5 -149t-71 -109.5t-110 -68t-142.5 -23.5h-220v700zM320 40q70 0 127 20t98 59.5t63.5 97.5t22.5 133t-22.5 133t-63.5 97t-98 59.5t-127 20.5h-170v-620h170z" />
    <glyph glyph-name="E" unicode="E" horiz-adv-x="556" 
d="M107 700h383v-40h-340v-287h279v-40h-279v-293h359v-40h-402v700z" />
    <glyph glyph-name="F" unicode="F" horiz-adv-x="498" 
d="M107 700h353v-40h-310v-292h268v-40h-268v-328h-43v700z" />
    <glyph glyph-name="G" unicode="G" horiz-adv-x="754" 
d="M60 350q0 76 26.5 142t73.5 115t111 77t138 28q65 0 129 -19t115 -60l-26 -33q-20 16 -45 29t-53.5 22.5t-59 14.5t-60.5 5q-66 0 -122 -24.5t-96.5 -68t-63 -102t-22.5 -126.5t22 -127t62 -102t94.5 -67.5t119.5 -24.5q69 0 132 31.5t108 83.5v135h-125v40h168v-319h-43
v61v21q0 5 1 9h-2q-39 -45 -101.5 -74t-137.5 -29q-73 0 -136 28t-109 77t-72 115t-26 142z" />
    <glyph glyph-name="H" unicode="H" horiz-adv-x="744" 
d="M107 700h43v-329h444v329h43v-700h-43v331h-444v-331h-43v700z" />
    <glyph glyph-name="I" unicode="I" horiz-adv-x="257" 
d="M107 700h43v-700h-43v700z" />
    <glyph glyph-name="J" unicode="J" horiz-adv-x="509" 
d="M35 213h43v-23q0 -32 8.5 -61t26 -51.5t44.5 -35.5t64 -13q27 0 53 8t46.5 27t33 50t12.5 76v470h-167v40h210v-509q0 -56 -16.5 -95t-43 -63t-60 -34.5t-67.5 -10.5t-67.5 10.5t-60 34.5t-43 63t-16.5 95v22z" />
    <glyph glyph-name="K" unicode="K" horiz-adv-x="570" 
d="M107 700h43v-312h130l200 312h52l-215 -330v-2l229 -368h-52l-214 348h-130v-348h-43v700z" />
    <glyph glyph-name="L" unicode="L" horiz-adv-x="508" 
d="M107 700h43v-660h334v-40h-377v700z" />
    <glyph glyph-name="M" unicode="M" horiz-adv-x="834" 
d="M136 700h42l204 -440q6 -13 12 -27t11 -25q5 -14 11 -27h2q5 13 11 27q5 11 11 25t12 27l204 440h42l56 -700h-43l-43 534q-2 13 -2.5 29t-0.5 30v34h-2l-12 -34q-5 -14 -11.5 -30t-12.5 -29l-188 -399h-44l-187 399q-6 12 -12.5 28.5t-11.5 31.5q-6 18 -13 35h-2v-35
q0 -15 -1 -31t-2 -29l-43 -534h-43z" />
    <glyph glyph-name="N" unicode="N" horiz-adv-x="750" 
d="M107 700h40l399 -549q8 -12 18.5 -27t18.5 -29l20 -32h2q-2 15 -3 31q-1 14 -1.5 28.5t-0.5 28.5v549h43v-700h-40l-399 549q-9 12 -19 27t-18 29l-20 32h-2q1 -15 2 -31q1 -14 2 -29t1 -28v-549h-43v700z" />
    <glyph glyph-name="O" unicode="O" horiz-adv-x="826" 
d="M59 355q0 75 27 140.5t74.5 113.5t112.5 75.5t140 27.5t140 -27.5t112.5 -75.5t74.5 -113.5t27 -140.5q0 -77 -27 -144t-74.5 -116.5t-112.5 -78t-140 -28.5t-140 28.5t-112.5 78t-74.5 116.5t-27 144zM104 355q0 -69 23.5 -128.5t64.5 -103.5t98 -69t123 -25t123 25
t98 69t64.5 103.5t23.5 128.5q0 67 -23.5 125t-64.5 100.5t-98 66.5t-123 24t-123 -24t-98 -66.5t-64.5 -100.5t-23.5 -125z" />
    <glyph glyph-name="P" unicode="P" horiz-adv-x="589" 
d="M107 700h230q46 0 85 -14t67.5 -40.5t44.5 -64t16 -85.5t-16 -86t-44.5 -64.5t-67.5 -41t-85 -14.5h-187v-290h-43v700zM335 330q77 0 123.5 43.5t46.5 122.5t-46.5 121.5t-123.5 42.5h-185v-330h185z" />
    <glyph glyph-name="Q" unicode="Q" horiz-adv-x="827" 
d="M60 354q0 76 27 141.5t74.5 113.5t111.5 75.5t139 27.5q77 0 142 -27.5t112.5 -75.5t74.5 -113.5t27 -141.5q0 -72 -23.5 -136.5t-68.5 -112.5l90 -93l-28 -27l-89 92q-48 -43 -108 -66t-129 -23q-75 0 -139.5 28.5t-112 78t-74 116.5t-26.5 143zM105 354
q0 -68 23.5 -127.5t65 -103.5t97.5 -69t121 -25q58 0 112 20t96 58l-90 93l28 27l89 -92q35 43 55.5 99.5t20.5 119.5q0 68 -23.5 126t-65.5 100.5t-99 66.5t-123 24q-65 0 -121 -24t-97.5 -66.5t-65 -100.5t-23.5 -126z" />
    <glyph glyph-name="R" unicode="R" horiz-adv-x="607" 
d="M107 700h205q49 0 77 -5t49 -16q44 -22 70.5 -65t26.5 -103q0 -38 -10.5 -70t-29 -57t-44 -42t-56.5 -24v-2q2 -2 5 -6q2 -3 4.5 -8t6.5 -11l157 -291h-51l-166 310h-201v-310h-43v700zM340 350q34 0 62 12t47.5 33t30 50.5t10.5 65.5q0 47 -22 82.5t-60 52.5
q-15 7 -35.5 10.5t-62.5 3.5h-160v-310h190z" />
    <glyph glyph-name="S" unicode="S" horiz-adv-x="524" 
d="M81 108q34 -34 82 -56t102 -22q34 0 63.5 9.5t50.5 27.5t33 43.5t12 57.5q0 49 -26.5 80t-66.5 53.5t-86 41t-86 42.5t-66.5 58.5t-26.5 88.5q0 41 16.5 74.5t45 57t67 36t82.5 12.5q48 0 95.5 -16.5t81.5 -48.5l-24 -37q-29 28 -71 44t-84 16q-32 0 -62 -9t-52.5 -26.5
t-36 -42.5t-13.5 -57q0 -47 26.5 -76t66.5 -50t86 -39.5t86 -43t66.5 -60.5t26.5 -93q0 -39 -14 -73t-40.5 -59t-64.5 -39t-86 -14q-60 0 -115 22.5t-97 64.5z" />
    <glyph glyph-name="T" unicode="T" horiz-adv-x="601" 
d="M279 660h-261v40h565v-40h-261v-660h-43v660z" />
    <glyph glyph-name="U" unicode="U" horiz-adv-x="721" 
d="M99 700h43v-458q0 -50 15.5 -89t44 -67t68.5 -42.5t90 -14.5q49 0 89.5 14.5t69.5 42.5t44.5 68t15.5 90v456h43v-460q0 -58 -19 -104.5t-53.5 -79.5t-82.5 -50.5t-106 -17.5t-106 17.5t-82.5 50.5t-54 79.5t-19.5 104.5v460z" />
    <glyph glyph-name="V" unicode="V" horiz-adv-x="621" 
d="M25 700h46l211 -566q5 -13 9.5 -27t8.5 -27q4 -15 9 -30h2q5 15 9 30q4 13 8.5 27t9.5 27l212 566h46l-262 -700h-47z" />
    <glyph glyph-name="W" unicode="W" horiz-adv-x="914" 
d="M41 700h45l148 -570q3 -13 6.5 -26t5.5 -24l5 -25h2q2 12 6 24q2 11 5.5 24t7.5 27l160 570h48l160 -570q4 -14 7 -27t6 -24l6 -24h2l5 25q2 11 5 24t7 26l153 570h45l-189 -700h-54l-148 528q-5 17 -9.5 36t-8.5 36q-4 19 -9 39h-4q-5 -20 -9 -39q-4 -17 -8.5 -36
t-9.5 -36l-148 -528h-54z" />
    <glyph glyph-name="X" unicode="X" horiz-adv-x="555" 
d="M247 370l-201 330h52l134 -223q8 -13 15.5 -27t14.5 -25l16 -26h2l14 26q6 11 13.5 25t15.5 27l135 223h52l-203 -330l227 -370h-51l-162 266l-45 75h-2q-6 -12 -13 -25q-6 -11 -13.5 -24.5t-15.5 -26.5l-160 -265h-51z" />
    <glyph glyph-name="Y" unicode="Y" horiz-adv-x="567" 
d="M262 304l-238 396h49l166 -276q8 -13 15.5 -27t13.5 -25q7 -14 14 -27h2q7 13 14 27q6 11 13.5 25t15.5 27l166 276h49l-237 -396v-304h-43v304z" />
    <glyph glyph-name="Z" unicode="Z" horiz-adv-x="565" 
d="M35 34l385 562q9 14 17.5 25t15.5 20q8 10 15 19v2q-5 -1 -12 -1q-6 -1 -16 -1h-23h-361v40h464v-34l-385 -562q-9 -14 -17.5 -26t-15.5 -20q-8 -11 -15 -18v-2q5 0 12 1q6 0 15.5 0.5t23.5 0.5h385v-40h-488v34z" />
    <glyph glyph-name="bracketleft" unicode="[" horiz-adv-x="265" 
d="M98 725h108v-40h-65v-740h65v-40h-108v820z" />
    <glyph glyph-name="backslash" unicode="\" horiz-adv-x="389" 
d="M46 740h44l253 -782h-44z" />
    <glyph glyph-name="bracketright" unicode="]" horiz-adv-x="265" 
d="M124 -55v740h-65v40h108v-820h-108v40h65z" />
    <glyph glyph-name="asciicircum" unicode="^" horiz-adv-x="600" 
d="M274 700h32l197 -448h-46l-167 388l-167 -388h-46z" />
    <glyph glyph-name="underscore" unicode="_" horiz-adv-x="582" 
d="M539 0v-40h-496v40h496z" />
    <glyph glyph-name="grave" unicode="`" horiz-adv-x="509" 
d="M193 861h56l67 -111h-44z" />
    <glyph glyph-name="a" unicode="a" horiz-adv-x="508" 
d="M41 133q0 42 17 71.5t44 48.5t61 29.5t68.5 15.5t66 6t53.5 1h33v17q0 42 -10 70.5t-28.5 46t-43.5 25t-55 7.5q-38 0 -75 -12.5t-68 -35.5l-24 34q29 26 75 40.5t94 14.5q87 0 132 -47.5t45 -141.5v-323h-42v66q0 10 0.5 18.5t1.5 14.5q1 7 2 12h-2q-9 -24 -25.5 -46.5
t-39 -39.5t-50 -27t-60.5 -10q-30 0 -60.5 8.5t-55 26.5t-39.5 45t-15 65zM85 136q0 -20 8 -39.5t24 -35t40 -25t56 -9.5q41 0 73 19t53.5 49.5t33 68.5t11.5 75v27h-32q-21 0 -49 -0.5t-58 -4t-58.5 -11.5t-51 -22.5t-36.5 -37t-14 -54.5z" />
    <glyph glyph-name="b" unicode="b" horiz-adv-x="578" 
d="M87 700h42v-260q0 -9 -0.5 -16.5t-1.5 -12.5l-2 -12h2q23 51 70.5 82t110.5 31q50 0 90 -19t68 -53.5t43 -83t15 -106.5q0 -60 -16.5 -108t-46.5 -82.5t-71 -53t-90 -18.5q-57 0 -103.5 31t-69.5 82h-2q1 -5 2 -12q1 -6 1.5 -14t0.5 -18v-57h-42v700zM128 249
q0 -42 10.5 -81.5t32.5 -70t54.5 -49.5t76.5 -19q37 0 69.5 15t56.5 43t38 69t14 94q0 51 -13 91.5t-36 69.5t-55 44.5t-70 15.5q-35 0 -67 -12.5t-56.5 -39.5t-39.5 -69t-15 -101z" />
    <glyph glyph-name="c" unicode="c" horiz-adv-x="540" 
d="M52 249q0 60 21 108.5t56 83t82 53t99 18.5q48 0 97 -17.5t82 -53.5l-26 -34q-27 29 -68 46.5t-85 17.5t-83 -15.5t-68 -44.5t-46 -70t-17 -92q0 -50 17 -90.5t46 -69.5t68 -44.5t83 -15.5q46 0 91 18.5t76 53.5l22 -35q-32 -35 -82 -56.5t-107 -21.5q-53 0 -100 18.5
t-82 52.5t-55.5 82t-20.5 108z" />
    <glyph glyph-name="d" unicode="d" horiz-adv-x="578" 
d="M54 250q0 60 16.5 108t46.5 82.5t71 53t90 18.5q58 0 104 -31t69 -82h2l-2 12q-1 5 -1.5 12.5t-0.5 16.5v260h42v-700h-42v63q0 8 0.5 15.5t1.5 12.5q1 6 2 10h-2q-10 -23 -26.5 -43t-39 -36t-51.5 -25t-64 -9q-50 0 -90 19t-68 53.5t-43 83t-15 106.5zM98 250
q0 -51 13 -91.5t36 -69.5t55 -44.5t70 -15.5q34 0 66.5 12.5t57 39.5t39.5 69t15 101q0 42 -10.5 81.5t-32.5 70t-54.5 49.5t-76.5 19q-37 0 -69.5 -15t-56.5 -43t-38 -69.5t-14 -93.5z" />
    <glyph glyph-name="e" unicode="e" horiz-adv-x="549" 
d="M52 249q0 63 20 112t53.5 82.5t77.5 51t92 17.5q51 0 89 -18.5t63.5 -50t38.5 -73t13 -86.5q0 -6 -0.5 -13t-1.5 -14h-401q0 -54 17 -96.5t46.5 -72t68 -44.5t82.5 -15q42 0 83.5 16.5t71.5 46.5l23 -35q-33 -32 -81.5 -50.5t-96.5 -18.5q-53 0 -100 18.5t-82 52.5
t-55.5 82t-20.5 108zM455 296q-2 46 -15.5 79t-35.5 55t-50.5 32.5t-59.5 10.5q-35 0 -67 -11t-58.5 -33.5t-44.5 -55.5t-25 -77h356z" />
    <glyph glyph-name="f" unicode="f" horiz-adv-x="307" 
d="M102 459h-63v38h63v23q0 62 17.5 98.5t42.5 56t52 25t46 5.5q8 0 14 -0.5t12 -1.5v-39q-8 2 -23 2t-35.5 -4.5t-39 -19.5t-31.5 -44t-13 -77v-24h137v-38h-137v-459h-42v459z" />
    <glyph glyph-name="g" unicode="g" horiz-adv-x="571" 
d="M118 -134q28 -15 64 -25t70 -10q40 0 75 10t60.5 31t40 53.5t14.5 77.5v58q0 8 0.5 16t1.5 13l2 12h-2q-23 -46 -64 -74t-104 -28q-49 0 -89.5 18.5t-70 52t-46 81t-16.5 106.5q0 58 15.5 105t43.5 80t67.5 51t88.5 18q27 0 53.5 -5.5t49.5 -17.5t41.5 -30.5t29.5 -44.5
h2q-1 2 -2 5t-1 14v67h42v-497q0 -57 -19 -97.5t-51 -66t-73 -37.5t-86 -12q-42 0 -81 10t-76 29zM98 258q0 -51 13 -91t37 -68t57.5 -43t73.5 -15q33 0 62.5 11t52 36.5t36 67t13.5 102.5q0 60 -13.5 101t-37 66t-55 35.5t-68.5 10.5q-81 0 -126 -55.5t-45 -157.5z" />
    <glyph glyph-name="h" unicode="h" horiz-adv-x="586" 
d="M87 700h42v-288q0 -9 -0.5 -16.5t-1.5 -12.5l-2 -12h2q6 18 22.5 42t43 46t63 37.5t83.5 15.5q49 0 80.5 -14t50.5 -39.5t26.5 -61.5t7.5 -80v-317h-42v302q0 33 -3.5 63.5t-16 54t-37 37.5t-66.5 14q-43 0 -81 -16.5t-66.5 -46.5t-45.5 -71.5t-17 -90.5v-246h-42v700z
" />
    <glyph glyph-name="i" unicode="i" horiz-adv-x="216" 
d="M83 700h50v-73h-50v73zM87 500h42v-500h-42v500z" />
    <glyph glyph-name="j" unicode="j" horiz-adv-x="216" 
d="M83 700h50v-73h-50v73zM87 500h42v-520q0 -62 -17.5 -99t-42.5 -56t-52.5 -24.5t-46.5 -5.5q-6 0 -12 0.5t-13 1.5v39q6 -2 22 -2q15 0 35.5 4.5t39.5 19.5t32 44t13 77v521z" />
    <glyph glyph-name="k" unicode="k" horiz-adv-x="473" 
d="M87 700h42v-397h89l162 197h55l-181 -215v-2l198 -283h-53l-181 264h-89v-264h-42v700z" />
    <glyph glyph-name="l" unicode="l" horiz-adv-x="227" 
d="M87 700h42v-586q0 -26 6 -41.5t15 -23.5t19 -10.5t19 -2.5h6.5t8.5 1v-39q-8 -2 -18 -2q-11 0 -27.5 3t-32.5 14t-27 32t-11 56v599z" />
    <glyph glyph-name="m" unicode="m" horiz-adv-x="918" 
d="M87 500h42v-88q0 -9 -0.5 -16.5t-1.5 -12.5l-2 -12h2q9 28 29.5 53.5t46.5 45t56.5 31t59.5 11.5q75 0 112.5 -34.5t45.5 -101.5h2q10 26 29 50.5t44 43.5t55 30.5t62 11.5q48 0 80.5 -13.5t51.5 -39t27 -61.5t8 -81v-317h-42v302q0 35 -4.5 66t-18 54.5t-38 37
t-64.5 13.5t-74 -19.5t-59 -51t-39 -71.5t-14 -82v-249h-42v302q0 32 -3.5 63t-16 55t-37 38.5t-65.5 14.5t-75.5 -19.5t-60 -51t-40 -72t-14.5 -81.5v-249h-42v500z" />
    <glyph glyph-name="n" unicode="n" horiz-adv-x="586" 
d="M87 500h42v-88q0 -9 -0.5 -16.5t-1.5 -12.5l-2 -12h2q6 18 22.5 42t43 46t63 37.5t83.5 15.5q49 0 80.5 -14t50.5 -39.5t26.5 -61.5t7.5 -80v-317h-42v302q0 33 -3.5 63.5t-16 54t-37 37.5t-66.5 14q-43 0 -81 -16.5t-66.5 -46.5t-45.5 -70.5t-17 -88.5v-249h-42v500z
" />
    <glyph glyph-name="o" unicode="o" horiz-adv-x="620" 
d="M51 253q0 55 20.5 102t55.5 82t82 55t101 20t101 -20t82 -55t55.5 -82t20.5 -102q0 -56 -20.5 -104.5t-55.5 -84t-82 -56t-101 -20.5t-101 20.5t-82 56t-55.5 84t-20.5 104.5zM95 253q0 -48 17 -89t46 -71t68 -47t84 -17t84 17t68 47t46 71t17 89q0 46 -17 86t-46 69.5
t-68 46t-84 16.5t-84 -16.5t-68 -46t-46 -69.5t-17 -86z" />
    <glyph glyph-name="p" unicode="p" horiz-adv-x="578" 
d="M87 500h42v-60q0 -9 -0.5 -16.5t-1.5 -12.5q-1 -6 -1 -11h2q23 53 70.5 82.5t109.5 29.5q50 0 90 -19t68 -53.5t43 -83t15 -106.5q0 -60 -16.5 -108t-46 -82.5t-70.5 -53t-89 -18.5q-57 0 -104 29.5t-71 83.5h-2q1 -5 2 -12q1 -6 1.5 -14t0.5 -18v-257h-42v700zM128 249
q0 -42 11.5 -81.5t33.5 -70t54.5 -49.5t74.5 -19q37 0 69.5 15t56.5 43t38 69t14 94q0 51 -13 91.5t-36 69.5t-55 44.5t-70 15.5q-35 0 -67 -12.5t-56.5 -39.5t-39.5 -69t-15 -101z" />
    <glyph glyph-name="q" unicode="q" horiz-adv-x="578" 
d="M54 250q0 60 16.5 108t46.5 82.5t71 53t90 18.5q57 0 103 -30.5t69 -81.5h2q-1 5 -2 11q-1 5 -1 12.5v16.5v60h42v-700h-42v257q0 10 0.5 18t1.5 14q1 7 2 12h-2q-9 -19 -23.5 -39t-37 -36.5t-52 -27t-68.5 -10.5q-50 0 -90 19t-68 53.5t-43 83t-15 106.5zM98 250
q0 -51 13 -91.5t36 -69.5t55 -44.5t70 -15.5q34 0 66.5 12.5t57 39.5t39.5 69t15 101q0 42 -10.5 81.5t-32.5 70t-54.5 49.5t-76.5 19q-37 0 -69.5 -15t-56.5 -43t-38 -69.5t-14 -93.5z" />
    <glyph glyph-name="r" unicode="r" horiz-adv-x="340" 
d="M87 500h42v-95q0 -9 -0.5 -16.5t-1.5 -12.5l-2 -12h2q9 29 24 54.5t35.5 44.5t45.5 30t55 11q15 0 29 -3v-42q-6 2 -23 2q-44 0 -75 -24t-51 -60.5t-29 -79.5t-9 -81v-216h-42v500z" />
    <glyph glyph-name="s" unicode="s" horiz-adv-x="430" 
d="M68 92q29 -30 70.5 -46.5t84.5 -16.5q23 0 44 6t36.5 18t25 29.5t9.5 40.5q0 32 -20.5 51.5t-51 34.5t-66 27.5t-66 30.5t-51 43.5t-20.5 66.5q0 33 13 58.5t35 42.5t51 25.5t61 8.5q39 0 79 -12.5t69 -41.5l-25 -34q-22 23 -56.5 35t-69.5 12q-21 0 -41.5 -5t-36.5 -16
t-25.5 -28.5t-9.5 -41.5q0 -33 20.5 -53t51 -34.5t66 -27.5t66 -30.5t51 -44t20.5 -67.5q0 -30 -12 -55t-33.5 -42.5t-51 -27.5t-63.5 -10q-48 0 -97 17t-84 55z" />
    <glyph glyph-name="t" unicode="t" horiz-adv-x="304" 
d="M102 459h-66v38h66v142h42v-142h131v-38h-131v-275q0 -50 13 -79t31.5 -45t39 -20.5t35.5 -4.5h11t12 2v-39q-8 -2 -25 -2q-20 0 -47 5.5t-52 24.5t-42.5 56t-17.5 99v278z" />
    <glyph glyph-name="u" unicode="u" horiz-adv-x="580" 
d="M81 500h42v-302q0 -33 3.5 -63.5t16 -54t37 -37.5t66.5 -14q47 0 85 19t64.5 50.5t41 72.5t14.5 85v244h42v-500h-42v88q0 8 0.5 16t1.5 13l2 12h-2q-6 -18 -22.5 -42t-42 -46t-61.5 -37.5t-81 -15.5q-92 0 -128.5 50t-36.5 145v317z" />
    <glyph glyph-name="v" unicode="v" horiz-adv-x="496" 
d="M31 500h45l154 -392q3 -9 6.5 -18.5t5.5 -17.5q3 -10 5 -18h2q2 8 5 18q2 8 5 17.5t7 18.5l154 392h44l-196 -500h-40z" />
    <glyph glyph-name="w" unicode="w" horiz-adv-x="823" 
d="M34 500h45l136 -392q3 -9 6 -18.5t5 -17.5q3 -10 6 -18h2q2 8 5 18q2 8 5.5 17.5t6.5 18.5l137 390h47l137 -390q3 -9 6 -18.5t5 -17.5q3 -10 6 -18h2q2 9 5 18q2 8 5 17t7 19l136 392h45l-176 -500h-45l-139 388q-4 9 -7 18.5t-5 17.5q-3 9 -5 18h-2q-2 -9 -5 -18
q-2 -8 -5.5 -17.5t-6.5 -18.5l-138 -388h-45z" />
    <glyph glyph-name="x" unicode="x" horiz-adv-x="462" 
d="M202 264l-161 236h51l121 -182l6 -10t5 -9q3 -4 6 -9h2q2 5 5 9q2 4 5.5 9t6.5 10l121 182h51l-161 -236l180 -264h-52l-138 207q-7 9 -12 20q-3 4 -6 9h-2q-2 -5 -5 -9q-2 -4 -5.5 -9.5t-7.5 -10.5l-138 -207h-52z" />
    <glyph glyph-name="y" unicode="y" horiz-adv-x="517" 
d="M41 -146q8 -7 18 -12q8 -5 19.5 -8.5t24.5 -3.5q18 0 32.5 7.5t26.5 20t21.5 28.5t17.5 34l36 83l-207 497h45l165 -399q4 -9 7.5 -17.5t5.5 -15.5q3 -8 5 -14h2q2 6 5 14q2 7 5 15.5t7 17.5l165 399h45l-257 -617q-17 -39 -48 -66t-79 -27q-18 0 -33 4.5t-26 9.5
q-12 6 -22 14l19 36v0z" />
    <glyph glyph-name="z" unicode="z" horiz-adv-x="487" 
d="M38 34l303 381q7 8 13.5 16.5t12.5 15.5q6 8 13 14v2q-5 -1 -13 -1q-7 -1 -16.5 -1h-21.5h-278v39h386v-34l-304 -381q-7 -9 -14 -17t-13 -15q-7 -8 -13 -14v-2q6 0 14 1q7 0 16 0.5t22 0.5h303v-39h-410v34z" />
    <glyph glyph-name="braceleft" unicode="{" horiz-adv-x="326" 
d="M132 182q0 45 -21 77t-64 42v40q42 9 63.5 40.5t21.5 78.5v81q0 64 16.5 100.5t39 55t45.5 23t35 4.5h9v-39h-6q-9 0 -25 -3.5t-31.5 -18t-27.5 -43t-12 -78.5v-93q0 -41 -20 -75.5t-59 -51.5v-2q35 -14 57 -46.5t22 -80.5v-106q0 -50 12 -78.5t27.5 -43t31.5 -18
t25 -3.5h6v-39q-1 -1 -2 -1h-7q-12 0 -35 4.5t-45.5 23t-39 55.5t-16.5 101v94z" />
    <glyph glyph-name="bar" unicode="|" horiz-adv-x="235" 
d="M96 785h43v-940h-43v940z" />
    <glyph glyph-name="braceright" unicode="}" horiz-adv-x="326" 
d="M55 -56q9 0 25 3.5t31.5 18t27.5 43t12 78.5v106q0 46 20.5 79t58.5 48v2q-33 14 -56 47t-23 80v93q0 50 -12 78.5t-27.5 43t-31.5 18t-25 3.5h-6v39h9q12 0 34.5 -4.5t45 -23t39.5 -55t17 -100.5v-81q0 -45 21.5 -77.5t63.5 -41.5v-40q-42 -8 -63.5 -41t-21.5 -78v-94
q0 -64 -17 -101t-39.5 -55.5t-45 -23t-34.5 -4.5h-7q-2 0 -2 1v39h6z" />
    <glyph glyph-name="asciitilde" unicode="~" horiz-adv-x="593" 
d="M79 213q0 78 33 111t82 33q29 0 48.5 -8t35 -20.5t27.5 -26.5t25.5 -26.5t30 -20.5t39.5 -8q25 0 40 12t22.5 28.5t10 34.5t2.5 31h40q0 -78 -33 -111t-82 -33q-29 0 -48.5 8t-35 20.5t-27.5 26.5t-25.5 26.5t-30 20.5t-39.5 8q-25 0 -40 -12t-22.5 -28.5t-10 -34.5
t-2.5 -31h-40v0z" />
    <glyph glyph-name="uni00A0" unicode="&#xa0;" horiz-adv-x="250" 
 />
    <glyph glyph-name="exclamdown" unicode="&#xa1;" horiz-adv-x="227" 
d="M135 -200h-43v525h43v-525zM142 439h-59v61h59v-61z" />
    <glyph glyph-name="cent" unicode="&#xa2;" horiz-adv-x="560" 
d="M269 71q-53 4 -92 28t-65 61.5t-39 86t-13 103.5t13 103.5t39 86t65 61t92 28.5v83h43v-83q66 -6 111 -44t74 -98l-41 -16q-25 52 -64 84t-99 32q-50 0 -85.5 -18.5t-58.5 -51t-33.5 -75.5t-10.5 -92t10.5 -92t33.5 -75.5t58.5 -51t85.5 -18.5q60 0 99 32t64 84l41 -16
q-29 -60 -74 -98.5t-111 -43.5v-84h-43v84z" />
    <glyph glyph-name="sterling" unicode="&#xa3;" horiz-adv-x="560" 
d="M50 40h65v293h-45v40h45v162q0 37 14.5 69.5t41 56.5t62.5 37.5t79 13.5q41 0 79 -13.5t68 -37.5l-29 -33q-23 19 -55.5 30.5t-63.5 11.5q-38 0 -66.5 -11.5t-47.5 -30.5t-29 -44t-10 -53v-158h198v-40h-198v-293h351v-40h-459v40z" />
    <glyph glyph-name="currency" unicode="&#xa4;" horiz-adv-x="585" 
d="M133 190h-74v40h74v80h-74v40h74v350h197q46 0 85 -13.5t67.5 -38.5t44.5 -61t16 -81t-16 -81.5t-44.5 -62t-67.5 -39t-85 -13.5h-154v-80h255v-40h-255v-190h-43v190zM328 350q77 0 123.5 40.5t46.5 115.5t-46.5 114.5t-123.5 39.5h-152v-310h152z" />
    <glyph glyph-name="yen" unicode="&#xa5;" horiz-adv-x="560" 
d="M96 262h163v42l-29 48h-134v40h110l-185 308h49l166 -276q8 -13 15.5 -27t13.5 -25q7 -14 14 -27h2q7 13 14 27q6 11 13.5 25t15.5 27l166 276h49l-185 -308h108v-40h-132l-28 -48v-42h160v-40h-160v-222h-43v222h-163v40z" />
    <glyph glyph-name="section" unicode="&#xa7;" horiz-adv-x="387" 
d="M75 536q-1 6 -1.5 12.5t-0.5 12.5q0 32 11.5 59.5t32.5 48t50 32t64 11.5q24 0 49 -9t44 -24l-26 -32q-14 11 -32 17.5t-36 6.5q-48 0 -80.5 -30.5t-32.5 -82.5q0 -5 0.5 -10.5t1.5 -10.5l65 -475h-42zM89 3q12 -10 30.5 -17t37.5 -7q48 0 80 30.5t32 82.5v10.5t-1 10.5
l-65 475h42l67 -474q1 -7 1.5 -13t0.5 -12q0 -33 -12 -60.5t-33 -47.5t-50 -31.5t-63 -11.5q-26 0 -49.5 9t-43.5 24z" />
    <glyph glyph-name="dieresis" unicode="&#xa8;" horiz-adv-x="509" 
d="M300 861h46v-73h-46v73zM163 861h46v-73h-46v73z" />
    <glyph glyph-name="copyright" unicode="&#xa9;" horiz-adv-x="835" 
d="M64 350q0 76 27.5 142t75.5 115t112 77t137 28q74 0 139 -28t113 -77t76 -115t28 -142t-28 -142t-76 -115t-113 -77t-139 -28q-73 0 -137 28t-112 77t-75.5 115t-27.5 142zM109 350q0 -68 23.5 -126.5t65 -101.5t97.5 -67.5t121 -24.5q66 0 123 24.5t98.5 67.5
t65.5 101.5t24 126.5q0 67 -24 125.5t-65.5 102t-98.5 68t-123 24.5q-65 0 -121 -24.5t-97.5 -68t-65 -102t-23.5 -125.5zM213 349q0 39 13.5 77t40.5 68t67.5 48t93.5 18q48 0 91.5 -24.5t71.5 -63.5l-33 -29q-20 30 -54.5 52t-74.5 22q-43 0 -75 -14.5t-53.5 -37.5
t-32 -53.5t-10.5 -61.5t10.5 -61t32 -53.5t53.5 -38t75 -14.5q39 0 73 21t56 53l33 -29q-12 -18 -30 -34t-39.5 -28t-45.5 -19t-48 -7q-54 0 -94 18t-67 47t-40.5 67t-13.5 77z" />
    <glyph glyph-name="ordfeminine" unicode="&#xaa;" horiz-adv-x="423" 
d="M197 382q-20 0 -40 5.5t-36 17t-25.5 29t-9.5 41.5q0 40 22.5 62.5t53.5 33.5t64 13t54 2h14v4q0 46 -21.5 64.5t-54.5 18.5q-23 0 -45.5 -8t-40.5 -21l-22 30q22 17 51.5 26.5t57.5 9.5q56 0 85 -30t29 -90v-202h-39v51h-2q-11 -21 -36 -39t-59 -18zM198 419q23 0 41 11
t30 28.5t18.5 39t6.5 42.5v10h-13q-17 0 -43 -1.5t-51 -8t-42.5 -21t-17.5 -40.5q0 -23 17.5 -41.5t53.5 -18.5zM83 300h253v-37h-253v37z" />
    <glyph glyph-name="guillemotleft" unicode="&#xab;" horiz-adv-x="494" 
d="M379 488h53l-164 -206l164 -205h-53l-164 205zM55 282l164 206h53l-164 -206l164 -205h-53z" />
    <glyph glyph-name="logicalnot" unicode="&#xac;" horiz-adv-x="629" 
d="M90 383h456v-219h-42v179h-414v40z" />
    <glyph glyph-name="uni00AD" unicode="&#xad;" horiz-adv-x="432" 
d="M78 303h276v-40h-276v40z" />
    <glyph glyph-name="registered" unicode="&#xae;" horiz-adv-x="835" 
d="M64 350q0 76 27.5 142t75.5 115t112 77t137 28q74 0 139 -28t113 -77t76 -115t28 -142t-28 -142t-76 -115t-113 -77t-139 -28q-73 0 -137 28t-112 77t-75.5 115t-27.5 142zM109 350q0 -68 23.5 -126.5t65 -101.5t97.5 -67.5t121 -24.5q66 0 123 24.5t98.5 67.5
t65.5 101.5t24 126.5q0 67 -24 125.5t-65.5 102t-98.5 68t-123 24.5q-65 0 -121 -24.5t-97.5 -68t-65 -102t-23.5 -125.5zM300 550h133q51 0 83.5 -31.5t32.5 -84.5q0 -45 -23 -72t-54 -35v-2q1 -2 3 -5q2 -2 4 -6.5t6 -10.5l79 -153h-49l-85 167h-86v-167h-44v400zM428 355
q35 0 55.5 21t20.5 58q0 36 -20.5 56t-55.5 20h-84v-155h84z" />
    <glyph glyph-name="macron" unicode="&#xaf;" horiz-adv-x="509" 
d="M135 826h239v-40h-239v40z" />
    <glyph glyph-name="degree" unicode="&#xb0;" horiz-adv-x="388" 
d="M194 449q-27 0 -50.5 10t-41.5 28t-28 41.5t-10 50.5t10 51t28 41.5t41.5 28t50.5 10.5t51 -10.5t41.5 -28t28 -41.5t10.5 -51t-10.5 -50.5t-28 -41.5t-41.5 -28t-51 -10zM194 489q38 0 63 26t25 64t-25 64.5t-63 26.5t-62.5 -26.5t-24.5 -64.5t24.5 -64t62.5 -26z" />
    <glyph glyph-name="plusminus" unicode="&#xb1;" horiz-adv-x="560" 
d="M22 303h237v263h43v-263h236v-40h-236v-263h-43v263h-237v40zM518 -113v-40h-476v40h476z" />
    <glyph glyph-name="uni00B2" unicode="&#xb2;" 
d="M54 423q-1 7 -1.5 14t-0.5 13q0 41 16.5 69.5t41 51t53 40.5t53 37.5t41 42t16.5 53.5q0 35 -25 61t-66 26q-29 0 -53 -14.5t-41 -35.5l-24 26q17 24 49.5 42t68.5 18q32 0 56.5 -10t41 -27t24.5 -39.5t8 -46.5q0 -38 -16 -64.5t-40.5 -47t-52.5 -38t-52.5 -36.5
t-41.5 -42.5t-18 -56.5h229v-36h-266v0z" />
    <glyph glyph-name="uni00B3" unicode="&#xb3;" 
d="M179 413q-38 0 -76 16t-62 49l28 26q14 -20 43 -37.5t68 -17.5q18 0 36.5 7.5t33.5 21t24 32t9 40.5q0 23 -9.5 41t-24.5 30t-34.5 18.5t-38.5 6.5h-32l-11 24l108 127q4 5 8.5 9t8.5 8l8 8v2l-12 -2q-5 -1 -11.5 -1h-14.5h-164v36h255v-26l-128 -150q20 -2 43 -9
t42.5 -22t32.5 -39.5t13 -60.5q0 -29 -11.5 -54t-31 -43.5t-45.5 -29t-55 -10.5z" />
    <glyph glyph-name="acute" unicode="&#xb4;" horiz-adv-x="509" 
d="M260 861h56l-79 -111h-44z" />
    <glyph glyph-name="mu" unicode="&#xb5;" horiz-adv-x="578" 
d="M130 39q1 -15 3 -28q1 -11 2 -23.5t1 -20.5v-167h-42v700h42v-302q0 -32 3.5 -62.5t16 -54t36.5 -38t66 -14.5q48 0 86 19t64.5 50.5t41 72.5t14.5 85v244h42v-500h-42v83v16t1 13q0 6 1 12h-2q-17 -38 -45 -68q-24 -26 -63.5 -47t-98.5 -21q-16 0 -34 2.5t-34.5 8.5
t-31.5 15.5t-25 24.5h-2v0z" />
    <glyph glyph-name="mu" unicode="&#x3bc;" horiz-adv-x="578" 
d="M130 39q1 -15 3 -28q1 -11 2 -23.5t1 -20.5v-167h-42v700h42v-302q0 -32 3.5 -62.5t16 -54t36.5 -38t66 -14.5q48 0 86 19t64.5 50.5t41 72.5t14.5 85v244h42v-500h-42v83v16t1 13q0 6 1 12h-2q-17 -38 -45 -68q-24 -26 -63.5 -47t-98.5 -21q-16 0 -34 2.5t-34.5 8.5
t-31.5 15.5t-25 24.5h-2v0z" />
    <glyph glyph-name="paragraph" unicode="&#xb6;" horiz-adv-x="543" 
d="M282 241q-48 0 -91.5 18t-76.5 49t-52.5 73t-19.5 90t19 90t52 73t76.5 48.5t91.5 17.5h210v-40h-167v-710h-42v291zM386 597h42v-647h-42v647z" />
    <glyph glyph-name="periodcentered" unicode="&#xb7;" horiz-adv-x="217" 
d="M78 318h61v-63h-61v63z" />
    <glyph glyph-name="cedilla" unicode="&#xb8;" horiz-adv-x="509" 
d="M233 18l32 -5v-8l-12 -65q31 -5 50 -23t19 -45q0 -21 -7.5 -35.5t-20.5 -23.5t-29 -13t-34 -4q-25 0 -44 4v38q8 -2 19 -3.5t22 -1.5q20 0 37 7.5t17 29.5q0 17 -16 27.5t-45 10.5q-2 0 -4 -0.5t-4 -0.5h-4z" />
    <glyph glyph-name="uni00B9" unicode="&#xb9;" 
d="M83 459h96v325v15q0 4 1 7h-1q-1 -2 -4 -6q-6 -8 -19 -21l-44 -43l-26 27l93 94h38v-398h93v-36h-227v36z" />
    <glyph glyph-name="ordmasculine" unicode="&#xba;" horiz-adv-x="488" 
d="M243 383q-34 0 -63.5 12.5t-51.5 35t-35 53t-13 65.5q0 34 13 63.5t35 51.5t51.5 34.5t63.5 12.5t63.5 -12.5t51.5 -34.5t35 -51.5t13 -63.5q0 -35 -13 -65.5t-35 -53t-51.5 -35t-63.5 -12.5zM243 420q26 0 48.5 9.5t39.5 27t26.5 41t9.5 51.5q0 27 -9.5 50t-26.5 39.5
t-39.5 26t-48.5 9.5t-48.5 -9.5t-39.5 -26t-26.5 -39.5t-9.5 -50q0 -28 9.5 -51.5t26.5 -41t39.5 -27t48.5 -9.5zM98 300h294v-37h-294v37z" />
    <glyph glyph-name="guillemotright" unicode="&#xbb;" horiz-adv-x="494" 
d="M386 282l-164 206h53l164 -206l-164 -205h-53zM226 282l-164 206h53l164 -206l-164 -205h-53z" />
    <glyph glyph-name="onequarter" unicode="&#xbc;" horiz-adv-x="911" 
d="M761 121h-215v26l222 287h31v-277h68v-36h-68v-121h-38v121zM761 157v147v22t1 21l2 22h-2q-6 -7 -11 -16q-5 -8 -11 -17t-13 -17l-126 -160v-2h160zM63 302h96v325v15q0 4 1 7h-1q-1 -2 -4 -6q-6 -8 -19 -21l-44 -43l-26 27l93 94h38v-398h93v-36h-227v36zM251 0
l336 700h43l-335 -700h-44z" />
    <glyph glyph-name="onehalf" unicode="&#xbd;" horiz-adv-x="899" 
d="M251 0l336 700h43l-335 -700h-44zM63 302h96v325v15q0 4 1 7h-1q-1 -2 -4 -6q-6 -8 -19 -21l-44 -43l-26 27l93 94h38v-398h93v-36h-227v36zM576 0q-1 7 -1.5 14t-0.5 13q0 40 16.5 69t41 51.5t53 40.5t53 37.5t41 42t16.5 53.5q0 35 -25 61t-66 26q-29 0 -53 -14.5
t-41 -35.5l-24 26q17 24 49.5 42t68.5 18q32 0 56.5 -10t41 -27t24.5 -39.5t8 -46.5q0 -37 -16 -64t-40.5 -47.5t-52.5 -38t-52.5 -36.5t-41.5 -42.5t-18 -56.5h229v-36h-266z" />
    <glyph glyph-name="threequarters" unicode="&#xbe;" horiz-adv-x="934" 
d="M189 256q-38 0 -76 16t-62 49l28 26q14 -20 43 -37.5t68 -17.5q18 0 36.5 7.5t33.5 21t24 32t9 40.5q0 23 -9.5 41t-24.5 30t-34.5 18.5t-38.5 6.5h-32l-11 24l108 127q4 5 8.5 9t8.5 8l8 8v2l-12 -2q-5 -1 -11.5 -1h-14.5h-164v36h255v-26l-128 -150q20 -2 43 -9
t42.5 -22t32.5 -39.5t13 -60.5q0 -29 -11.5 -54t-31 -43.5t-45.5 -29t-55 -10.5zM274 0l336 700h43l-335 -700h-44zM784 121h-215v26l222 287h31v-277h68v-36h-68v-121h-38v121zM784 157v147v22t1 21l2 22h-2q-6 -7 -11 -16q-5 -8 -11 -17t-13 -17l-126 -160v-2h160z" />
    <glyph glyph-name="questiondown" unicode="&#xbf;" horiz-adv-x="425" 
d="M267 281q0 -41 -13.5 -70.5t-33 -53.5t-43 -44t-43 -42.5t-33 -49t-13.5 -62.5q0 -27 10.5 -50.5t30 -41t46 -27.5t59.5 -10t67 11t60 31l23 -34q-26 -22 -67 -36t-82 -14q-43 0 -78.5 13t-60.5 36t-39 54.5t-14 68.5q0 41 13.5 71t33.5 54t43.5 44t43.5 42t33.5 48
t13.5 62v44h43v-44zM275 439h-59v61h59v-61z" />
    <glyph glyph-name="Agrave" unicode="&#xc0;" horiz-adv-x="624" 
d="M289 700h46l262 -700h-46l-91 242h-297l-90 -242h-46zM445 282l-106 284q-5 11 -9 25.5t-8 27.5q-4 15 -9 31h-2q-5 -16 -9 -31q-4 -13 -8.5 -27.5t-8.5 -25.5l-107 -284h267zM211 861h56l67 -111h-44z" />
    <glyph glyph-name="Aacute" unicode="&#xc1;" horiz-adv-x="624" 
d="M289 700h46l262 -700h-46l-91 242h-297l-90 -242h-46zM445 282l-106 284q-5 11 -9 25.5t-8 27.5q-4 15 -9 31h-2q-5 -16 -9 -31q-4 -13 -8.5 -27.5t-8.5 -25.5l-107 -284h267zM356 861h56l-79 -111h-44z" />
    <glyph glyph-name="Acircumflex" unicode="&#xc2;" horiz-adv-x="624" 
d="M289 700h46l262 -700h-46l-91 242h-297l-90 -242h-46zM445 282l-106 284q-5 11 -9 25.5t-8 27.5q-4 15 -9 31h-2q-5 -16 -9 -31q-4 -13 -8.5 -27.5t-8.5 -25.5l-107 -284h267zM286 861h52l80 -111h-49l-56 80h-2l-56 -80h-49z" />
    <glyph glyph-name="Atilde" unicode="&#xc3;" horiz-adv-x="624" 
d="M289 700h46l262 -700h-46l-91 242h-297l-90 -242h-46zM445 282l-106 284q-5 11 -9 25.5t-8 27.5q-4 15 -9 31h-2q-5 -16 -9 -31q-4 -13 -8.5 -27.5t-8.5 -25.5l-107 -284h267zM168 753q0 108 83 108q25 0 41.5 -11.5t29 -25.5t25 -25.5t30.5 -11.5q13 0 21 8t12 19
t5.5 23t1.5 21h40q0 -108 -83 -108q-25 0 -41.5 11.5t-29 25.5t-25 25.5t-30.5 11.5q-13 0 -21 -8t-12 -19t-5.5 -23t-1.5 -21h-40z" />
    <glyph glyph-name="Adieresis" unicode="&#xc4;" horiz-adv-x="624" 
d="M289 700h46l262 -700h-46l-91 242h-297l-90 -242h-46zM445 282l-106 284q-5 11 -9 25.5t-8 27.5q-4 15 -9 31h-2q-5 -16 -9 -31q-4 -13 -8.5 -27.5t-8.5 -25.5l-107 -284h267zM358 861h46v-73h-46v73zM221 861h46v-73h-46v73z" />
    <glyph glyph-name="Aring" unicode="&#xc5;" horiz-adv-x="624" 
d="M289 700h46l262 -700h-46l-91 242h-297l-90 -242h-46zM445 282l-106 284q-5 11 -9 25.5t-8 27.5q-4 15 -9 31h-2q-5 -16 -9 -31q-4 -13 -8.5 -27.5t-8.5 -25.5l-107 -284h267zM312 740q-29 0 -48 19t-19 48t19 48t48 19t48 -19t19 -48t-19 -48t-48 -19zM312 775
q14 0 23 9t9 23q0 15 -9 24t-23 9t-23 -9t-9 -24q0 -14 9 -23t23 -9z" />
    <glyph glyph-name="AE" unicode="&#xc6;" horiz-adv-x="825" 
d="M310 700h449v-40h-340v-287h279v-40h-279v-293h359v-40h-402v333h-171l-136 -333h-46zM376 373v287h-36l-118 -287h154z" />
    <glyph glyph-name="Ccedilla" unicode="&#xc7;" horiz-adv-x="720" 
d="M383 -11q-73 5 -132.5 35.5t-101.5 80t-65 113.5t-23 137q0 76 25.5 141.5t71.5 113.5t110 75t140 27q66 0 133 -20.5t117 -67.5l-26 -32q-43 38 -103 58.5t-120 20.5q-67 0 -122.5 -24t-95.5 -66t-62.5 -100t-22.5 -126t22 -127.5t62.5 -103.5t97 -69.5t124.5 -25.5
q65 0 127 24t110 71l27 -30q-43 -42 -105.5 -73t-151.5 -33l-9 -48q31 -5 50 -23t19 -45q0 -21 -7.5 -35.5t-20.5 -23.5t-29 -13t-34 -4q-25 0 -44 4v38q8 -2 19 -3.5t22 -1.5q20 0 37 7.5t17 29.5q0 17 -16 27.5t-45 10.5q-2 0 -4 -0.5t-4 -0.5h-4z" />
    <glyph glyph-name="Egrave" unicode="&#xc8;" horiz-adv-x="556" 
d="M107 700h383v-40h-340v-287h279v-40h-279v-293h359v-40h-402v700zM210 861h56l67 -111h-44z" />
    <glyph glyph-name="Eacute" unicode="&#xc9;" horiz-adv-x="556" 
d="M107 700h383v-40h-340v-287h279v-40h-279v-293h359v-40h-402v700zM355 861h56l-79 -111h-44z" />
    <glyph glyph-name="Ecircumflex" unicode="&#xca;" horiz-adv-x="556" 
d="M107 700h383v-40h-340v-287h279v-40h-279v-293h359v-40h-402v700zM285 861h52l80 -111h-49l-56 80h-2l-56 -80h-49z" />
    <glyph glyph-name="Edieresis" unicode="&#xcb;" horiz-adv-x="556" 
d="M107 700h383v-40h-340v-287h279v-40h-279v-293h359v-40h-402v700zM357 861h46v-73h-46v73zM220 861h46v-73h-46v73z" />
    <glyph glyph-name="Igrave" unicode="&#xcc;" horiz-adv-x="257" 
d="M107 700h43v-700h-43v700zM28 861h56l67 -111h-44z" />
    <glyph glyph-name="Iacute" unicode="&#xcd;" horiz-adv-x="257" 
d="M107 700h43v-700h-43v700zM173 861h56l-79 -111h-44z" />
    <glyph glyph-name="Icircumflex" unicode="&#xce;" horiz-adv-x="257" 
d="M107 700h43v-700h-43v700zM103 861h52l80 -111h-49l-56 80h-2l-56 -80h-49z" />
    <glyph glyph-name="Idieresis" unicode="&#xcf;" horiz-adv-x="257" 
d="M107 700h43v-700h-43v700zM175 861h46v-73h-46v73zM38 861h46v-73h-46v73z" />
    <glyph glyph-name="Eth" unicode="&#xd0;" horiz-adv-x="744" 
d="M113 333h-60v40h60v327h220q78 0 142.5 -23.5t110 -68.5t71 -110t25.5 -148q0 -84 -25.5 -149t-71 -109.5t-110 -68t-142.5 -23.5h-220v333zM326 40q70 0 127 20t98 59.5t63.5 97.5t22.5 133t-22.5 133t-63.5 97t-98 59.5t-127 20.5h-170v-287h183v-40h-183v-293h170z
" />
    <glyph glyph-name="Ntilde" unicode="&#xd1;" horiz-adv-x="750" 
d="M107 700h40l399 -549q8 -12 18.5 -27t18.5 -29l20 -32h2q-2 15 -3 31q-1 14 -1.5 28.5t-0.5 28.5v549h43v-700h-40l-399 549q-9 12 -19 27t-18 29l-20 32h-2q1 -15 2 -31q1 -14 2 -29t1 -28v-549h-43v700zM231 753q0 108 83 108q25 0 41.5 -11.5t29 -25.5t25 -25.5
t30.5 -11.5q13 0 21 8t12 19t5.5 23t1.5 21h40q0 -108 -83 -108q-25 0 -41.5 11.5t-29 25.5t-25 25.5t-30.5 11.5q-13 0 -21 -8t-12 -19t-5.5 -23t-1.5 -21h-40z" />
    <glyph glyph-name="Ograve" unicode="&#xd2;" horiz-adv-x="826" 
d="M59 355q0 75 27 140.5t74.5 113.5t112.5 75.5t140 27.5t140 -27.5t112.5 -75.5t74.5 -113.5t27 -140.5q0 -77 -27 -144t-74.5 -116.5t-112.5 -78t-140 -28.5t-140 28.5t-112.5 78t-74.5 116.5t-27 144zM104 355q0 -69 23.5 -128.5t64.5 -103.5t98 -69t123 -25t123 25
t98 69t64.5 103.5t23.5 128.5q0 67 -23.5 125t-64.5 100.5t-98 66.5t-123 24t-123 -24t-98 -66.5t-64.5 -100.5t-23.5 -125zM312 861h56l67 -111h-44z" />
    <glyph glyph-name="Oacute" unicode="&#xd3;" horiz-adv-x="826" 
d="M59 355q0 75 27 140.5t74.5 113.5t112.5 75.5t140 27.5t140 -27.5t112.5 -75.5t74.5 -113.5t27 -140.5q0 -77 -27 -144t-74.5 -116.5t-112.5 -78t-140 -28.5t-140 28.5t-112.5 78t-74.5 116.5t-27 144zM104 355q0 -69 23.5 -128.5t64.5 -103.5t98 -69t123 -25t123 25
t98 69t64.5 103.5t23.5 128.5q0 67 -23.5 125t-64.5 100.5t-98 66.5t-123 24t-123 -24t-98 -66.5t-64.5 -100.5t-23.5 -125zM457 861h56l-79 -111h-44z" />
    <glyph glyph-name="Ocircumflex" unicode="&#xd4;" horiz-adv-x="826" 
d="M59 355q0 75 27 140.5t74.5 113.5t112.5 75.5t140 27.5t140 -27.5t112.5 -75.5t74.5 -113.5t27 -140.5q0 -77 -27 -144t-74.5 -116.5t-112.5 -78t-140 -28.5t-140 28.5t-112.5 78t-74.5 116.5t-27 144zM104 355q0 -69 23.5 -128.5t64.5 -103.5t98 -69t123 -25t123 25
t98 69t64.5 103.5t23.5 128.5q0 67 -23.5 125t-64.5 100.5t-98 66.5t-123 24t-123 -24t-98 -66.5t-64.5 -100.5t-23.5 -125zM387 861h52l80 -111h-49l-56 80h-2l-56 -80h-49z" />
    <glyph glyph-name="Otilde" unicode="&#xd5;" horiz-adv-x="826" 
d="M59 355q0 75 27 140.5t74.5 113.5t112.5 75.5t140 27.5t140 -27.5t112.5 -75.5t74.5 -113.5t27 -140.5q0 -77 -27 -144t-74.5 -116.5t-112.5 -78t-140 -28.5t-140 28.5t-112.5 78t-74.5 116.5t-27 144zM104 355q0 -69 23.5 -128.5t64.5 -103.5t98 -69t123 -25t123 25
t98 69t64.5 103.5t23.5 128.5q0 67 -23.5 125t-64.5 100.5t-98 66.5t-123 24t-123 -24t-98 -66.5t-64.5 -100.5t-23.5 -125zM269 753q0 108 83 108q25 0 41.5 -11.5t29 -25.5t25 -25.5t30.5 -11.5q13 0 21 8t12 19t5.5 23t1.5 21h40q0 -108 -83 -108q-25 0 -41.5 11.5
t-29 25.5t-25 25.5t-30.5 11.5q-13 0 -21 -8t-12 -19t-5.5 -23t-1.5 -21h-40z" />
    <glyph glyph-name="Odieresis" unicode="&#xd6;" horiz-adv-x="826" 
d="M59 355q0 75 27 140.5t74.5 113.5t112.5 75.5t140 27.5t140 -27.5t112.5 -75.5t74.5 -113.5t27 -140.5q0 -77 -27 -144t-74.5 -116.5t-112.5 -78t-140 -28.5t-140 28.5t-112.5 78t-74.5 116.5t-27 144zM104 355q0 -69 23.5 -128.5t64.5 -103.5t98 -69t123 -25t123 25
t98 69t64.5 103.5t23.5 128.5q0 67 -23.5 125t-64.5 100.5t-98 66.5t-123 24t-123 -24t-98 -66.5t-64.5 -100.5t-23.5 -125zM459 861h46v-73h-46v73zM322 861h46v-73h-46v73z" />
    <glyph glyph-name="multiply" unicode="&#xd7;" horiz-adv-x="560" 
d="M252 283l-224 255l30 28l222 -252l222 252l30 -28l-225 -255l225 -255l-30 -28l-222 252l-222 -252l-30 28z" />
    <glyph glyph-name="Oslash" unicode="&#xd8;" horiz-adv-x="825" 
d="M187 71q-59 51 -93.5 124t-34.5 159q0 76 28 141.5t76 113.5t112.5 75.5t137.5 27.5q54 0 102 -15t90 -42l49 69l34 -25l-49 -69q59 -49 93.5 -119.5t34.5 -156.5q0 -77 -28 -143.5t-76 -116t-112.5 -78t-137.5 -28.5q-54 0 -102 15t-90 43l-49 -69l-35 24zM580 621
q-36 24 -78 37t-89 13q-64 0 -120.5 -24t-98.5 -67t-66 -101t-24 -125q0 -77 30 -141t78 -107zM245 80q74 -51 167 -51q64 0 120.5 25t98.5 68.5t66.5 103t24.5 127.5q0 76 -29 138t-79 105z" />
    <glyph glyph-name="Ugrave" unicode="&#xd9;" horiz-adv-x="721" 
d="M99 700h43v-458q0 -50 15.5 -89t44 -67t68.5 -42.5t90 -14.5q49 0 89.5 14.5t69.5 42.5t44.5 68t15.5 90v456h43v-460q0 -58 -19 -104.5t-53.5 -79.5t-82.5 -50.5t-106 -17.5t-106 17.5t-82.5 50.5t-54 79.5t-19.5 104.5v460zM259 861h56l67 -111h-44z" />
    <glyph glyph-name="Uacute" unicode="&#xda;" horiz-adv-x="721" 
d="M99 700h43v-458q0 -50 15.5 -89t44 -67t68.5 -42.5t90 -14.5q49 0 89.5 14.5t69.5 42.5t44.5 68t15.5 90v456h43v-460q0 -58 -19 -104.5t-53.5 -79.5t-82.5 -50.5t-106 -17.5t-106 17.5t-82.5 50.5t-54 79.5t-19.5 104.5v460zM404 861h56l-79 -111h-44z" />
    <glyph glyph-name="Ucircumflex" unicode="&#xdb;" horiz-adv-x="721" 
d="M99 700h43v-458q0 -50 15.5 -89t44 -67t68.5 -42.5t90 -14.5q49 0 89.5 14.5t69.5 42.5t44.5 68t15.5 90v456h43v-460q0 -58 -19 -104.5t-53.5 -79.5t-82.5 -50.5t-106 -17.5t-106 17.5t-82.5 50.5t-54 79.5t-19.5 104.5v460zM334 861h52l80 -111h-49l-56 80h-2l-56 -80
h-49z" />
    <glyph glyph-name="Udieresis" unicode="&#xdc;" horiz-adv-x="721" 
d="M99 700h43v-458q0 -50 15.5 -89t44 -67t68.5 -42.5t90 -14.5q49 0 89.5 14.5t69.5 42.5t44.5 68t15.5 90v456h43v-460q0 -58 -19 -104.5t-53.5 -79.5t-82.5 -50.5t-106 -17.5t-106 17.5t-82.5 50.5t-54 79.5t-19.5 104.5v460zM406 861h46v-73h-46v73zM269 861h46v-73h-46
v73z" />
    <glyph glyph-name="Yacute" unicode="&#xdd;" horiz-adv-x="567" 
d="M262 304l-238 396h49l166 -276q8 -13 15.5 -27t13.5 -25q7 -14 14 -27h2q7 13 14 27q6 11 13.5 25t15.5 27l166 276h49l-237 -396v-304h-43v304zM327 861h56l-79 -111h-44z" />
    <glyph glyph-name="Thorn" unicode="&#xde;" horiz-adv-x="593" 
d="M107 700h43v-130h187q46 0 85 -14t67.5 -40.5t44.5 -64t16 -85.5t-16 -86t-45 -64.5t-68.5 -41t-85.5 -14.5h-185v-160h-43v700zM335 200q77 0 123.5 43.5t46.5 122.5t-46.5 121.5t-123.5 42.5h-185v-330h185z" />
    <glyph glyph-name="germandbls" unicode="&#xdf;" horiz-adv-x="562" 
d="M87 532q0 44 16.5 77.5t43 56.5t60 34.5t68.5 11.5q39 0 69 -12t50.5 -31.5t31 -44t10.5 -50.5q0 -41 -19 -69t-41.5 -50.5t-41.5 -42.5t-19 -44q0 -18 15.5 -34t39 -32.5t51 -33.5t51 -37.5t39 -45.5t15.5 -57q0 -34 -13 -59.5t-34.5 -42t-49 -25t-57.5 -8.5
q-39 0 -79 7.5t-75 27.5v46q32 -20 74 -30t81 -10q21 0 41 5.5t35 17t24 29.5t9 42q0 26 -15.5 47t-39 38.5t-51 34t-51 34t-39 38t-15.5 46.5q0 34 19 58t41.5 46.5t41.5 46.5t19 57q0 17 -7.5 34t-22 31t-37 23t-52.5 9q-27 0 -52.5 -9.5t-46 -27.5t-33 -44.5t-12.5 -60.5
v-529h-42v532z" />
    <glyph glyph-name="agrave" unicode="&#xe0;" horiz-adv-x="508" 
d="M41 133q0 42 17 71.5t44 48.5t61 29.5t68.5 15.5t66 6t53.5 1h33v17q0 42 -10 70.5t-28.5 46t-43.5 25t-55 7.5q-38 0 -75 -12.5t-68 -35.5l-24 34q29 26 75 40.5t94 14.5q87 0 132 -47.5t45 -141.5v-323h-42v66q0 10 0.5 18.5t1.5 14.5q1 7 2 12h-2q-9 -24 -25.5 -46.5
t-39 -39.5t-50 -27t-60.5 -10q-30 0 -60.5 8.5t-55 26.5t-39.5 45t-15 65zM85 136q0 -20 8 -39.5t24 -35t40 -25t56 -9.5q41 0 73 19t53.5 49.5t33 68.5t11.5 75v27h-32q-21 0 -49 -0.5t-58 -4t-58.5 -11.5t-51 -22.5t-36.5 -37t-14 -54.5zM148 700h56l67 -111h-44z" />
    <glyph glyph-name="aacute" unicode="&#xe1;" horiz-adv-x="508" 
d="M41 133q0 42 17 71.5t44 48.5t61 29.5t68.5 15.5t66 6t53.5 1h33v17q0 42 -10 70.5t-28.5 46t-43.5 25t-55 7.5q-38 0 -75 -12.5t-68 -35.5l-24 34q29 26 75 40.5t94 14.5q87 0 132 -47.5t45 -141.5v-323h-42v66q0 10 0.5 18.5t1.5 14.5q1 7 2 12h-2q-9 -24 -25.5 -46.5
t-39 -39.5t-50 -27t-60.5 -10q-30 0 -60.5 8.5t-55 26.5t-39.5 45t-15 65zM85 136q0 -20 8 -39.5t24 -35t40 -25t56 -9.5q41 0 73 19t53.5 49.5t33 68.5t11.5 75v27h-32q-21 0 -49 -0.5t-58 -4t-58.5 -11.5t-51 -22.5t-36.5 -37t-14 -54.5zM292 700h56l-79 -111h-44z" />
    <glyph glyph-name="acircumflex" unicode="&#xe2;" horiz-adv-x="508" 
d="M41 133q0 42 17 71.5t44 48.5t61 29.5t68.5 15.5t66 6t53.5 1h33v17q0 42 -10 70.5t-28.5 46t-43.5 25t-55 7.5q-38 0 -75 -12.5t-68 -35.5l-24 34q29 26 75 40.5t94 14.5q87 0 132 -47.5t45 -141.5v-323h-42v66q0 10 0.5 18.5t1.5 14.5q1 7 2 12h-2q-9 -24 -25.5 -46.5
t-39 -39.5t-50 -27t-60.5 -10q-30 0 -60.5 8.5t-55 26.5t-39.5 45t-15 65zM85 136q0 -20 8 -39.5t24 -35t40 -25t56 -9.5q41 0 73 19t53.5 49.5t33 68.5t11.5 75v27h-32q-21 0 -49 -0.5t-58 -4t-58.5 -11.5t-51 -22.5t-36.5 -37t-14 -54.5zM223 700h52l80 -111h-49l-56 80
h-2l-56 -80h-49z" />
    <glyph glyph-name="atilde" unicode="&#xe3;" horiz-adv-x="508" 
d="M41 133q0 42 17 71.5t44 48.5t61 29.5t68.5 15.5t66 6t53.5 1h33v17q0 42 -10 70.5t-28.5 46t-43.5 25t-55 7.5q-38 0 -75 -12.5t-68 -35.5l-24 34q29 26 75 40.5t94 14.5q87 0 132 -47.5t45 -141.5v-323h-42v66q0 10 0.5 18.5t1.5 14.5q1 7 2 12h-2q-9 -24 -25.5 -46.5
t-39 -39.5t-50 -27t-60.5 -10q-30 0 -60.5 8.5t-55 26.5t-39.5 45t-15 65zM85 136q0 -20 8 -39.5t24 -35t40 -25t56 -9.5q41 0 73 19t53.5 49.5t33 68.5t11.5 75v27h-32q-21 0 -49 -0.5t-58 -4t-58.5 -11.5t-51 -22.5t-36.5 -37t-14 -54.5zM105 592q0 108 83 108
q25 0 41.5 -11.5t29 -25.5t25 -25.5t30.5 -11.5q13 0 21 8t12 19t5.5 23t1.5 21h40q0 -108 -83 -108q-25 0 -41.5 11.5t-29 25.5t-25 25.5t-30.5 11.5q-13 0 -21 -8t-12 -19t-5.5 -23t-1.5 -21h-40z" />
    <glyph glyph-name="adieresis" unicode="&#xe4;" horiz-adv-x="508" 
d="M41 133q0 42 17 71.5t44 48.5t61 29.5t68.5 15.5t66 6t53.5 1h33v17q0 42 -10 70.5t-28.5 46t-43.5 25t-55 7.5q-38 0 -75 -12.5t-68 -35.5l-24 34q29 26 75 40.5t94 14.5q87 0 132 -47.5t45 -141.5v-323h-42v66q0 10 0.5 18.5t1.5 14.5q1 7 2 12h-2q-9 -24 -25.5 -46.5
t-39 -39.5t-50 -27t-60.5 -10q-30 0 -60.5 8.5t-55 26.5t-39.5 45t-15 65zM85 136q0 -20 8 -39.5t24 -35t40 -25t56 -9.5q41 0 73 19t53.5 49.5t33 68.5t11.5 75v27h-32q-21 0 -49 -0.5t-58 -4t-58.5 -11.5t-51 -22.5t-36.5 -37t-14 -54.5zM295 700h46v-73h-46v73zM158 700
h46v-73h-46v73z" />
    <glyph glyph-name="aring" unicode="&#xe5;" horiz-adv-x="508" 
d="M41 133q0 42 17 71.5t44 48.5t61 29.5t68.5 15.5t66 6t53.5 1h33v17q0 42 -10 70.5t-28.5 46t-43.5 25t-55 7.5q-38 0 -75 -12.5t-68 -35.5l-24 34q29 26 75 40.5t94 14.5q87 0 132 -47.5t45 -141.5v-323h-42v66q0 10 0.5 18.5t1.5 14.5q1 7 2 12h-2q-9 -24 -25.5 -46.5
t-39 -39.5t-50 -27t-60.5 -10q-30 0 -60.5 8.5t-55 26.5t-39.5 45t-15 65zM85 136q0 -20 8 -39.5t24 -35t40 -25t56 -9.5q41 0 73 19t53.5 49.5t33 68.5t11.5 75v27h-32q-21 0 -49 -0.5t-58 -4t-58.5 -11.5t-51 -22.5t-36.5 -37t-14 -54.5zM249 579q-29 0 -48 19t-19 48
t19 48t48 19t48 -19t19 -48t-19 -48t-48 -19zM249 614q14 0 23 9t9 23q0 15 -9 24t-23 9t-23 -9t-9 -24q0 -14 9 -23t23 -9z" />
    <glyph glyph-name="ae" unicode="&#xe6;" horiz-adv-x="869" 
d="M42 133q0 61 30.5 95t76 50t98 19t97.5 3h40v22q0 42 -10 70.5t-29 46t-45 25t-57 7.5q-77 0 -139 -48l-24 34q29 26 74.5 40.5t90.5 14.5q79 0 119 -32t53 -85h2q31 59 82.5 88t115.5 29q50 0 87.5 -18t63 -48.5t38.5 -71t13 -85.5q0 -6 -0.5 -14t-1.5 -14h-391
q0 -56 15.5 -99.5t42.5 -73t64.5 -44.5t81.5 -15q42 0 83.5 16.5t71.5 46.5l23 -35q-32 -31 -80.5 -50t-97.5 -19q-78 0 -138 40.5t-87 112.5h-2q-2 -10 -12.5 -35t-32.5 -51.5t-57.5 -46.5t-86.5 -20q-34 0 -65 9t-55 27.5t-38 45.5t-14 63zM775 300q-2 46 -16 78.5
t-36.5 53.5t-50.5 30.5t-58 9.5q-69 0 -120 -42.5t-64 -129.5h345zM86 136q0 -21 8 -40.5t24.5 -35t40 -24.5t55.5 -9q41 0 72.5 19t53.5 49.5t33 68.5t11 75v22h-69q-35 0 -75 -3t-74 -15.5t-57 -37.5t-23 -69z" />
    <glyph glyph-name="ccedilla" unicode="&#xe7;" horiz-adv-x="542" 
d="M281 -10q-48 5 -89.5 25t-72.5 53.5t-48.5 79t-17.5 101.5q0 60 21 108.5t56 83t82 53t99 18.5q48 0 97 -17.5t82 -53.5l-26 -34q-27 29 -68 46.5t-85 17.5t-83 -15.5t-68 -44.5t-46 -70t-17 -92q0 -50 17 -90.5t46 -69.5t68 -44.5t83 -15.5q46 0 91 18.5t76 53.5l22 -35
q-31 -35 -80 -55.5t-104 -22.5l-9 -48q31 -5 50 -23t19 -45q0 -21 -7.5 -35.5t-20.5 -23.5t-29 -13t-34 -4q-25 0 -44 4v38q8 -2 19 -3.5t22 -1.5q20 0 37 7.5t17 29.5q0 17 -16 27.5t-45 10.5q-2 0 -4 -0.5t-4 -0.5h-4z" />
    <glyph glyph-name="egrave" unicode="&#xe8;" horiz-adv-x="549" 
d="M52 249q0 63 20 112t53.5 82.5t77.5 51t92 17.5q51 0 89 -18.5t63.5 -50t38.5 -73t13 -86.5q0 -6 -0.5 -13t-1.5 -14h-401q0 -54 17 -96.5t46.5 -72t68 -44.5t82.5 -15q42 0 83.5 16.5t71.5 46.5l23 -35q-33 -32 -81.5 -50.5t-96.5 -18.5q-53 0 -100 18.5t-82 52.5
t-55.5 82t-20.5 108zM455 296q-2 46 -15.5 79t-35.5 55t-50.5 32.5t-59.5 10.5q-35 0 -67 -11t-58.5 -33.5t-44.5 -55.5t-25 -77h356zM197 700h56l67 -111h-44z" />
    <glyph glyph-name="eacute" unicode="&#xe9;" horiz-adv-x="549" 
d="M52 249q0 63 20 112t53.5 82.5t77.5 51t92 17.5q51 0 89 -18.5t63.5 -50t38.5 -73t13 -86.5q0 -6 -0.5 -13t-1.5 -14h-401q0 -54 17 -96.5t46.5 -72t68 -44.5t82.5 -15q42 0 83.5 16.5t71.5 46.5l23 -35q-33 -32 -81.5 -50.5t-96.5 -18.5q-53 0 -100 18.5t-82 52.5
t-55.5 82t-20.5 108zM455 296q-2 46 -15.5 79t-35.5 55t-50.5 32.5t-59.5 10.5q-35 0 -67 -11t-58.5 -33.5t-44.5 -55.5t-25 -77h356zM341 700h56l-79 -111h-44z" />
    <glyph glyph-name="ecircumflex" unicode="&#xea;" horiz-adv-x="549" 
d="M52 249q0 63 20 112t53.5 82.5t77.5 51t92 17.5q51 0 89 -18.5t63.5 -50t38.5 -73t13 -86.5q0 -6 -0.5 -13t-1.5 -14h-401q0 -54 17 -96.5t46.5 -72t68 -44.5t82.5 -15q42 0 83.5 16.5t71.5 46.5l23 -35q-33 -32 -81.5 -50.5t-96.5 -18.5q-53 0 -100 18.5t-82 52.5
t-55.5 82t-20.5 108zM455 296q-2 46 -15.5 79t-35.5 55t-50.5 32.5t-59.5 10.5q-35 0 -67 -11t-58.5 -33.5t-44.5 -55.5t-25 -77h356zM271 700h52l80 -111h-49l-56 80h-2l-56 -80h-49z" />
    <glyph glyph-name="edieresis" unicode="&#xeb;" horiz-adv-x="549" 
d="M52 249q0 63 20 112t53.5 82.5t77.5 51t92 17.5q51 0 89 -18.5t63.5 -50t38.5 -73t13 -86.5q0 -6 -0.5 -13t-1.5 -14h-401q0 -54 17 -96.5t46.5 -72t68 -44.5t82.5 -15q42 0 83.5 16.5t71.5 46.5l23 -35q-33 -32 -81.5 -50.5t-96.5 -18.5q-53 0 -100 18.5t-82 52.5
t-55.5 82t-20.5 108zM455 296q-2 46 -15.5 79t-35.5 55t-50.5 32.5t-59.5 10.5q-35 0 -67 -11t-58.5 -33.5t-44.5 -55.5t-25 -77h356zM343 700h46v-73h-46v73zM206 700h46v-73h-46v73z" />
    <glyph glyph-name="igrave" unicode="&#xec;" horiz-adv-x="216" 
d="M87 500h42v-500h-42v500zM8 700h56l67 -111h-44z" />
    <glyph glyph-name="iacute" unicode="&#xed;" horiz-adv-x="216" 
d="M87 500h42v-500h-42v500zM153 700h56l-79 -111h-44z" />
    <glyph glyph-name="icircumflex" unicode="&#xee;" horiz-adv-x="216" 
d="M87 500h42v-500h-42v500zM83 700h52l80 -111h-49l-56 80h-2l-56 -80h-49z" />
    <glyph glyph-name="idieresis" unicode="&#xef;" horiz-adv-x="216" 
d="M87 500h42v-500h-42v500zM155 700h46v-73h-46v73zM18 700h46v-73h-46v73z" />
    <glyph glyph-name="eth" unicode="&#xf0;" horiz-adv-x="577" 
d="M54 230q0 45 15 88t45 76t75.5 53.5t105.5 20.5q42 0 72 -10.5t50 -22.5q24 -15 40 -33h2q-20 61 -54.5 105.5t-82.5 77.5l-172 -80l-17 37l146 68q-34 18 -72.5 32t-80.5 25l12 38q45 -11 93.5 -28.5t94.5 -45.5l123 58l17 -37l-101 -47q33 -25 61.5 -58t49.5 -75
t33 -92t12 -110q0 -50 -14 -100t-44 -90.5t-75.5 -66t-108.5 -25.5q-54 0 -96 21t-70.5 55t-43.5 77.5t-15 88.5zM98 230q0 -38 12.5 -74.5t35.5 -65t57 -45.5t78 -17q51 0 88 22t61 56t35.5 75.5t11.5 81.5q0 36 -13 66t-37 52t-58 34.5t-75 12.5q-50 0 -87 -17t-61 -45
t-36 -63.5t-12 -72.5z" />
    <glyph glyph-name="ntilde" unicode="&#xf1;" horiz-adv-x="586" 
d="M87 500h42v-88q0 -9 -0.5 -16.5t-1.5 -12.5l-2 -12h2q6 18 22.5 42t43 46t63 37.5t83.5 15.5q49 0 80.5 -14t50.5 -39.5t26.5 -61.5t7.5 -80v-317h-42v302q0 33 -3.5 63.5t-16 54t-37 37.5t-66.5 14q-43 0 -81 -16.5t-66.5 -46.5t-45.5 -70.5t-17 -88.5v-249h-42v500z
M163 592q0 108 83 108q25 0 41.5 -11.5t29 -25.5t25 -25.5t30.5 -11.5q13 0 21 8t12 19t5.5 23t1.5 21h40q0 -108 -83 -108q-25 0 -41.5 11.5t-29 25.5t-25 25.5t-30.5 11.5q-13 0 -21 -8t-12 -19t-5.5 -23t-1.5 -21h-40z" />
    <glyph glyph-name="ograve" unicode="&#xf2;" horiz-adv-x="620" 
d="M51 253q0 55 20.5 102t55.5 82t82 55t101 20t101 -20t82 -55t55.5 -82t20.5 -102q0 -56 -20.5 -104.5t-55.5 -84t-82 -56t-101 -20.5t-101 20.5t-82 56t-55.5 84t-20.5 104.5zM95 253q0 -48 17 -89t46 -71t68 -47t84 -17t84 17t68 47t46 71t17 89q0 46 -17 86t-46 69.5
t-68 46t-84 16.5t-84 -16.5t-68 -46t-46 -69.5t-17 -86zM209 700h56l67 -111h-44z" />
    <glyph glyph-name="oacute" unicode="&#xf3;" horiz-adv-x="620" 
d="M51 253q0 55 20.5 102t55.5 82t82 55t101 20t101 -20t82 -55t55.5 -82t20.5 -102q0 -56 -20.5 -104.5t-55.5 -84t-82 -56t-101 -20.5t-101 20.5t-82 56t-55.5 84t-20.5 104.5zM95 253q0 -48 17 -89t46 -71t68 -47t84 -17t84 17t68 47t46 71t17 89q0 46 -17 86t-46 69.5
t-68 46t-84 16.5t-84 -16.5t-68 -46t-46 -69.5t-17 -86zM354 700h56l-79 -111h-44z" />
    <glyph glyph-name="ocircumflex" unicode="&#xf4;" horiz-adv-x="620" 
d="M51 253q0 55 20.5 102t55.5 82t82 55t101 20t101 -20t82 -55t55.5 -82t20.5 -102q0 -56 -20.5 -104.5t-55.5 -84t-82 -56t-101 -20.5t-101 20.5t-82 56t-55.5 84t-20.5 104.5zM95 253q0 -48 17 -89t46 -71t68 -47t84 -17t84 17t68 47t46 71t17 89q0 46 -17 86t-46 69.5
t-68 46t-84 16.5t-84 -16.5t-68 -46t-46 -69.5t-17 -86zM284 700h52l80 -111h-49l-56 80h-2l-56 -80h-49z" />
    <glyph glyph-name="otilde" unicode="&#xf5;" horiz-adv-x="620" 
d="M51 253q0 55 20.5 102t55.5 82t82 55t101 20t101 -20t82 -55t55.5 -82t20.5 -102q0 -56 -20.5 -104.5t-55.5 -84t-82 -56t-101 -20.5t-101 20.5t-82 56t-55.5 84t-20.5 104.5zM95 253q0 -48 17 -89t46 -71t68 -47t84 -17t84 17t68 47t46 71t17 89q0 46 -17 86t-46 69.5
t-68 46t-84 16.5t-84 -16.5t-68 -46t-46 -69.5t-17 -86zM166 592q0 108 83 108q25 0 41.5 -11.5t29 -25.5t25 -25.5t30.5 -11.5q13 0 21 8t12 19t5.5 23t1.5 21h40q0 -108 -83 -108q-25 0 -41.5 11.5t-29 25.5t-25 25.5t-30.5 11.5q-13 0 -21 -8t-12 -19t-5.5 -23t-1.5 -21
h-40z" />
    <glyph glyph-name="odieresis" unicode="&#xf6;" horiz-adv-x="620" 
d="M51 253q0 55 20.5 102t55.5 82t82 55t101 20t101 -20t82 -55t55.5 -82t20.5 -102q0 -56 -20.5 -104.5t-55.5 -84t-82 -56t-101 -20.5t-101 20.5t-82 56t-55.5 84t-20.5 104.5zM95 253q0 -48 17 -89t46 -71t68 -47t84 -17t84 17t68 47t46 71t17 89q0 46 -17 86t-46 69.5
t-68 46t-84 16.5t-84 -16.5t-68 -46t-46 -69.5t-17 -86zM356 700h46v-73h-46v73zM219 700h46v-73h-46v73z" />
    <glyph glyph-name="divide" unicode="&#xf7;" horiz-adv-x="560" 
d="M251 490h57v-59h-57v59zM42 303h476v-40h-476v40zM251 135h57v-59h-57v59z" />
    <glyph glyph-name="oslash" unicode="&#xf8;" horiz-adv-x="621" 
d="M146 48q-44 36 -69 89t-25 116q0 55 20.5 102t55.5 82t82 55t101 20q76 0 138 -39l38 53l34 -26l-38 -53q40 -35 63.5 -85t23.5 -109q0 -56 -20.5 -104.5t-55.5 -84t-82 -56t-101 -20.5q-72 0 -130 35l-37 -52l-34 26zM425 439q-25 15 -53.5 23.5t-60.5 8.5
q-45 0 -84 -16.5t-68 -46t-46 -69.5t-17 -86q0 -53 20 -96.5t54 -74.5zM205 57q48 -28 106 -28q45 0 84 17t68 47t46 71t17 89t-18 89t-50 70z" />
    <glyph glyph-name="ugrave" unicode="&#xf9;" horiz-adv-x="580" 
d="M81 500h42v-302q0 -33 3.5 -63.5t16 -54t37 -37.5t66.5 -14q47 0 85 19t64.5 50.5t41 72.5t14.5 85v244h42v-500h-42v88q0 8 0.5 16t1.5 13l2 12h-2q-6 -18 -22.5 -42t-42 -46t-61.5 -37.5t-81 -15.5q-92 0 -128.5 50t-36.5 145v317zM187 700h56l67 -111h-44z" />
    <glyph glyph-name="uacute" unicode="&#xfa;" horiz-adv-x="580" 
d="M81 500h42v-302q0 -33 3.5 -63.5t16 -54t37 -37.5t66.5 -14q47 0 85 19t64.5 50.5t41 72.5t14.5 85v244h42v-500h-42v88q0 8 0.5 16t1.5 13l2 12h-2q-6 -18 -22.5 -42t-42 -46t-61.5 -37.5t-81 -15.5q-92 0 -128.5 50t-36.5 145v317zM331 700h56l-79 -111h-44z" />
    <glyph glyph-name="ucircumflex" unicode="&#xfb;" horiz-adv-x="580" 
d="M81 500h42v-302q0 -33 3.5 -63.5t16 -54t37 -37.5t66.5 -14q47 0 85 19t64.5 50.5t41 72.5t14.5 85v244h42v-500h-42v88q0 8 0.5 16t1.5 13l2 12h-2q-6 -18 -22.5 -42t-42 -46t-61.5 -37.5t-81 -15.5q-92 0 -128.5 50t-36.5 145v317zM261 700h52l80 -111h-49l-56 80h-2
l-56 -80h-49z" />
    <glyph glyph-name="udieresis" unicode="&#xfc;" horiz-adv-x="580" 
d="M81 500h42v-302q0 -33 3.5 -63.5t16 -54t37 -37.5t66.5 -14q47 0 85 19t64.5 50.5t41 72.5t14.5 85v244h42v-500h-42v88q0 8 0.5 16t1.5 13l2 12h-2q-6 -18 -22.5 -42t-42 -46t-61.5 -37.5t-81 -15.5q-92 0 -128.5 50t-36.5 145v317zM333 700h46v-73h-46v73zM196 700h46
v-73h-46v73z" />
    <glyph glyph-name="yacute" unicode="&#xfd;" horiz-adv-x="517" 
d="M41 -146q8 -7 18 -12q8 -5 19.5 -8.5t24.5 -3.5q18 0 32.5 7.5t26.5 20t21.5 28.5t17.5 34l36 83l-207 497h45l165 -399q4 -9 7.5 -17.5t5.5 -15.5q3 -8 5 -14h2q2 6 5 14q2 7 5 15.5t7 17.5l165 399h45l-257 -617q-17 -39 -48 -66t-79 -27q-18 0 -33 4.5t-26 9.5
q-12 6 -22 14zM303 700h56l-79 -111h-44z" />
    <glyph glyph-name="thorn" unicode="&#xfe;" horiz-adv-x="578" 
d="M87 700h42v-255q0 -9 -0.5 -16.5t-0.5 -12.5v-11h2q18 45 65 76t113 31q50 0 90 -19t68 -53.5t43 -83t15 -106.5q0 -60 -16.5 -108t-46 -82.5t-70.5 -53t-89 -18.5q-27 0 -53.5 7.5t-49.5 21t-41 33.5t-29 46h-2q0 -5 1 -12q0 -6 0.5 -14t0.5 -18v-252h-42v900zM128 249
q0 -42 11.5 -81.5t33.5 -70.5t54.5 -50t74.5 -19q37 0 69.5 15t56.5 43.5t38 69.5t14 94q0 51 -13 91.5t-36 69.5t-55 44.5t-70 15.5q-35 0 -67 -12.5t-56.5 -39.5t-39.5 -69t-15 -101z" />
    <glyph glyph-name="ydieresis" unicode="&#xff;" horiz-adv-x="517" 
d="M41 -146q8 -7 18 -12q8 -5 19.5 -8.5t24.5 -3.5q18 0 32.5 7.5t26.5 20t21.5 28.5t17.5 34l36 83l-207 497h45l165 -399q4 -9 7.5 -17.5t5.5 -15.5q3 -8 5 -14h2q2 6 5 14q2 7 5 15.5t7 17.5l165 399h45l-257 -617q-17 -39 -48 -66t-79 -27q-18 0 -33 4.5t-26 9.5
q-12 6 -22 14zM305 700h46v-73h-46v73zM168 700h46v-73h-46v73z" />
    <glyph glyph-name="Amacron" unicode="&#x100;" horiz-adv-x="624" 
d="M289 700h46l262 -700h-46l-91 242h-297l-90 -242h-46zM445 282l-106 284q-5 11 -9 25.5t-8 27.5q-4 15 -9 31h-2q-5 -16 -9 -31q-4 -13 -8.5 -27.5t-8.5 -25.5l-107 -284h267zM193 826h239v-40h-239v40z" />
    <glyph glyph-name="amacron" unicode="&#x101;" horiz-adv-x="508" 
d="M41 133q0 42 17 71.5t44 48.5t61 29.5t68.5 15.5t66 6t53.5 1h33v17q0 42 -10 70.5t-28.5 46t-43.5 25t-55 7.5q-38 0 -75 -12.5t-68 -35.5l-24 34q29 26 75 40.5t94 14.5q87 0 132 -47.5t45 -141.5v-323h-42v66q0 10 0.5 18.5t1.5 14.5q1 7 2 12h-2q-9 -24 -25.5 -46.5
t-39 -39.5t-50 -27t-60.5 -10q-30 0 -60.5 8.5t-55 26.5t-39.5 45t-15 65zM85 136q0 -20 8 -39.5t24 -35t40 -25t56 -9.5q41 0 73 19t53.5 49.5t33 68.5t11.5 75v27h-32q-21 0 -49 -0.5t-58 -4t-58.5 -11.5t-51 -22.5t-36.5 -37t-14 -54.5zM130 665h239v-40h-239v40z" />
    <glyph glyph-name="Abreve" unicode="&#x102;" horiz-adv-x="624" 
d="M289 700h46l262 -700h-46l-91 242h-297l-90 -242h-46zM445 282l-106 284q-5 11 -9 25.5t-8 27.5q-4 15 -9 31h-2q-5 -16 -9 -31q-4 -13 -8.5 -27.5t-8.5 -25.5l-107 -284h267zM312 747q-19 0 -37 6t-32.5 18t-23 30.5t-8.5 43.5v16h40v-14q0 -33 18 -47.5t43 -14.5
q24 0 42.5 14.5t18.5 48.5v13h40v-16q0 -25 -8.5 -43.5t-23 -30.5t-32.5 -18t-37 -6z" />
    <glyph glyph-name="abreve" unicode="&#x103;" horiz-adv-x="508" 
d="M41 133q0 42 17 71.5t44 48.5t61 29.5t68.5 15.5t66 6t53.5 1h33v17q0 42 -10 70.5t-28.5 46t-43.5 25t-55 7.5q-38 0 -75 -12.5t-68 -35.5l-24 34q29 26 75 40.5t94 14.5q87 0 132 -47.5t45 -141.5v-323h-42v66q0 10 0.5 18.5t1.5 14.5q1 7 2 12h-2q-9 -24 -25.5 -46.5
t-39 -39.5t-50 -27t-60.5 -10q-30 0 -60.5 8.5t-55 26.5t-39.5 45t-15 65zM85 136q0 -20 8 -39.5t24 -35t40 -25t56 -9.5q41 0 73 19t53.5 49.5t33 68.5t11.5 75v27h-32q-21 0 -49 -0.5t-58 -4t-58.5 -11.5t-51 -22.5t-36.5 -37t-14 -54.5zM249 586q-19 0 -37 6t-32.5 18
t-23 30.5t-8.5 43.5v16h40v-14q0 -33 18 -47.5t43 -14.5q24 0 42.5 14.5t18.5 48.5v13h40v-16q0 -25 -8.5 -43.5t-23 -30.5t-32.5 -18t-37 -6z" />
    <glyph glyph-name="Aogonek" unicode="&#x104;" horiz-adv-x="624" 
d="M289 700h46l262 -700q-9 -6 -22.5 -17.5t-26 -26t-22 -31.5t-9.5 -34q0 -19 10.5 -30t23.5 -17q15 -7 34 -9l-9 -39q-29 3 -52 14q-20 9 -36 27t-16 50q0 21 8 40t19.5 34t24.5 26.5t24 19.5l-88 235h-297l-90 -242h-46zM445 282l-106 284q-5 11 -9 25.5t-8 27.5
q-4 15 -9 31h-2q-5 -16 -9 -31q-4 -13 -8.5 -27.5t-8.5 -25.5l-107 -284h267z" />
    <glyph glyph-name="aogonek" unicode="&#x105;" horiz-adv-x="508" 
d="M41 133q0 42 17 71.5t44 48.5t61 29.5t68.5 15.5t66 6t53.5 1h33v17q0 42 -10 70.5t-28.5 46t-43.5 25t-55 7.5q-38 0 -75 -12.5t-68 -35.5l-24 34q29 26 75 40.5t94 14.5q87 0 132 -47.5t45 -141.5v-323q-9 -6 -22.5 -17.5t-26 -26t-22 -31.5t-9.5 -34q0 -19 10.5 -30
t23.5 -17q15 -7 34 -9l-9 -39q-29 3 -52 14q-20 9 -36 27t-16 50q0 21 9 40t21.5 34t27 26.5t25.5 19.5v59q0 10 0.5 18.5t1.5 14.5q1 7 2 12h-2q-9 -24 -25.5 -46.5t-39 -39.5t-50 -27t-60.5 -10q-30 0 -60.5 8.5t-55 26.5t-39.5 45t-15 65zM85 136q0 -20 8 -39.5t24 -35
t40 -25t56 -9.5q41 0 73 19t53.5 49.5t33 68.5t11.5 75v27h-32q-21 0 -49 -0.5t-58 -4t-58.5 -11.5t-51 -22.5t-36.5 -37t-14 -54.5z" />
    <glyph glyph-name="Cacute" unicode="&#x106;" horiz-adv-x="719" 
d="M60 355q0 76 25.5 141.5t71.5 113.5t110 75t140 27q66 0 133 -20.5t117 -67.5l-26 -32q-43 38 -103 58.5t-120 20.5q-67 0 -122.5 -24t-95.5 -66t-62.5 -100t-22.5 -126t22 -127.5t62.5 -103.5t97 -69.5t124.5 -25.5q65 0 127 24t110 71l27 -30q-22 -21 -48.5 -40
t-59.5 -34t-71.5 -23.5t-84.5 -8.5q-79 0 -143.5 29t-110.5 78.5t-71.5 116.5t-25.5 143zM446 861h56l-79 -111h-44z" />
    <glyph glyph-name="cacute" unicode="&#x107;" horiz-adv-x="540" 
d="M52 249q0 60 21 108.5t56 83t82 53t99 18.5q48 0 97 -17.5t82 -53.5l-26 -34q-27 29 -68 46.5t-85 17.5t-83 -15.5t-68 -44.5t-46 -70t-17 -92q0 -50 17 -90.5t46 -69.5t68 -44.5t83 -15.5q46 0 91 18.5t76 53.5l22 -35q-32 -35 -82 -56.5t-107 -21.5q-53 0 -100 18.5
t-82 52.5t-55.5 82t-20.5 108zM336 700h56l-79 -111h-44z" />
    <glyph glyph-name="Ccircumflex" unicode="&#x108;" horiz-adv-x="719" 
d="M60 355q0 76 25.5 141.5t71.5 113.5t110 75t140 27q66 0 133 -20.5t117 -67.5l-26 -32q-43 38 -103 58.5t-120 20.5q-67 0 -122.5 -24t-95.5 -66t-62.5 -100t-22.5 -126t22 -127.5t62.5 -103.5t97 -69.5t124.5 -25.5q65 0 127 24t110 71l27 -30q-22 -21 -48.5 -40
t-59.5 -34t-71.5 -23.5t-84.5 -8.5q-79 0 -143.5 29t-110.5 78.5t-71.5 116.5t-25.5 143zM376 861h52l80 -111h-49l-56 80h-2l-56 -80h-49z" />
    <glyph glyph-name="ccircumflex" unicode="&#x109;" horiz-adv-x="540" 
d="M52 249q0 60 21 108.5t56 83t82 53t99 18.5q48 0 97 -17.5t82 -53.5l-26 -34q-27 29 -68 46.5t-85 17.5t-83 -15.5t-68 -44.5t-46 -70t-17 -92q0 -50 17 -90.5t46 -69.5t68 -44.5t83 -15.5q46 0 91 18.5t76 53.5l22 -35q-32 -35 -82 -56.5t-107 -21.5q-53 0 -100 18.5
t-82 52.5t-55.5 82t-20.5 108zM266 700h52l80 -111h-49l-56 80h-2l-56 -80h-49z" />
    <glyph glyph-name="Cdotaccent" unicode="&#x10a;" horiz-adv-x="719" 
d="M60 355q0 76 25.5 141.5t71.5 113.5t110 75t140 27q66 0 133 -20.5t117 -67.5l-26 -32q-43 38 -103 58.5t-120 20.5q-67 0 -122.5 -24t-95.5 -66t-62.5 -100t-22.5 -126t22 -127.5t62.5 -103.5t97 -69.5t124.5 -25.5q65 0 127 24t110 71l27 -30q-22 -21 -48.5 -40
t-59.5 -34t-71.5 -23.5t-84.5 -8.5q-79 0 -143.5 29t-110.5 78.5t-71.5 116.5t-25.5 143zM379 861h46v-73h-46v73z" />
    <glyph glyph-name="cdotaccent" unicode="&#x10b;" horiz-adv-x="540" 
d="M52 249q0 60 21 108.5t56 83t82 53t99 18.5q48 0 97 -17.5t82 -53.5l-26 -34q-27 29 -68 46.5t-85 17.5t-83 -15.5t-68 -44.5t-46 -70t-17 -92q0 -50 17 -90.5t46 -69.5t68 -44.5t83 -15.5q46 0 91 18.5t76 53.5l22 -35q-32 -35 -82 -56.5t-107 -21.5q-53 0 -100 18.5
t-82 52.5t-55.5 82t-20.5 108zM269 700h46v-73h-46v73z" />
    <glyph glyph-name="Ccaron" unicode="&#x10c;" horiz-adv-x="719" 
d="M60 355q0 76 25.5 141.5t71.5 113.5t110 75t140 27q66 0 133 -20.5t117 -67.5l-26 -32q-43 38 -103 58.5t-120 20.5q-67 0 -122.5 -24t-95.5 -66t-62.5 -100t-22.5 -126t22 -127.5t62.5 -103.5t97 -69.5t124.5 -25.5q65 0 127 24t110 71l27 -30q-22 -21 -48.5 -40
t-59.5 -34t-71.5 -23.5t-84.5 -8.5q-79 0 -143.5 29t-110.5 78.5t-71.5 116.5t-25.5 143zM296 861h49l56 -80h2l56 80h49l-80 -111h-52z" />
    <glyph glyph-name="ccaron" unicode="&#x10d;" horiz-adv-x="540" 
d="M52 249q0 60 21 108.5t56 83t82 53t99 18.5q48 0 97 -17.5t82 -53.5l-26 -34q-27 29 -68 46.5t-85 17.5t-83 -15.5t-68 -44.5t-46 -70t-17 -92q0 -50 17 -90.5t46 -69.5t68 -44.5t83 -15.5q46 0 91 18.5t76 53.5l22 -35q-32 -35 -82 -56.5t-107 -21.5q-53 0 -100 18.5
t-82 52.5t-55.5 82t-20.5 108zM186 700h49l56 -80h2l56 80h49l-80 -111h-52z" />
    <glyph glyph-name="Dcaron" unicode="&#x10e;" horiz-adv-x="738" 
d="M107 700h220q78 0 142.5 -23.5t110 -68.5t71 -110t25.5 -148q0 -84 -25.5 -149t-71 -109.5t-110 -68t-142.5 -23.5h-220v700zM320 40q70 0 127 20t98 59.5t63.5 97.5t22.5 133t-22.5 133t-63.5 97t-98 59.5t-127 20.5h-170v-620h170zM235 861h49l56 -80h2l56 80h49
l-80 -111h-52z" />
    <glyph glyph-name="dcaron" unicode="&#x10f;" horiz-adv-x="578" 
d="M54 250q0 60 16.5 108t46.5 82.5t71 53t90 18.5q58 0 104 -31t69 -82h2l-2 12q-1 5 -1.5 12.5t-0.5 16.5v260h42v-700h-42v63q0 8 0.5 15.5t1.5 12.5q1 6 2 10h-2q-10 -23 -26.5 -43t-39 -36t-51.5 -25t-64 -9q-50 0 -90 19t-68 53.5t-43 83t-15 106.5zM98 250
q0 -51 13 -91.5t36 -69.5t55 -44.5t70 -15.5q34 0 66.5 12.5t57 39.5t39.5 69t15 101q0 42 -10.5 81.5t-32.5 70t-54.5 49.5t-76.5 19q-37 0 -69.5 -15t-56.5 -43t-38 -69.5t-14 -93.5zM606 700q6 -26 6 -47q0 -22 -5.5 -42.5t-16.5 -44.5h-39q8 22 13 40.5t5 37.5
q0 27 -11 56h48z" />
    <glyph glyph-name="Dcroat" unicode="&#x110;" horiz-adv-x="744" 
d="M113 333h-60v40h60v327h220q78 0 142.5 -23.5t110 -68.5t71 -110t25.5 -148q0 -84 -25.5 -149t-71 -109.5t-110 -68t-142.5 -23.5h-220v333zM326 40q70 0 127 20t98 59.5t63.5 97.5t22.5 133t-22.5 133t-63.5 97t-98 59.5t-127 20.5h-170v-287h183v-40h-183v-293h170z
" />
    <glyph glyph-name="dcroat" unicode="&#x111;" horiz-adv-x="578" 
d="M54 250q0 60 16.5 108t46.5 82.5t71 53t90 18.5q56 0 102 -28.5t69 -79.5h2q-1 6 -1 12q-1 5 -1 12.5v16.5v124h-133v40h133v91h42v-91h83v-40h-83v-569h-42v58v15.5t1 12.5q0 6 1 10h-2q-9 -21 -24.5 -40.5t-38 -34.5t-52 -24t-64.5 -9q-50 0 -90 19t-68 53.5t-43 83
t-15 106.5zM98 250q0 -51 13 -91.5t36 -69.5t55 -44.5t70 -15.5q34 0 66.5 12.5t57 39.5t39.5 69t15 101q0 42 -10.5 81.5t-32.5 70.5t-54.5 50t-76.5 19q-37 0 -69.5 -15t-56.5 -43.5t-38 -70t-14 -93.5z" />
    <glyph glyph-name="Emacron" unicode="&#x112;" horiz-adv-x="556" 
d="M107 700h383v-40h-340v-287h279v-40h-279v-293h359v-40h-402v700zM192 826h239v-40h-239v40z" />
    <glyph glyph-name="emacron" unicode="&#x113;" horiz-adv-x="549" 
d="M52 249q0 63 20 112t53.5 82.5t77.5 51t92 17.5q51 0 89 -18.5t63.5 -50t38.5 -73t13 -86.5q0 -6 -0.5 -13t-1.5 -14h-401q0 -54 17 -96.5t46.5 -72t68 -44.5t82.5 -15q42 0 83.5 16.5t71.5 46.5l23 -35q-33 -32 -81.5 -50.5t-96.5 -18.5q-53 0 -100 18.5t-82 52.5
t-55.5 82t-20.5 108zM455 296q-2 46 -15.5 79t-35.5 55t-50.5 32.5t-59.5 10.5q-35 0 -67 -11t-58.5 -33.5t-44.5 -55.5t-25 -77h356zM178 665h239v-40h-239v40z" />
    <glyph glyph-name="Ebreve" unicode="&#x114;" horiz-adv-x="556" 
d="M107 700h383v-40h-340v-287h279v-40h-279v-293h359v-40h-402v700zM311 747q-19 0 -37 6t-32.5 18t-23 30.5t-8.5 43.5v16h40v-14q0 -33 18 -47.5t43 -14.5q24 0 42.5 14.5t18.5 48.5v13h40v-16q0 -25 -8.5 -43.5t-23 -30.5t-32.5 -18t-37 -6z" />
    <glyph glyph-name="ebreve" unicode="&#x115;" horiz-adv-x="549" 
d="M52 249q0 63 20 112t53.5 82.5t77.5 51t92 17.5q51 0 89 -18.5t63.5 -50t38.5 -73t13 -86.5q0 -6 -0.5 -13t-1.5 -14h-401q0 -54 17 -96.5t46.5 -72t68 -44.5t82.5 -15q42 0 83.5 16.5t71.5 46.5l23 -35q-33 -32 -81.5 -50.5t-96.5 -18.5q-53 0 -100 18.5t-82 52.5
t-55.5 82t-20.5 108zM455 296q-2 46 -15.5 79t-35.5 55t-50.5 32.5t-59.5 10.5q-35 0 -67 -11t-58.5 -33.5t-44.5 -55.5t-25 -77h356zM297 586q-19 0 -37 6t-32.5 18t-23 30.5t-8.5 43.5v16h40v-14q0 -33 18 -47.5t43 -14.5q24 0 42.5 14.5t18.5 48.5v13h40v-16
q0 -25 -8.5 -43.5t-23 -30.5t-32.5 -18t-37 -6z" />
    <glyph glyph-name="Edotaccent" unicode="&#x116;" horiz-adv-x="556" 
d="M107 700h383v-40h-340v-287h279v-40h-279v-293h359v-40h-402v700zM288 861h46v-73h-46v73z" />
    <glyph glyph-name="edotaccent" unicode="&#x117;" horiz-adv-x="549" 
d="M52 249q0 63 20 112t53.5 82.5t77.5 51t92 17.5q51 0 89 -18.5t63.5 -50t38.5 -73t13 -86.5q0 -6 -0.5 -13t-1.5 -14h-401q0 -54 17 -96.5t46.5 -72t68 -44.5t82.5 -15q42 0 83.5 16.5t71.5 46.5l23 -35q-33 -32 -81.5 -50.5t-96.5 -18.5q-53 0 -100 18.5t-82 52.5
t-55.5 82t-20.5 108zM455 296q-2 46 -15.5 79t-35.5 55t-50.5 32.5t-59.5 10.5q-35 0 -67 -11t-58.5 -33.5t-44.5 -55.5t-25 -77h356zM274 700h46v-73h-46v73z" />
    <glyph glyph-name="Eogonek" unicode="&#x118;" horiz-adv-x="556" 
d="M107 700h383v-40h-340v-287h279v-40h-279v-293h359v-40q-9 -6 -22.5 -17.5t-26 -26t-22 -31.5t-9.5 -34q0 -19 10.5 -30t23.5 -17q15 -7 34 -9l-9 -39q-29 3 -52 14q-20 9 -36 27t-16 50q0 20 7.5 37.5t19 31.5t24 25t23.5 19h-351v700z" />
    <glyph glyph-name="eogonek" unicode="&#x119;" horiz-adv-x="550" 
d="M52 249q0 63 20 112t53.5 82.5t77.5 51t92 17.5q51 0 89 -18.5t63.5 -50t38.5 -73t13 -86.5q0 -5 -0.5 -9.5t-0.5 -8.5q-1 -4 -1 -9h-401q0 -54 17 -96.5t46.5 -72t68 -44.5t82.5 -15q43 0 83 16.5t72 46.5l23 -35q-17 -16 -43 -33.5t-50.5 -37.5t-42.5 -43.5t-18 -51.5
q0 -19 10.5 -30t23.5 -17q15 -7 34 -9l-9 -39q-29 3 -52 14q-20 9 -36 27t-16 50q0 33 17.5 59t38.5 46q-8 -2 -17 -3t-18 -1q-53 0 -100 18.5t-82 52.5t-55.5 82t-20.5 108zM455 296q-2 46 -15.5 79t-35.5 55t-50.5 32.5t-59.5 10.5q-35 0 -67 -11t-58.5 -33.5t-44.5 -55.5
t-25 -77h356z" />
    <glyph glyph-name="Ecaron" unicode="&#x11a;" horiz-adv-x="556" 
d="M107 700h383v-40h-340v-287h279v-40h-279v-293h359v-40h-402v700zM205 861h49l56 -80h2l56 80h49l-80 -111h-52z" />
    <glyph glyph-name="ecaron" unicode="&#x11b;" horiz-adv-x="549" 
d="M52 249q0 63 20 112t53.5 82.5t77.5 51t92 17.5q51 0 89 -18.5t63.5 -50t38.5 -73t13 -86.5q0 -6 -0.5 -13t-1.5 -14h-401q0 -54 17 -96.5t46.5 -72t68 -44.5t82.5 -15q42 0 83.5 16.5t71.5 46.5l23 -35q-33 -32 -81.5 -50.5t-96.5 -18.5q-53 0 -100 18.5t-82 52.5
t-55.5 82t-20.5 108zM455 296q-2 46 -15.5 79t-35.5 55t-50.5 32.5t-59.5 10.5q-35 0 -67 -11t-58.5 -33.5t-44.5 -55.5t-25 -77h356zM191 700h49l56 -80h2l56 80h49l-80 -111h-52z" />
    <glyph glyph-name="Gcircumflex" unicode="&#x11c;" horiz-adv-x="754" 
d="M60 350q0 76 26.5 142t73.5 115t111 77t138 28q65 0 129 -19t115 -60l-26 -33q-20 16 -45 29t-53.5 22.5t-59 14.5t-60.5 5q-66 0 -122 -24.5t-96.5 -68t-63 -102t-22.5 -126.5t22 -127t62 -102t94.5 -67.5t119.5 -24.5q69 0 132 31.5t108 83.5v135h-125v40h168v-319h-43
v61v21q0 5 1 9h-2q-39 -45 -101.5 -74t-137.5 -29q-73 0 -136 28t-109 77t-72 115t-26 142zM372 861h52l80 -111h-49l-56 80h-2l-56 -80h-49z" />
    <glyph glyph-name="gcircumflex" unicode="&#x11d;" horiz-adv-x="571" 
d="M118 -134q28 -15 64 -25t70 -10q40 0 75 10t60.5 31t40 53.5t14.5 77.5v58q0 8 0.5 16t1.5 13l2 12h-2q-23 -46 -64 -74t-104 -28q-49 0 -89.5 18.5t-70 52t-46 81t-16.5 106.5q0 58 15.5 105t43.5 80t67.5 51t88.5 18q27 0 53.5 -5.5t49.5 -17.5t41.5 -30.5t29.5 -44.5
h2q-1 2 -2 5t-1 14v67h42v-497q0 -57 -19 -97.5t-51 -66t-73 -37.5t-86 -12q-42 0 -81 10t-76 29zM98 258q0 -51 13 -91t37 -68t57.5 -43t73.5 -15q33 0 62.5 11t52 36.5t36 67t13.5 102.5q0 60 -13.5 101t-37 66t-55 35.5t-68.5 10.5q-81 0 -126 -55.5t-45 -157.5zM253 700
h52l80 -111h-49l-56 80h-2l-56 -80h-49z" />
    <glyph glyph-name="Gbreve" unicode="&#x11e;" horiz-adv-x="754" 
d="M60 350q0 76 26.5 142t73.5 115t111 77t138 28q65 0 129 -19t115 -60l-26 -33q-20 16 -45 29t-53.5 22.5t-59 14.5t-60.5 5q-66 0 -122 -24.5t-96.5 -68t-63 -102t-22.5 -126.5t22 -127t62 -102t94.5 -67.5t119.5 -24.5q69 0 132 31.5t108 83.5v135h-125v40h168v-319h-43
v61v21q0 5 1 9h-2q-39 -45 -101.5 -74t-137.5 -29q-73 0 -136 28t-109 77t-72 115t-26 142zM398 747q-19 0 -37 6t-32.5 18t-23 30.5t-8.5 43.5v16h40v-14q0 -33 18 -47.5t43 -14.5q24 0 42.5 14.5t18.5 48.5v13h40v-16q0 -25 -8.5 -43.5t-23 -30.5t-32.5 -18t-37 -6z" />
    <glyph glyph-name="gbreve" unicode="&#x11f;" horiz-adv-x="571" 
d="M118 -134q28 -15 64 -25t70 -10q40 0 75 10t60.5 31t40 53.5t14.5 77.5v58q0 8 0.5 16t1.5 13l2 12h-2q-23 -46 -64 -74t-104 -28q-49 0 -89.5 18.5t-70 52t-46 81t-16.5 106.5q0 58 15.5 105t43.5 80t67.5 51t88.5 18q27 0 53.5 -5.5t49.5 -17.5t41.5 -30.5t29.5 -44.5
h2q-1 2 -2 5t-1 14v67h42v-497q0 -57 -19 -97.5t-51 -66t-73 -37.5t-86 -12q-42 0 -81 10t-76 29zM98 258q0 -51 13 -91t37 -68t57.5 -43t73.5 -15q33 0 62.5 11t52 36.5t36 67t13.5 102.5q0 60 -13.5 101t-37 66t-55 35.5t-68.5 10.5q-81 0 -126 -55.5t-45 -157.5zM279 586
q-19 0 -37 6t-32.5 18t-23 30.5t-8.5 43.5v16h40v-14q0 -33 18 -47.5t43 -14.5q24 0 42.5 14.5t18.5 48.5v13h40v-16q0 -25 -8.5 -43.5t-23 -30.5t-32.5 -18t-37 -6z" />
    <glyph glyph-name="Gdotaccent" unicode="&#x120;" horiz-adv-x="754" 
d="M60 350q0 76 26.5 142t73.5 115t111 77t138 28q65 0 129 -19t115 -60l-26 -33q-20 16 -45 29t-53.5 22.5t-59 14.5t-60.5 5q-66 0 -122 -24.5t-96.5 -68t-63 -102t-22.5 -126.5t22 -127t62 -102t94.5 -67.5t119.5 -24.5q69 0 132 31.5t108 83.5v135h-125v40h168v-319h-43
v61v21q0 5 1 9h-2q-39 -45 -101.5 -74t-137.5 -29q-73 0 -136 28t-109 77t-72 115t-26 142zM375 861h46v-73h-46v73z" />
    <glyph glyph-name="gdotaccent" unicode="&#x121;" horiz-adv-x="571" 
d="M118 -134q28 -15 64 -25t70 -10q40 0 75 10t60.5 31t40 53.5t14.5 77.5v58q0 8 0.5 16t1.5 13l2 12h-2q-23 -46 -64 -74t-104 -28q-49 0 -89.5 18.5t-70 52t-46 81t-16.5 106.5q0 58 15.5 105t43.5 80t67.5 51t88.5 18q27 0 53.5 -5.5t49.5 -17.5t41.5 -30.5t29.5 -44.5
h2q-1 2 -2 5t-1 14v67h42v-497q0 -57 -19 -97.5t-51 -66t-73 -37.5t-86 -12q-42 0 -81 10t-76 29zM98 258q0 -51 13 -91t37 -68t57.5 -43t73.5 -15q33 0 62.5 11t52 36.5t36 67t13.5 102.5q0 60 -13.5 101t-37 66t-55 35.5t-68.5 10.5q-81 0 -126 -55.5t-45 -157.5zM256 700
h46v-73h-46v73z" />
    <glyph glyph-name="uni0122" unicode="&#x122;" horiz-adv-x="754" 
d="M60 350q0 76 26.5 142t73.5 115t111 77t138 28q65 0 129 -19t115 -60l-26 -33q-20 16 -45 29t-53.5 22.5t-59 14.5t-60.5 5q-66 0 -122 -24.5t-96.5 -68t-63 -102t-22.5 -126.5t22 -127t62 -102t94.5 -67.5t119.5 -24.5q69 0 132 31.5t108 83.5v135h-125v40h168v-319h-43
v61v21q0 5 1 9h-2q-39 -45 -101.5 -74t-137.5 -29q-73 0 -136 28t-109 77t-72 115t-26 142zM427 -66q6 -26 6 -47q0 -22 -5.5 -42.5t-16.5 -44.5h-39q8 22 13 40.5t5 37.5q0 27 -11 56h48z" />
    <glyph glyph-name="uni0123" unicode="&#x123;" horiz-adv-x="571" 
d="M118 -134q28 -15 64 -25t70 -10q40 0 75 10t60.5 31t40 53.5t14.5 77.5v58q0 8 0.5 16t1.5 13l2 12h-2q-23 -46 -64 -74t-104 -28q-49 0 -89.5 18.5t-70 52t-46 81t-16.5 106.5q0 58 15.5 105t43.5 80t67.5 51t88.5 18q27 0 53.5 -5.5t49.5 -17.5t41.5 -30.5t29.5 -44.5
h2q-1 2 -2 5t-1 14v67h42v-497q0 -57 -19 -97.5t-51 -66t-73 -37.5t-86 -12q-42 0 -81 10t-76 29zM98 258q0 -51 13 -91t37 -68t57.5 -43t73.5 -15q33 0 62.5 11t52 36.5t36 67t13.5 102.5q0 60 -13.5 101t-37 66t-55 35.5t-68.5 10.5q-81 0 -126 -55.5t-45 -157.5zM257 566
q-6 25 -6 47t5.5 42.5t16.5 44.5h39q-8 -22 -13 -40.5t-5 -37.5q0 -27 11 -56h-48z" />
    <glyph glyph-name="Hcircumflex" unicode="&#x124;" horiz-adv-x="744" 
d="M107 700h43v-329h444v329h43v-700h-43v331h-444v-331h-43v700zM346 861h52l80 -111h-49l-56 80h-2l-56 -80h-49z" />
    <glyph glyph-name="hcircumflex" unicode="&#x125;" horiz-adv-x="586" 
d="M87 700h42v-288q0 -9 -0.5 -16.5t-1.5 -12.5l-2 -12h2q6 18 22.5 42t43 46t63 37.5t83.5 15.5q49 0 80.5 -14t50.5 -39.5t26.5 -61.5t7.5 -80v-317h-42v302q0 33 -3.5 63.5t-16 54t-37 37.5t-66.5 14q-43 0 -81 -16.5t-66.5 -46.5t-45.5 -71.5t-17 -90.5v-246h-42v700z
M83 861h52l80 -111h-49l-56 80h-2l-56 -80h-49z" />
    <glyph glyph-name="Hbar" unicode="&#x126;" horiz-adv-x="756" 
d="M113 511h-65v40h65v149h43v-149h444v149h43v-149h65v-40h-65v-511h-43v331h-444v-331h-43v511zM600 371v140h-444v-140h444z" />
    <glyph glyph-name="hbar" unicode="&#x127;" horiz-adv-x="586" 
d="M87 569h-81v40h81v91h42v-91h133v-40h-133v-152q0 -9 -0.5 -16.5t-0.5 -12.5q-1 -6 -1 -12h2q6 18 22 41.5t42.5 44.5t62.5 35.5t83 14.5q49 0 80.5 -14t50.5 -39.5t26.5 -61.5t7.5 -80v-317h-42v302q0 33 -3.5 63.5t-16 54t-37 37.5t-66.5 14q-45 0 -83.5 -17.5
t-66.5 -48t-44 -71t-16 -85.5v-249h-42v569z" />
    <glyph glyph-name="Itilde" unicode="&#x128;" horiz-adv-x="257" 
d="M107 700h43v-700h-43v700zM-15 753q0 108 83 108q25 0 41.5 -11.5t29 -25.5t25 -25.5t30.5 -11.5q13 0 21 8t12 19t5.5 23t1.5 21h40q0 -108 -83 -108q-25 0 -41.5 11.5t-29 25.5t-25 25.5t-30.5 11.5q-13 0 -21 -8t-12 -19t-5.5 -23t-1.5 -21h-40z" />
    <glyph glyph-name="itilde" unicode="&#x129;" horiz-adv-x="216" 
d="M87 500h42v-500h-42v500zM-35 592q0 108 83 108q25 0 41.5 -11.5t29 -25.5t25 -25.5t30.5 -11.5q13 0 21 8t12 19t5.5 23t1.5 21h40q0 -108 -83 -108q-25 0 -41.5 11.5t-29 25.5t-25 25.5t-30.5 11.5q-13 0 -21 -8t-12 -19t-5.5 -23t-1.5 -21h-40z" />
    <glyph glyph-name="Imacron" unicode="&#x12a;" horiz-adv-x="257" 
d="M107 700h43v-700h-43v700zM10 826h239v-40h-239v40z" />
    <glyph glyph-name="imacron" unicode="&#x12b;" horiz-adv-x="216" 
d="M87 500h42v-500h-42v500zM-11 665h239v-40h-239v40z" />
    <glyph glyph-name="Ibreve" unicode="&#x12c;" horiz-adv-x="257" 
d="M107 700h43v-700h-43v700zM129 747q-19 0 -37 6t-32.5 18t-23 30.5t-8.5 43.5v16h40v-14q0 -33 18 -47.5t43 -14.5q24 0 42.5 14.5t18.5 48.5v13h40v-16q0 -25 -8.5 -43.5t-23 -30.5t-32.5 -18t-37 -6z" />
    <glyph glyph-name="ibreve" unicode="&#x12d;" horiz-adv-x="216" 
d="M87 500h42v-500h-42v500zM109 586q-19 0 -37 6t-32.5 18t-23 30.5t-8.5 43.5v16h40v-14q0 -33 18 -47.5t43 -14.5q24 0 42.5 14.5t18.5 48.5v13h40v-16q0 -25 -8.5 -43.5t-23 -30.5t-32.5 -18t-37 -6z" />
    <glyph glyph-name="Iogonek" unicode="&#x12e;" horiz-adv-x="257" 
d="M25 -113q0 20 8.5 38.5t21 34.5t27 28t25.5 20v692h43v-700q-9 -6 -22.5 -17.5t-26 -26t-22 -31.5t-9.5 -34q0 -19 10.5 -30t23.5 -17q15 -7 34 -9l-9 -39q-29 3 -52 14q-20 9 -36 27t-16 50z" />
    <glyph glyph-name="iogonek" unicode="&#x12f;" horiz-adv-x="217" 
d="M5 -113q0 21 9 40t21.5 34t27 26.5t25.5 19.5v493h42v-500q-9 -6 -22.5 -17.5t-26 -26t-22 -31.5t-9.5 -34q0 -19 10.5 -30t23.5 -17q15 -7 34 -9l-9 -39q-29 3 -52 14q-20 9 -36 27t-16 50zM84 700h50v-73h-50v73z" />
    <glyph glyph-name="Idotaccent" unicode="&#x130;" horiz-adv-x="257" 
d="M107 700h43v-700h-43v700zM106 861h46v-73h-46v73z" />
    <glyph glyph-name="dotlessi" unicode="&#x131;" horiz-adv-x="216" 
d="M87 500h42v-500h-42v500z" />
    <glyph glyph-name="IJ" unicode="&#x132;" horiz-adv-x="556" 
d="M259 37q26 0 53 6t49.5 25t37 55t14.5 95v482h43v-482q0 -70 -18 -113.5t-46.5 -68t-63.5 -33t-69 -8.5v42zM107 700h43v-700h-43v700z" />
    <glyph glyph-name="ij" unicode="&#x133;" horiz-adv-x="432" 
d="M83 700h50v-73h-50v73zM87 500h42v-500h-42v500zM299 700h50v-73h-50v73zM303 500h42v-520q0 -62 -17.5 -99t-42.5 -56t-52.5 -24.5t-46.5 -5.5q-6 0 -12 0.5t-13 1.5v39q6 -2 22 -2q15 0 35.5 4.5t39.5 19.5t32 44t13 77v521z" />
    <glyph glyph-name="Jcircumflex" unicode="&#x134;" horiz-adv-x="509" 
d="M35 213h43v-23q0 -32 8.5 -61t26 -51.5t44.5 -35.5t64 -13q27 0 53 8t46.5 27t33 50t12.5 76v470h-167v40h210v-509q0 -56 -16.5 -95t-43 -63t-60 -34.5t-67.5 -10.5t-67.5 10.5t-60 34.5t-43 63t-16.5 95v22zM278 861h52l80 -111h-49l-56 80h-2l-56 -80h-49z" />
    <glyph glyph-name="jcircumflex" unicode="&#x135;" horiz-adv-x="216" 
d="M78 700h52l80 -111h-49l-56 80h-2l-56 -80h-49zM87 500h42v-520q0 -62 -17.5 -99t-42.5 -56t-52.5 -24.5t-46.5 -5.5h-12t-13 2v39q5 -1 10 -1.5t12 -0.5q15 0 35.5 4.5t39.5 19.5t32 44t13 77v521z" />
    <glyph glyph-name="uni0136" unicode="&#x136;" horiz-adv-x="570" 
d="M107 700h43v-312h130l200 312h52l-215 -330v-2l229 -368h-52l-214 348h-130v-348h-43v700zM324 -66q6 -26 6 -47q0 -22 -5.5 -42.5t-16.5 -44.5h-39q8 22 13 40.5t5 37.5q0 27 -11 56h48z" />
    <glyph glyph-name="uni0137" unicode="&#x137;" horiz-adv-x="473" 
d="M87 700h42v-397h89l162 197h55l-181 -215v-2l198 -283h-53l-181 264h-89v-264h-42v700zM273 -66q6 -26 6 -47q0 -22 -5.5 -42.5t-16.5 -44.5h-39q8 22 13 40.5t5 37.5q0 27 -11 56h48z" />
    <glyph glyph-name="kgreenlandic" unicode="&#x138;" horiz-adv-x="471" 
d="M87 500h42v-213h86l173 213h57l-191 -230v-2l188 -268h-55l-172 250h-86v-250h-42v500z" />
    <glyph glyph-name="Lacute" unicode="&#x139;" horiz-adv-x="508" 
d="M107 700h43v-660h334v-40h-377v700zM173 861h56l-79 -111h-44z" />
    <glyph glyph-name="lacute" unicode="&#x13a;" horiz-adv-x="227" 
d="M87 700h42v-586q0 -26 6 -41.5t15 -23.5t19 -10.5t19 -2.5h6.5t8.5 1v-39q-8 -2 -18 -2q-11 0 -27.5 3t-32.5 14t-27 32t-11 56v599zM154 861h56l-79 -111h-44z" />
    <glyph glyph-name="uni013B" unicode="&#x13b;" horiz-adv-x="508" 
d="M107 700h43v-660h334v-40h-377v700zM326 -66q6 -26 6 -47q0 -22 -5.5 -42.5t-16.5 -44.5h-39q8 22 13 40.5t5 37.5q0 27 -11 56h48z" />
    <glyph glyph-name="uni013C" unicode="&#x13c;" horiz-adv-x="227" 
d="M87 700h42v-586q0 -26 6 -41.5t15 -23.5t19 -10.5t19 -2.5h6.5t8.5 1v-39q-8 -2 -18 -2q-11 0 -27.5 3t-32.5 14t-27 32t-11 56v599zM164 -66q6 -26 6 -47q0 -22 -5.5 -42.5t-16.5 -44.5h-39q8 22 13 40.5t5 37.5q0 27 -11 56h48z" />
    <glyph glyph-name="Lcaron" unicode="&#x13d;" horiz-adv-x="508" 
d="M107 700h43v-660h334v-40h-377v700zM295 700q6 -26 6 -47q0 -22 -5.5 -42.5t-16.5 -44.5h-39q8 22 13 40.5t5 37.5q0 27 -11 56h48z" />
    <glyph glyph-name="lcaron" unicode="&#x13e;" horiz-adv-x="227" 
d="M87 700h42v-586q0 -26 6 -41.5t15 -23.5t19 -10.5t19 -2.5h6.5t8.5 1v-39q-8 -2 -18 -2q-11 0 -27.5 3t-32.5 14t-27 32t-11 56v599zM245 700q6 -26 6 -47q0 -22 -5.5 -42.5t-16.5 -44.5h-39q8 22 13 40.5t5 37.5q0 27 -11 56h48z" />
    <glyph glyph-name="Ldot" unicode="&#x13f;" horiz-adv-x="508" 
d="M107 700h43v-660h334v-40h-377v700zM283 397h61v-63h-61v63z" />
    <glyph glyph-name="ldot" unicode="&#x140;" horiz-adv-x="233" 
d="M87 700h42v-586q0 -26 6 -41.5t15 -23.5t19 -10.5t19 -2.5h6.5t8.5 1v-39q-8 -2 -18 -2q-11 0 -27.5 3t-32.5 14t-27 32t-11 56v599zM194 397h61v-63h-61v63z" />
    <glyph glyph-name="Lslash" unicode="&#x141;" horiz-adv-x="514" 
d="M113 370l-65 -37v47l65 37v283h43v-258l115 67v-48l-115 -66v-355h334v-40h-377v370z" />
    <glyph glyph-name="lslash" unicode="&#x142;" horiz-adv-x="251" 
d="M15 380l89 51v269h42v-244l92 53v-48l-92 -53v-294q0 -26 6 -41.5t15 -23.5t19 -10.5t19 -2.5h10q3 0 5 1v-39q-3 -1 -6 -1q-2 -1 -5.5 -1h-6.5q-11 0 -27.5 3t-32.5 14t-27 32t-11 56v283l-89 -51v47z" />
    <glyph glyph-name="Nacute" unicode="&#x143;" horiz-adv-x="750" 
d="M107 700h40l399 -549q8 -12 18.5 -27t18.5 -29l20 -32h2q-2 15 -3 31q-1 14 -1.5 28.5t-0.5 28.5v549h43v-700h-40l-399 549q-9 12 -19 27t-18 29l-20 32h-2q1 -15 2 -31q1 -14 2 -29t1 -28v-549h-43v700zM419 861h56l-79 -111h-44z" />
    <glyph glyph-name="nacute" unicode="&#x144;" horiz-adv-x="586" 
d="M87 500h42v-88q0 -9 -0.5 -16.5t-1.5 -12.5l-2 -12h2q6 18 22.5 42t43 46t63 37.5t83.5 15.5q49 0 80.5 -14t50.5 -39.5t26.5 -61.5t7.5 -80v-317h-42v302q0 33 -3.5 63.5t-16 54t-37 37.5t-66.5 14q-43 0 -81 -16.5t-66.5 -46.5t-45.5 -70.5t-17 -88.5v-249h-42v500z
M351 700h56l-79 -111h-44z" />
    <glyph glyph-name="uni0145" unicode="&#x145;" horiz-adv-x="750" 
d="M107 700h40l399 -549q8 -12 18.5 -27t18.5 -29l20 -32h2q-2 15 -3 31q-1 14 -1.5 28.5t-0.5 28.5v549h43v-700h-40l-399 549q-9 12 -19 27t-18 29l-20 32h-2q1 -15 2 -31q1 -14 2 -29t1 -28v-549h-43v700zM398 -66q6 -26 6 -47q0 -22 -5.5 -42.5t-16.5 -44.5h-39
q8 22 13 40.5t5 37.5q0 27 -11 56h48z" />
    <glyph glyph-name="uni0146" unicode="&#x146;" horiz-adv-x="586" 
d="M87 500h42v-88q0 -9 -0.5 -16.5t-1.5 -12.5l-2 -12h2q6 18 22.5 42t43 46t63 37.5t83.5 15.5q49 0 80.5 -14t50.5 -39.5t26.5 -61.5t7.5 -80v-317h-42v302q0 33 -3.5 63.5t-16 54t-37 37.5t-66.5 14q-43 0 -81 -16.5t-66.5 -46.5t-45.5 -70.5t-17 -88.5v-249h-42v500z
M319 -66q6 -26 6 -47q0 -22 -5.5 -42.5t-16.5 -44.5h-39q8 22 13 40.5t5 37.5q0 27 -11 56h48z" />
    <glyph glyph-name="Ncaron" unicode="&#x147;" horiz-adv-x="750" 
d="M107 700h40l399 -549q8 -12 18.5 -27t18.5 -29l20 -32h2q-2 15 -3 31q-1 14 -1.5 28.5t-0.5 28.5v549h43v-700h-40l-399 549q-9 12 -19 27t-18 29l-20 32h-2q1 -15 2 -31q1 -14 2 -29t1 -28v-549h-43v700zM269 861h49l56 -80h2l56 80h49l-80 -111h-52z" />
    <glyph glyph-name="ncaron" unicode="&#x148;" horiz-adv-x="586" 
d="M87 500h42v-88q0 -9 -0.5 -16.5t-1.5 -12.5l-2 -12h2q6 18 22.5 42t43 46t63 37.5t83.5 15.5q49 0 80.5 -14t50.5 -39.5t26.5 -61.5t7.5 -80v-317h-42v302q0 33 -3.5 63.5t-16 54t-37 37.5t-66.5 14q-43 0 -81 -16.5t-66.5 -46.5t-45.5 -70.5t-17 -88.5v-249h-42v500z
M201 700h49l56 -80h2l56 80h49l-80 -111h-52z" />
    <glyph glyph-name="napostrophe" unicode="&#x149;" horiz-adv-x="586" 
d="M87 500h42v-88q0 -9 -0.5 -16.5t-1.5 -12.5l-2 -12h2q6 18 22.5 42t43 46t63 37.5t83.5 15.5q49 0 80.5 -14t50.5 -39.5t26.5 -61.5t7.5 -80v-317h-42v302q0 33 -3.5 63.5t-16 54t-37 37.5t-66.5 14q-43 0 -81 -16.5t-66.5 -46.5t-45.5 -70.5t-17 -88.5v-249h-42v500z
M79 700q6 -26 6 -47q0 -22 -5.5 -42.5t-16.5 -44.5h-39q8 22 13 40.5t5 37.5q0 27 -11 56h48z" />
    <glyph glyph-name="Eng" unicode="&#x14a;" horiz-adv-x="750" 
d="M107 700h40l399 -549q8 -12 18.5 -27t18.5 -29l20 -32h2q-2 15 -3 31q-1 14 -1.5 28.5t-0.5 28.5v549h43v-702q0 -56 -16.5 -95t-43 -63t-60 -34.5t-67.5 -10.5v42q26 0 51.5 8t46 27.5t33.5 51.5t13 80l-396 545q-9 12 -19 27t-18 29l-20 32h-2q1 -15 2 -31q1 -14 2 -29
t1 -28v-549h-43v700z" />
    <glyph glyph-name="eng" unicode="&#x14b;" horiz-adv-x="586" 
d="M87 500h42v-83q0 -9 -0.5 -16.5t-0.5 -12.5q-1 -6 -1 -12h2q6 18 22 41.5t42.5 44.5t62.5 35.5t83 14.5q49 0 80.5 -14t50.5 -39.5t26.5 -61.5t7.5 -80v-342q0 -62 -17.5 -99t-42.5 -56t-52.5 -24.5t-46.5 -5.5q-14 0 -18 1q-4 0 -7 1v39q2 -1 6 -1q4 -1 16 -1
q15 0 35.5 4.5t39.5 19.5t32 44t13 77v328q0 33 -3.5 63.5t-16 54t-37 37.5t-66.5 14q-45 0 -83.5 -17.5t-66.5 -48t-44 -71t-16 -85.5v-249h-42v500z" />
    <glyph glyph-name="Omacron" unicode="&#x14c;" horiz-adv-x="826" 
d="M59 355q0 75 27 140.5t74.5 113.5t112.5 75.5t140 27.5t140 -27.5t112.5 -75.5t74.5 -113.5t27 -140.5q0 -77 -27 -144t-74.5 -116.5t-112.5 -78t-140 -28.5t-140 28.5t-112.5 78t-74.5 116.5t-27 144zM104 355q0 -69 23.5 -128.5t64.5 -103.5t98 -69t123 -25t123 25
t98 69t64.5 103.5t23.5 128.5q0 67 -23.5 125t-64.5 100.5t-98 66.5t-123 24t-123 -24t-98 -66.5t-64.5 -100.5t-23.5 -125zM294 826h239v-40h-239v40z" />
    <glyph glyph-name="omacron" unicode="&#x14d;" horiz-adv-x="620" 
d="M51 253q0 55 20.5 102t55.5 82t82 55t101 20t101 -20t82 -55t55.5 -82t20.5 -102q0 -56 -20.5 -104.5t-55.5 -84t-82 -56t-101 -20.5t-101 20.5t-82 56t-55.5 84t-20.5 104.5zM95 253q0 -48 17 -89t46 -71t68 -47t84 -17t84 17t68 47t46 71t17 89q0 46 -17 86t-46 69.5
t-68 46t-84 16.5t-84 -16.5t-68 -46t-46 -69.5t-17 -86zM191 665h239v-40h-239v40z" />
    <glyph glyph-name="Obreve" unicode="&#x14e;" horiz-adv-x="826" 
d="M59 355q0 75 27 140.5t74.5 113.5t112.5 75.5t140 27.5t140 -27.5t112.5 -75.5t74.5 -113.5t27 -140.5q0 -77 -27 -144t-74.5 -116.5t-112.5 -78t-140 -28.5t-140 28.5t-112.5 78t-74.5 116.5t-27 144zM104 355q0 -69 23.5 -128.5t64.5 -103.5t98 -69t123 -25t123 25
t98 69t64.5 103.5t23.5 128.5q0 67 -23.5 125t-64.5 100.5t-98 66.5t-123 24t-123 -24t-98 -66.5t-64.5 -100.5t-23.5 -125zM413 747q-19 0 -37 6t-32.5 18t-23 30.5t-8.5 43.5v16h40v-14q0 -33 18 -47.5t43 -14.5q24 0 42.5 14.5t18.5 48.5v13h40v-16q0 -25 -8.5 -43.5
t-23 -30.5t-32.5 -18t-37 -6z" />
    <glyph glyph-name="obreve" unicode="&#x14f;" horiz-adv-x="620" 
d="M51 253q0 55 20.5 102t55.5 82t82 55t101 20t101 -20t82 -55t55.5 -82t20.5 -102q0 -56 -20.5 -104.5t-55.5 -84t-82 -56t-101 -20.5t-101 20.5t-82 56t-55.5 84t-20.5 104.5zM95 253q0 -48 17 -89t46 -71t68 -47t84 -17t84 17t68 47t46 71t17 89q0 46 -17 86t-46 69.5
t-68 46t-84 16.5t-84 -16.5t-68 -46t-46 -69.5t-17 -86zM310 586q-19 0 -37 6t-32.5 18t-23 30.5t-8.5 43.5v16h40v-14q0 -33 18 -47.5t43 -14.5q24 0 42.5 14.5t18.5 48.5v13h40v-16q0 -25 -8.5 -43.5t-23 -30.5t-32.5 -18t-37 -6z" />
    <glyph glyph-name="Ohungarumlaut" unicode="&#x150;" horiz-adv-x="826" 
d="M59 355q0 75 27 140.5t74.5 113.5t112.5 75.5t140 27.5t140 -27.5t112.5 -75.5t74.5 -113.5t27 -140.5q0 -77 -27 -144t-74.5 -116.5t-112.5 -78t-140 -28.5t-140 28.5t-112.5 78t-74.5 116.5t-27 144zM104 355q0 -69 23.5 -128.5t64.5 -103.5t98 -69t123 -25t123 25
t98 69t64.5 103.5t23.5 128.5q0 67 -23.5 125t-64.5 100.5t-98 66.5t-123 24t-123 -24t-98 -66.5t-64.5 -100.5t-23.5 -125zM500 861h56l-79 -111h-44zM380 861h50l-65 -111h-47z" />
    <glyph glyph-name="ohungarumlaut" unicode="&#x151;" horiz-adv-x="620" 
d="M51 253q0 55 20.5 102t55.5 82t82 55t101 20t101 -20t82 -55t55.5 -82t20.5 -102q0 -56 -20.5 -104.5t-55.5 -84t-82 -56t-101 -20.5t-101 20.5t-82 56t-55.5 84t-20.5 104.5zM95 253q0 -48 17 -89t46 -71t68 -47t84 -17t84 17t68 47t46 71t17 89q0 46 -17 86t-46 69.5
t-68 46t-84 16.5t-84 -16.5t-68 -46t-46 -69.5t-17 -86zM397 700h56l-79 -111h-44zM277 700h50l-65 -111h-47z" />
    <glyph glyph-name="OE" unicode="&#x152;" horiz-adv-x="931" 
d="M60 350q0 76 26 141.5t72.5 114t111 76.5t142.5 28q13 0 28.5 -1.5t31.5 -3.5t30.5 -3.5t25.5 -1.5h337v-40h-340v-287h279v-40h-279v-293h359v-40h-355q-11 0 -25.5 -1.5t-30.5 -3.5t-32 -3.5t-29 -1.5q-78 0 -142.5 27.5t-111 76t-72.5 114.5t-26 142zM105 350
q0 -68 22 -126.5t62 -101t97 -67t126 -24.5q14 0 26.5 1t22.5 3q11 2 21 4v622q-10 2 -21 4q-10 2 -22.5 3t-26.5 1q-69 0 -126 -24.5t-97 -67.5t-62 -101.5t-22 -125.5z" />
    <glyph glyph-name="oe" unicode="&#x153;" horiz-adv-x="1022" 
d="M52 249q0 60 21 108.5t56 83t82 53t99 18.5q77 0 140 -40t94 -109h2q29 73 89.5 111t132.5 38q51 0 89 -18.5t63.5 -50t38.5 -73t13 -86.5q0 -5 -0.5 -9.5t-0.5 -8.5q-1 -4 -1 -9h-401q1 -56 19 -99t47 -71.5t67.5 -43t80.5 -14.5q43 0 83 16.5t72 46.5l23 -35
q-33 -32 -81 -50.5t-97 -18.5q-79 0 -142.5 39.5t-93.5 110.5h-2q-31 -71 -94 -110.5t-141 -39.5q-52 0 -99 18.5t-82 52.5t-56 82t-21 108zM928 296q-2 46 -15.5 79t-35.5 55t-50.5 32.5t-59.5 10.5q-35 0 -67 -11t-58.5 -33.5t-44.5 -55.5t-25 -77h356zM96 249
q0 -50 17 -90.5t46 -69.5t68 -44.5t83 -15.5t83 15.5t68.5 45t46.5 71t17 93.5q0 49 -17.5 89.5t-47 68.5t-68.5 43.5t-82 15.5q-44 0 -83 -16t-68 -45t-46 -70t-17 -91z" />
    <glyph glyph-name="Racute" unicode="&#x154;" horiz-adv-x="607" 
d="M107 700h205q49 0 77 -5t49 -16q44 -22 70.5 -65t26.5 -103q0 -38 -10.5 -70t-29 -57t-44 -42t-56.5 -24v-2q2 -2 5 -6q2 -3 4.5 -8t6.5 -11l157 -291h-51l-166 310h-201v-310h-43v700zM340 350q34 0 62 12t47.5 33t30 50.5t10.5 65.5q0 47 -22 82.5t-60 52.5
q-15 7 -35.5 10.5t-62.5 3.5h-160v-310h190zM341 861h56l-79 -111h-44z" />
    <glyph glyph-name="racute" unicode="&#x155;" horiz-adv-x="340" 
d="M87 500h42v-95q0 -9 -0.5 -16.5t-1.5 -12.5l-2 -12h2q9 29 24 54.5t35.5 44.5t45.5 30t55 11q15 0 29 -3v-42q-6 2 -23 2q-44 0 -75 -24t-51 -60.5t-29 -79.5t-9 -81v-216h-42v500zM249 700h56l-79 -111h-44z" />
    <glyph glyph-name="uni0156" unicode="&#x156;" horiz-adv-x="607" 
d="M107 700h205q49 0 77 -5t49 -16q44 -22 70.5 -65t26.5 -103q0 -38 -10.5 -70t-29 -57t-44 -42t-56.5 -24v-2q2 -2 5 -6q2 -3 4.5 -8t6.5 -11l157 -291h-51l-166 310h-201v-310h-43v700zM340 350q34 0 62 12t47.5 33t30 50.5t10.5 65.5q0 47 -22 82.5t-60 52.5
q-15 7 -35.5 10.5t-62.5 3.5h-160v-310h190zM340 -66q6 -26 6 -47q0 -22 -5.5 -42.5t-16.5 -44.5h-39q8 22 13 40.5t5 37.5q0 27 -11 56h48z" />
    <glyph glyph-name="uni0157" unicode="&#x157;" horiz-adv-x="340" 
d="M87 500h42v-95q0 -9 -0.5 -16.5t-1.5 -12.5l-2 -12h2q9 29 24 54.5t35.5 44.5t45.5 30t55 11q15 0 29 -3v-42q-6 2 -23 2q-44 0 -75 -24t-51 -60.5t-29 -79.5t-9 -81v-216h-42v500zM133 -66q6 -26 6 -47q0 -22 -5.5 -42.5t-16.5 -44.5h-39q8 22 13 40.5t5 37.5
q0 27 -11 56h48z" />
    <glyph glyph-name="Rcaron" unicode="&#x158;" horiz-adv-x="607" 
d="M107 700h205q49 0 77 -5t49 -16q44 -22 70.5 -65t26.5 -103q0 -38 -10.5 -70t-29 -57t-44 -42t-56.5 -24v-2q2 -2 5 -6q2 -3 4.5 -8t6.5 -11l157 -291h-51l-166 310h-201v-310h-43v700zM340 350q34 0 62 12t47.5 33t30 50.5t10.5 65.5q0 47 -22 82.5t-60 52.5
q-15 7 -35.5 10.5t-62.5 3.5h-160v-310h190zM191 861h49l56 -80h2l56 80h49l-80 -111h-52z" />
    <glyph glyph-name="rcaron" unicode="&#x159;" horiz-adv-x="340" 
d="M87 500h42v-95q0 -9 -0.5 -16.5t-1.5 -12.5l-2 -12h2q9 29 24 54.5t35.5 44.5t45.5 30t55 11q15 0 29 -3v-42q-6 2 -23 2q-44 0 -75 -24t-51 -60.5t-29 -79.5t-9 -81v-216h-42v500zM99 700h49l56 -80h2l56 80h49l-80 -111h-52z" />
    <glyph glyph-name="Sacute" unicode="&#x15a;" horiz-adv-x="524" 
d="M81 108q34 -34 82 -56t102 -22q34 0 63.5 9.5t50.5 27.5t33 43.5t12 57.5q0 49 -26.5 80t-66.5 53.5t-86 41t-86 42.5t-66.5 58.5t-26.5 88.5q0 41 16.5 74.5t45 57t67 36t82.5 12.5q48 0 95.5 -16.5t81.5 -48.5l-24 -37q-29 28 -71 44t-84 16q-32 0 -62 -9t-52.5 -26.5
t-36 -42.5t-13.5 -57q0 -47 26.5 -76t66.5 -50t86 -39.5t86 -43t66.5 -60.5t26.5 -93q0 -39 -14 -73t-40.5 -59t-64.5 -39t-86 -14q-60 0 -115 22.5t-97 64.5zM308 861h56l-79 -111h-44z" />
    <glyph glyph-name="sacute" unicode="&#x15b;" horiz-adv-x="430" 
d="M68 92q29 -30 70.5 -46.5t84.5 -16.5q23 0 44 6t36.5 18t25 29.5t9.5 40.5q0 32 -20.5 51.5t-51 34.5t-66 27.5t-66 30.5t-51 43.5t-20.5 66.5q0 33 13 58.5t35 42.5t51 25.5t61 8.5q39 0 79 -12.5t69 -41.5l-25 -34q-22 23 -56.5 35t-69.5 12q-21 0 -41.5 -5t-36.5 -16
t-25.5 -28.5t-9.5 -41.5q0 -33 20.5 -53t51 -34.5t66 -27.5t66 -30.5t51 -44t20.5 -67.5q0 -30 -12 -55t-33.5 -42.5t-51 -27.5t-63.5 -10q-48 0 -97 17t-84 55zM264 700h56l-79 -111h-44z" />
    <glyph glyph-name="Scircumflex" unicode="&#x15c;" horiz-adv-x="524" 
d="M81 108q34 -34 82 -56t102 -22q34 0 63.5 9.5t50.5 27.5t33 43.5t12 57.5q0 49 -26.5 80t-66.5 53.5t-86 41t-86 42.5t-66.5 58.5t-26.5 88.5q0 41 16.5 74.5t45 57t67 36t82.5 12.5q48 0 95.5 -16.5t81.5 -48.5l-24 -37q-29 28 -71 44t-84 16q-32 0 -62 -9t-52.5 -26.5
t-36 -42.5t-13.5 -57q0 -47 26.5 -76t66.5 -50t86 -39.5t86 -43t66.5 -60.5t26.5 -93q0 -39 -14 -73t-40.5 -59t-64.5 -39t-86 -14q-60 0 -115 22.5t-97 64.5zM239 861h52l80 -111h-49l-56 80h-2l-56 -80h-49z" />
    <glyph glyph-name="scircumflex" unicode="&#x15d;" horiz-adv-x="430" 
d="M68 92q29 -30 70.5 -46.5t84.5 -16.5q23 0 44 6t36.5 18t25 29.5t9.5 40.5q0 32 -20.5 51.5t-51 34.5t-66 27.5t-66 30.5t-51 43.5t-20.5 66.5q0 33 13 58.5t35 42.5t51 25.5t61 8.5q39 0 79 -12.5t69 -41.5l-25 -34q-22 23 -56.5 35t-69.5 12q-21 0 -41.5 -5t-36.5 -16
t-25.5 -28.5t-9.5 -41.5q0 -33 20.5 -53t51 -34.5t66 -27.5t66 -30.5t51 -44t20.5 -67.5q0 -30 -12 -55t-33.5 -42.5t-51 -27.5t-63.5 -10q-48 0 -97 17t-84 55zM195 700h52l80 -111h-49l-56 80h-2l-56 -80h-49z" />
    <glyph glyph-name="Scedilla" unicode="&#x15e;" horiz-adv-x="525" 
d="M245 -11q-54 3 -104.5 25.5t-88.5 60.5l29 33q34 -34 82 -56t102 -22q34 0 63.5 9.5t50.5 27.5t33 43.5t12 57.5q0 49 -26.5 80t-66.5 53.5t-86 41t-86 42.5t-66.5 58.5t-26.5 88.5q0 41 16.5 74.5t45 57t67 36t82.5 12.5q48 0 95.5 -16.5t81.5 -48.5l-24 -37
q-29 28 -71 44t-84 16q-32 0 -62 -9t-52.5 -26.5t-36 -42.5t-13.5 -57q0 -47 26.5 -76t66.5 -50t86 -39.5t86 -43t66.5 -60.5t26.5 -93q0 -38 -13 -70.5t-37 -57t-59 -39.5t-79 -17l-9 -49q31 -5 50 -23t19 -45q0 -21 -7.5 -35.5t-20.5 -23.5t-29 -13t-34 -4q-25 0 -44 4v38
q8 -2 19 -3.5t22 -1.5q20 0 37 7.5t17 29.5q0 17 -16 27.5t-45 10.5q-2 0 -4 -0.5t-4 -0.5h-4z" />
    <glyph glyph-name="scedilla" unicode="&#x15f;" horiz-adv-x="432" 
d="M200 -11q-43 4 -85.5 21t-72.5 50l27 32q29 -30 70.5 -46.5t84.5 -16.5q23 0 44 6t36.5 18t25 29.5t9.5 40.5q0 32 -20.5 51.5t-51 34.5t-66 27.5t-66 30.5t-51 43.5t-20.5 66.5q0 33 13 58.5t35 42.5t51 25.5t61 8.5q39 0 79 -12.5t69 -41.5l-25 -34q-22 23 -56.5 35
t-69.5 12q-21 0 -41.5 -5t-36.5 -16t-25.5 -28.5t-9.5 -41.5q0 -33 20.5 -53t51 -34.5t66 -27.5t66 -30.5t51 -44t20.5 -67.5q0 -29 -11 -52.5t-30.5 -41t-46.5 -28t-59 -12.5l-9 -49q31 -5 50 -23t19 -45q0 -21 -7.5 -35.5t-20.5 -23.5t-29 -13t-34 -4q-25 0 -44 4v38
q8 -2 19 -3.5t22 -1.5q20 0 37 7.5t17 29.5q0 17 -16 27.5t-45 10.5q-2 0 -4 -0.5t-4 -0.5h-4z" />
    <glyph glyph-name="Scaron" unicode="&#x160;" horiz-adv-x="524" 
d="M81 108q34 -34 82 -56t102 -22q34 0 63.5 9.5t50.5 27.5t33 43.5t12 57.5q0 49 -26.5 80t-66.5 53.5t-86 41t-86 42.5t-66.5 58.5t-26.5 88.5q0 41 16.5 74.5t45 57t67 36t82.5 12.5q48 0 95.5 -16.5t81.5 -48.5l-24 -37q-29 28 -71 44t-84 16q-32 0 -62 -9t-52.5 -26.5
t-36 -42.5t-13.5 -57q0 -47 26.5 -76t66.5 -50t86 -39.5t86 -43t66.5 -60.5t26.5 -93q0 -39 -14 -73t-40.5 -59t-64.5 -39t-86 -14q-60 0 -115 22.5t-97 64.5zM159 861h49l56 -80h2l56 80h49l-80 -111h-52z" />
    <glyph glyph-name="scaron" unicode="&#x161;" horiz-adv-x="430" 
d="M68 92q29 -30 70.5 -46.5t84.5 -16.5q23 0 44 6t36.5 18t25 29.5t9.5 40.5q0 32 -20.5 51.5t-51 34.5t-66 27.5t-66 30.5t-51 43.5t-20.5 66.5q0 33 13 58.5t35 42.5t51 25.5t61 8.5q39 0 79 -12.5t69 -41.5l-25 -34q-22 23 -56.5 35t-69.5 12q-21 0 -41.5 -5t-36.5 -16
t-25.5 -28.5t-9.5 -41.5q0 -33 20.5 -53t51 -34.5t66 -27.5t66 -30.5t51 -44t20.5 -67.5q0 -30 -12 -55t-33.5 -42.5t-51 -27.5t-63.5 -10q-48 0 -97 17t-84 55zM115 700h49l56 -80h2l56 80h49l-80 -111h-52z" />
    <glyph glyph-name="uni0162" unicode="&#x162;" horiz-adv-x="601" 
d="M279 660h-261v40h565v-40h-261v-660h-5l-11 -60q31 -5 50 -23t19 -45q0 -21 -7.5 -35.5t-20.5 -23.5t-29 -13t-34 -4q-25 0 -44 4v38q8 -2 19 -3.5t22 -1.5q20 0 37 7.5t17 29.5q0 17 -16 27.5t-45 10.5q-2 0 -4 -0.5t-4 -0.5h-4l20 93h-3v660z" />
    <glyph glyph-name="uni0163" unicode="&#x163;" horiz-adv-x="304" 
d="M176 17q-30 17 -52 55t-22 109v278h-66v38h66v142h42v-142h131v-38h-131v-275q0 -50 13 -79t31.5 -45t39 -20.5t35.5 -4.5h11t12 2v-39q-8 -2 -25 -2q-11 0 -25 1.5t-29 5.5l-11 -63q31 -5 50 -23t19 -45q0 -21 -7.5 -35.5t-20.5 -23.5t-29 -13t-34 -4q-25 0 -44 4v38
q8 -2 19 -3.5t22 -1.5q20 0 37 7.5t17 29.5q0 17 -16 27.5t-45 10.5q-2 0 -4 -0.5t-4 -0.5h-4z" />
    <glyph glyph-name="Tcaron" unicode="&#x164;" horiz-adv-x="601" 
d="M279 660h-261v40h565v-40h-261v-660h-43v660zM194 861h49l56 -80h2l56 80h49l-80 -111h-52z" />
    <glyph glyph-name="tcaron" unicode="&#x165;" horiz-adv-x="304" 
d="M102 459h-66v38h66v142h42v-142h131v-38h-131v-275q0 -50 13 -79t31.5 -45t39 -20.5t35.5 -4.5h11t12 2v-39q-8 -2 -25 -2q-20 0 -47 5.5t-52 24.5t-42.5 56t-17.5 99v278zM265 700q6 -26 6 -47q0 -22 -5.5 -42.5t-16.5 -44.5h-39q8 22 13 40.5t5 37.5q0 27 -11 56h48z
" />
    <glyph glyph-name="Tbar" unicode="&#x166;" horiz-adv-x="611" 
d="M284 337h-166v40h166v283h-261v40h565v-40h-261v-283h170v-40h-170v-337h-43v337z" />
    <glyph glyph-name="tbar" unicode="&#x167;" horiz-adv-x="309" 
d="M38 335h66v124h-66v38h66v142h42v-142h131v-38h-131v-124h131v-40h-131v-111q0 -50 13 -79t31.5 -45t39 -20.5t35.5 -4.5q13 0 17 1q4 0 6 1v-39q-3 -1 -7 -1q-3 -1 -8 -1h-10q-20 0 -47 5.5t-52 24.5t-42.5 56t-17.5 99v114h-66v40z" />
    <glyph glyph-name="Utilde" unicode="&#x168;" horiz-adv-x="721" 
d="M99 700h43v-458q0 -50 15.5 -89t44 -67t68.5 -42.5t90 -14.5q49 0 89.5 14.5t69.5 42.5t44.5 68t15.5 90v456h43v-460q0 -58 -19 -104.5t-53.5 -79.5t-82.5 -50.5t-106 -17.5t-106 17.5t-82.5 50.5t-54 79.5t-19.5 104.5v460zM216 753q0 108 83 108q25 0 41.5 -11.5
t29 -25.5t25 -25.5t30.5 -11.5q13 0 21 8t12 19t5.5 23t1.5 21h40q0 -108 -83 -108q-25 0 -41.5 11.5t-29 25.5t-25 25.5t-30.5 11.5q-13 0 -21 -8t-12 -19t-5.5 -23t-1.5 -21h-40z" />
    <glyph glyph-name="utilde" unicode="&#x169;" horiz-adv-x="580" 
d="M81 500h42v-302q0 -33 3.5 -63.5t16 -54t37 -37.5t66.5 -14q47 0 85 19t64.5 50.5t41 72.5t14.5 85v244h42v-500h-42v88q0 8 0.5 16t1.5 13l2 12h-2q-6 -18 -22.5 -42t-42 -46t-61.5 -37.5t-81 -15.5q-92 0 -128.5 50t-36.5 145v317zM143 592q0 108 83 108
q25 0 41.5 -11.5t29 -25.5t25 -25.5t30.5 -11.5q13 0 21 8t12 19t5.5 23t1.5 21h40q0 -108 -83 -108q-25 0 -41.5 11.5t-29 25.5t-25 25.5t-30.5 11.5q-13 0 -21 -8t-12 -19t-5.5 -23t-1.5 -21h-40z" />
    <glyph glyph-name="Umacron" unicode="&#x16a;" horiz-adv-x="721" 
d="M99 700h43v-458q0 -50 15.5 -89t44 -67t68.5 -42.5t90 -14.5q49 0 89.5 14.5t69.5 42.5t44.5 68t15.5 90v456h43v-460q0 -58 -19 -104.5t-53.5 -79.5t-82.5 -50.5t-106 -17.5t-106 17.5t-82.5 50.5t-54 79.5t-19.5 104.5v460zM241 826h239v-40h-239v40z" />
    <glyph glyph-name="umacron" unicode="&#x16b;" horiz-adv-x="580" 
d="M81 500h42v-302q0 -33 3.5 -63.5t16 -54t37 -37.5t66.5 -14q47 0 85 19t64.5 50.5t41 72.5t14.5 85v244h42v-500h-42v88q0 8 0.5 16t1.5 13l2 12h-2q-6 -18 -22.5 -42t-42 -46t-61.5 -37.5t-81 -15.5q-92 0 -128.5 50t-36.5 145v317zM168 665h239v-40h-239v40z" />
    <glyph glyph-name="Ubreve" unicode="&#x16c;" horiz-adv-x="721" 
d="M99 700h43v-458q0 -50 15.5 -89t44 -67t68.5 -42.5t90 -14.5q49 0 89.5 14.5t69.5 42.5t44.5 68t15.5 90v456h43v-460q0 -58 -19 -104.5t-53.5 -79.5t-82.5 -50.5t-106 -17.5t-106 17.5t-82.5 50.5t-54 79.5t-19.5 104.5v460zM360 747q-19 0 -37 6t-32.5 18t-23 30.5
t-8.5 43.5v16h40v-14q0 -33 18 -47.5t43 -14.5q24 0 42.5 14.5t18.5 48.5v13h40v-16q0 -25 -8.5 -43.5t-23 -30.5t-32.5 -18t-37 -6z" />
    <glyph glyph-name="ubreve" unicode="&#x16d;" horiz-adv-x="580" 
d="M81 500h42v-302q0 -33 3.5 -63.5t16 -54t37 -37.5t66.5 -14q47 0 85 19t64.5 50.5t41 72.5t14.5 85v244h42v-500h-42v88q0 8 0.5 16t1.5 13l2 12h-2q-6 -18 -22.5 -42t-42 -46t-61.5 -37.5t-81 -15.5q-92 0 -128.5 50t-36.5 145v317zM287 586q-19 0 -37 6t-32.5 18
t-23 30.5t-8.5 43.5v16h40v-14q0 -33 18 -47.5t43 -14.5q24 0 42.5 14.5t18.5 48.5v13h40v-16q0 -25 -8.5 -43.5t-23 -30.5t-32.5 -18t-37 -6z" />
    <glyph glyph-name="Uring" unicode="&#x16e;" horiz-adv-x="721" 
d="M99 700h43v-458q0 -50 15.5 -89t44 -67t68.5 -42.5t90 -14.5q49 0 89.5 14.5t69.5 42.5t44.5 68t15.5 90v456h43v-460q0 -58 -19 -104.5t-53.5 -79.5t-82.5 -50.5t-106 -17.5t-106 17.5t-82.5 50.5t-54 79.5t-19.5 104.5v460zM360 740q-29 0 -48 19t-19 48t19 48t48 19
t48 -19t19 -48t-19 -48t-48 -19zM360 775q14 0 23 9t9 23q0 15 -9 24t-23 9t-23 -9t-9 -24q0 -14 9 -23t23 -9z" />
    <glyph glyph-name="uring" unicode="&#x16f;" horiz-adv-x="580" 
d="M81 500h42v-302q0 -33 3.5 -63.5t16 -54t37 -37.5t66.5 -14q47 0 85 19t64.5 50.5t41 72.5t14.5 85v244h42v-500h-42v88q0 8 0.5 16t1.5 13l2 12h-2q-6 -18 -22.5 -42t-42 -46t-61.5 -37.5t-81 -15.5q-92 0 -128.5 50t-36.5 145v317zM287 579q-29 0 -48 19t-19 48t19 48
t48 19t48 -19t19 -48t-19 -48t-48 -19zM287 614q14 0 23 9t9 23q0 15 -9 24t-23 9t-23 -9t-9 -24q0 -14 9 -23t23 -9z" />
    <glyph glyph-name="Uhungarumlaut" unicode="&#x170;" horiz-adv-x="721" 
d="M99 700h43v-458q0 -50 15.5 -89t44 -67t68.5 -42.5t90 -14.5q49 0 89.5 14.5t69.5 42.5t44.5 68t15.5 90v456h43v-460q0 -58 -19 -104.5t-53.5 -79.5t-82.5 -50.5t-106 -17.5t-106 17.5t-82.5 50.5t-54 79.5t-19.5 104.5v460zM447 861h56l-79 -111h-44zM327 861h50
l-65 -111h-47z" />
    <glyph glyph-name="uhungarumlaut" unicode="&#x171;" horiz-adv-x="580" 
d="M81 500h42v-302q0 -33 3.5 -63.5t16 -54t37 -37.5t66.5 -14q47 0 85 19t64.5 50.5t41 72.5t14.5 85v244h42v-500h-42v88q0 8 0.5 16t1.5 13l2 12h-2q-6 -18 -22.5 -42t-42 -46t-61.5 -37.5t-81 -15.5q-92 0 -128.5 50t-36.5 145v317zM374 700h56l-79 -111h-44zM254 700
h50l-65 -111h-47z" />
    <glyph glyph-name="Uogonek" unicode="&#x172;" horiz-adv-x="721" 
d="M99 700h43v-458q0 -50 15.5 -89t44 -67t68.5 -42.5t90 -14.5q49 0 89.5 14.5t69.5 42.5t44.5 68t15.5 90v456h43v-460q0 -47 -11.5 -82.5t-30 -62t-42 -46t-47.5 -34.5q-21 -14 -41 -27.5t-35.5 -28.5t-25 -31.5t-9.5 -36.5q0 -19 10.5 -30t23.5 -17q15 -7 34 -9l-9 -39
q-29 3 -52 14q-20 9 -36 27t-16 50t16.5 57.5t36.5 44.5q-5 -1 -10 -1h-17q-58 0 -106 17.5t-82.5 50.5t-54 79.5t-19.5 104.5v460z" />
    <glyph glyph-name="uogonek" unicode="&#x173;" horiz-adv-x="580" 
d="M81 500h42v-302q0 -33 3.5 -63.5t16 -54t37 -37.5t66.5 -14q47 0 85 19t64.5 50.5t41 72.5t14.5 85v244h42v-500q-9 -6 -22.5 -17.5t-26 -26t-22 -31.5t-9.5 -34q0 -19 10.5 -30t23.5 -17q15 -7 34 -9l-9 -39q-29 3 -52 14q-20 9 -36 27t-16 50q0 21 9 40t21.5 34
t27 26.5t25.5 19.5v81q0 8 0.5 16t1.5 13l2 12h-2q-6 -18 -22.5 -42t-42 -46t-61.5 -37.5t-81 -15.5q-92 0 -128.5 50t-36.5 145v317z" />
    <glyph glyph-name="Wcircumflex" unicode="&#x174;" horiz-adv-x="914" 
d="M41 700h45l148 -570q3 -13 6.5 -26t5.5 -24l5 -25h2q2 12 6 24q2 11 5.5 24t7.5 27l160 570h48l160 -570q4 -14 7 -27t6 -24l6 -24h2l5 25q2 11 5 24t7 26l153 570h45l-189 -700h-54l-148 528q-5 17 -9.5 36t-8.5 36q-4 19 -9 39h-4q-5 -20 -9 -39q-4 -17 -8.5 -36
t-9.5 -36l-148 -528h-54zM441 861h52l80 -111h-49l-56 80h-2l-56 -80h-49z" />
    <glyph glyph-name="wcircumflex" unicode="&#x175;" horiz-adv-x="823" 
d="M34 500h45l136 -392q3 -9 6 -18.5t5 -17.5q3 -10 6 -18h2q2 8 5 18q2 8 5.5 17.5t6.5 18.5l137 390h47l137 -390q3 -9 6 -18.5t5 -17.5q3 -10 6 -18h2q2 9 5 18q2 8 5 17t7 19l136 392h45l-176 -500h-45l-139 388q-4 9 -7 18.5t-5 17.5q-3 9 -5 18h-2q-2 -9 -5 -18
q-2 -8 -5.5 -17.5t-6.5 -18.5l-138 -388h-45zM385 700h52l80 -111h-49l-56 80h-2l-56 -80h-49z" />
    <glyph glyph-name="Ycircumflex" unicode="&#x176;" horiz-adv-x="567" 
d="M262 304l-238 396h49l166 -276q8 -13 15.5 -27t13.5 -25q7 -14 14 -27h2q7 13 14 27q6 11 13.5 25t15.5 27l166 276h49l-237 -396v-304h-43v304zM257 861h52l80 -111h-49l-56 80h-2l-56 -80h-49z" />
    <glyph glyph-name="ycircumflex" unicode="&#x177;" horiz-adv-x="517" 
d="M41 -146q8 -7 18 -12q8 -5 19.5 -8.5t24.5 -3.5q18 0 32.5 7.5t26.5 20t21.5 28.5t17.5 34l36 83l-207 497h45l165 -399q4 -9 7.5 -17.5t5.5 -15.5q3 -8 5 -14h2q2 6 5 14q2 7 5 15.5t7 17.5l165 399h45l-257 -617q-17 -39 -48 -66t-79 -27q-18 0 -33 4.5t-26 9.5
q-12 6 -22 14zM234 700h52l80 -111h-49l-56 80h-2l-56 -80h-49z" />
    <glyph glyph-name="Ydieresis" unicode="&#x178;" horiz-adv-x="567" 
d="M262 304l-238 396h49l166 -276q8 -13 15.5 -27t13.5 -25q7 -14 14 -27h2q7 13 14 27q6 11 13.5 25t15.5 27l166 276h49l-237 -396v-304h-43v304zM323 861h46v-73h-46v73zM186 861h46v-73h-46v73z" />
    <glyph glyph-name="Zacute" unicode="&#x179;" horiz-adv-x="565" 
d="M35 34l385 562q9 14 17.5 25t15.5 20q8 10 15 19v2q-5 -1 -12 -1q-6 -1 -16 -1h-23h-361v40h464v-34l-385 -562q-9 -14 -17.5 -26t-15.5 -20q-8 -11 -15 -18v-2q5 0 12 1q6 0 15.5 0.5t23.5 0.5h385v-40h-488v34zM338 861h56l-79 -111h-44z" />
    <glyph glyph-name="zacute" unicode="&#x17a;" horiz-adv-x="487" 
d="M38 34l303 381q7 8 13.5 16.5t12.5 15.5q6 8 13 14v2q-5 -1 -13 -1q-7 -1 -16.5 -1h-21.5h-278v39h386v-34l-304 -381q-7 -9 -14 -17t-13 -15q-7 -8 -13 -14v-2q6 0 14 1q7 0 16 0.5t22 0.5h303v-39h-410v34zM286 700h56l-79 -111h-44z" />
    <glyph glyph-name="Zdotaccent" unicode="&#x17b;" horiz-adv-x="565" 
d="M35 34l385 562q9 14 17.5 25t15.5 20q8 10 15 19v2q-5 -1 -12 -1q-6 -1 -16 -1h-23h-361v40h464v-34l-385 -562q-9 -14 -17.5 -26t-15.5 -20q-8 -11 -15 -18v-2q5 0 12 1q6 0 15.5 0.5t23.5 0.5h385v-40h-488v34zM271 861h46v-73h-46v73z" />
    <glyph glyph-name="zdotaccent" unicode="&#x17c;" horiz-adv-x="487" 
d="M38 34l303 381q7 8 13.5 16.5t12.5 15.5q6 8 13 14v2q-5 -1 -13 -1q-7 -1 -16.5 -1h-21.5h-278v39h386v-34l-304 -381q-7 -9 -14 -17t-13 -15q-7 -8 -13 -14v-2q6 0 14 1q7 0 16 0.5t22 0.5h303v-39h-410v34zM220 700h46v-73h-46v73z" />
    <glyph glyph-name="Zcaron" unicode="&#x17d;" horiz-adv-x="565" 
d="M35 34l385 562q9 14 17.5 25t15.5 20q8 10 15 19v2q-5 -1 -12 -1q-6 -1 -16 -1h-23h-361v40h464v-34l-385 -562q-9 -14 -17.5 -26t-15.5 -20q-8 -11 -15 -18v-2q5 0 12 1q6 0 15.5 0.5t23.5 0.5h385v-40h-488v34zM188 861h49l56 -80h2l56 80h49l-80 -111h-52z" />
    <glyph glyph-name="zcaron" unicode="&#x17e;" horiz-adv-x="487" 
d="M38 34l303 381q7 8 13.5 16.5t12.5 15.5q6 8 13 14v2q-5 -1 -13 -1q-7 -1 -16.5 -1h-21.5h-278v39h386v-34l-304 -381q-7 -9 -14 -17t-13 -15q-7 -8 -13 -14v-2q6 0 14 1q7 0 16 0.5t22 0.5h303v-39h-410v34zM137 700h49l56 -80h2l56 80h49l-80 -111h-52z" />
    <glyph glyph-name="longs" unicode="&#x17f;" horiz-adv-x="251" 
d="M102 459h-63v38h63v23q0 62 17.5 98.5t42.5 56t52 25t46 5.5q6 0 10.5 -0.5t8.5 -0.5q4 -1 7 -1v-39q-2 0 -6 1q-3 0 -7.5 0.5t-9.5 0.5q-15 0 -35.5 -4.5t-39 -19.5t-31.5 -44t-13 -77v-521h-42v459z" />
    <glyph glyph-name="florin" unicode="&#x192;" horiz-adv-x="560" 
d="M36 -57q8 -2 18 -3q8 -1 19 -1.5t25 -0.5q15 0 35.5 4.5t40 19.5t35 44t19.5 77l26 295h-96v38h99l10 111q5 62 26 98.5t48 56t55 25t47 5.5q16 0 30.5 -1t25.5 -3q13 -2 25 -3v-39q-13 1 -26 3q-12 2 -26.5 3t-29.5 1t-36 -4.5t-40.5 -19.5t-35 -44t-19.5 -77l-11 -112
h133v-38h-136l-26 -294q-6 -62 -26.5 -99t-47 -56t-54 -24.5t-46.5 -5.5q-14 0 -25 0.5t-19 1.5q-10 1 -17 3v39v0z" />
    <glyph glyph-name="uni0218" unicode="&#x218;" horiz-adv-x="524" 
d="M81 108q34 -34 82 -56t102 -22q34 0 63.5 9.5t50.5 27.5t33 43.5t12 57.5q0 49 -26.5 80t-66.5 53.5t-86 41t-86 42.5t-66.5 58.5t-26.5 88.5q0 41 16.5 74.5t45 57t67 36t82.5 12.5q48 0 95.5 -16.5t81.5 -48.5l-24 -37q-29 28 -71 44t-84 16q-32 0 -62 -9t-52.5 -26.5
t-36 -42.5t-13.5 -57q0 -47 26.5 -76t66.5 -50t86 -39.5t86 -43t66.5 -60.5t26.5 -93q0 -39 -14 -73t-40.5 -59t-64.5 -39t-86 -14q-60 0 -115 22.5t-97 64.5zM286 -66q6 -26 6 -47q0 -22 -5.5 -42.5t-16.5 -44.5h-39q8 22 13 40.5t5 37.5q0 27 -11 56h48z" />
    <glyph glyph-name="uni0219" unicode="&#x219;" horiz-adv-x="430" 
d="M68 92q29 -30 70.5 -46.5t84.5 -16.5q23 0 44 6t36.5 18t25 29.5t9.5 40.5q0 32 -20.5 51.5t-51 34.5t-66 27.5t-66 30.5t-51 43.5t-20.5 66.5q0 33 13 58.5t35 42.5t51 25.5t61 8.5q39 0 79 -12.5t69 -41.5l-25 -34q-22 23 -56.5 35t-69.5 12q-21 0 -41.5 -5t-36.5 -16
t-25.5 -28.5t-9.5 -41.5q0 -33 20.5 -53t51 -34.5t66 -27.5t66 -30.5t51 -44t20.5 -67.5q0 -30 -12 -55t-33.5 -42.5t-51 -27.5t-63.5 -10q-48 0 -97 17t-84 55zM243 -66q6 -26 6 -47q0 -22 -5.5 -42.5t-16.5 -44.5h-39q8 22 13 40.5t5 37.5q0 27 -11 56h48z" />
    <glyph glyph-name="uni021A" unicode="&#x21a;" horiz-adv-x="601" 
d="M279 660h-261v40h565v-40h-261v-660h-43v660zM325 -66q6 -26 6 -47q0 -22 -5.5 -42.5t-16.5 -44.5h-39q8 22 13 40.5t5 37.5q0 27 -11 56h48z" />
    <glyph glyph-name="uni021B" unicode="&#x21b;" horiz-adv-x="304" 
d="M102 459h-66v38h66v142h42v-142h131v-38h-131v-275q0 -50 13 -79t31.5 -45t39 -20.5t35.5 -4.5h11t12 2v-39q-8 -2 -25 -2q-20 0 -47 5.5t-52 24.5t-42.5 56t-17.5 99v278zM220 -66q6 -26 6 -47q0 -22 -5.5 -42.5t-16.5 -44.5h-39q8 22 13 40.5t5 37.5q0 27 -11 56h48z
" />
    <glyph glyph-name="circumflex" unicode="&#x2c6;" horiz-adv-x="508" 
d="M228 861h52l80 -111h-49l-56 80h-2l-56 -80h-49z" />
    <glyph glyph-name="caron" unicode="&#x2c7;" horiz-adv-x="508" 
d="M148 861h49l56 -80h2l56 80h49l-80 -111h-52z" />
    <glyph glyph-name="breve" unicode="&#x2d8;" horiz-adv-x="510" 
d="M255 747q-19 0 -37 6t-32.5 18t-23 30.5t-8.5 43.5v16h40v-14q0 -33 18 -47.5t43 -14.5q24 0 42.5 14.5t18.5 48.5v13h40v-16q0 -25 -8.5 -43.5t-23 -30.5t-32.5 -18t-37 -6z" />
    <glyph glyph-name="dotaccent" unicode="&#x2d9;" horiz-adv-x="510" 
d="M232 861h46v-73h-46v73z" />
    <glyph glyph-name="ring" unicode="&#x2da;" horiz-adv-x="510" 
d="M255 740q-29 0 -48 19t-19 48t19 48t48 19t48 -19t19 -48t-19 -48t-48 -19zM255 775q14 0 23 9t9 23q0 15 -9 24t-23 9t-23 -9t-9 -24q0 -14 9 -23t23 -9z" />
    <glyph glyph-name="ogonek" unicode="&#x2db;" horiz-adv-x="509" 
d="M187 -113q0 30 15 54.5t33 41.5q21 20 48 37l39 -13q-26 -17 -45 -36q-17 -17 -31 -37.5t-14 -42.5q0 -19 10.5 -30t23.5 -17q15 -7 34 -9l-9 -39q-29 3 -52 14q-20 9 -36 27t-16 50z" />
    <glyph glyph-name="tilde" unicode="&#x2dc;" horiz-adv-x="509" 
d="M110 753q0 108 83 108q25 0 41.5 -11.5t29 -25.5t25 -25.5t30.5 -11.5q13 0 21 8t12 19t5.5 23t1.5 21h40q0 -108 -83 -108q-25 0 -41.5 11.5t-29 25.5t-25 25.5t-30.5 11.5q-13 0 -21 -8t-12 -19t-5.5 -23t-1.5 -21h-40v0z" />
    <glyph glyph-name="hungarumlaut" unicode="&#x2dd;" horiz-adv-x="509" 
d="M318 861h56l-79 -111h-44zM198 861h50l-65 -111h-47z" />
    <glyph glyph-name="uni0400" unicode="&#x400;" horiz-adv-x="556" 
d="M107 700h383v-40h-340v-287h279v-40h-279v-293h359v-40h-402v700zM223 861h56l67 -111h-44z" />
    <glyph glyph-name="uni0401" unicode="&#x401;" horiz-adv-x="556" 
d="M107 700h383v-40h-340v-287h279v-40h-279v-293h359v-40h-402v700zM352 861h46v-73h-46v73zM215 861h46v-73h-46v73z" />
    <glyph glyph-name="uni0402" unicode="&#x402;" horiz-adv-x="718" 
d="M223 660h-206v40h493v-40h-244v-259q0 -6 -0.5 -11t-0.5 -10v-9h2q66 31 115 38.5t73 7.5q55 0 96.5 -15.5t69 -43t41.5 -66t14 -83.5q0 -61 -19 -103t-49.5 -68.5t-70 -38t-79.5 -11.5q-11 0 -23.5 0.5t-23.5 1.5v39q7 -1 17.5 -1.5t26.5 -0.5q32 0 64 9t57.5 30t41 56
t15.5 87q0 36 -10 66.5t-31.5 53t-55.5 35t-81 12.5q-40 0 -74 -8t-60 -18q-30 -11 -55 -25v-325h-43v660z" />
    <glyph glyph-name="uni0403" unicode="&#x403;" horiz-adv-x="476" 
d="M107 700h353v-40h-310v-660h-43v700zM319 861h56l-79 -111h-44z" />
    <glyph glyph-name="uni0404" unicode="&#x404;" horiz-adv-x="717" 
d="M60 355q0 76 26.5 141.5t73 113.5t110 75t137.5 27q63 0 109 -13.5t78 -30.5q37 -19 63 -44l-26 -32q-26 21 -59 39q-29 15 -70 27.5t-94 12.5q-63 0 -117 -22.5t-94.5 -62.5t-64.5 -95t-27 -120h422v-40h-421q4 -64 28.5 -119.5t65 -96t94.5 -63.5t117 -23
q57 0 100.5 14.5t74.5 32.5q35 21 62 48l27 -30q-28 -30 -68 -53q-34 -20 -83 -36.5t-113 -16.5q-77 0 -141 29t-111 78.5t-73 116.5t-26 143z" />
    <glyph glyph-name="uni0405" unicode="&#x405;" horiz-adv-x="524" 
d="M81 108q34 -34 82 -56t102 -22q34 0 63.5 9.5t50.5 27.5t33 43.5t12 57.5q0 49 -26.5 80t-66.5 53.5t-86 41t-86 42.5t-66.5 58.5t-26.5 88.5q0 41 16.5 74.5t45 57t67 36t82.5 12.5q48 0 95.5 -16.5t81.5 -48.5l-24 -37q-29 28 -71 44t-84 16q-32 0 -62 -9t-52.5 -26.5
t-36 -42.5t-13.5 -57q0 -47 26.5 -76t66.5 -50t86 -39.5t86 -43t66.5 -60.5t26.5 -93q0 -39 -14 -73t-40.5 -59t-64.5 -39t-86 -14q-60 0 -115 22.5t-97 64.5z" />
    <glyph glyph-name="uni0406" unicode="&#x406;" horiz-adv-x="257" 
d="M107 700h43v-700h-43v700z" />
    <glyph glyph-name="uni0407" unicode="&#x407;" horiz-adv-x="257" 
d="M107 700h43v-700h-43v700zM175 861h46v-73h-46v73zM38 861h46v-73h-46v73z" />
    <glyph glyph-name="uni0408" unicode="&#x408;" horiz-adv-x="509" 
d="M35 213h43v-23q0 -32 8.5 -61t26 -51.5t44.5 -35.5t64 -13q27 0 53 8t46.5 27t33 50t12.5 76v470h-167v40h210v-509q0 -56 -16.5 -95t-43 -63t-60 -34.5t-67.5 -10.5t-67.5 10.5t-60 34.5t-43 63t-16.5 95v22z" />
    <glyph glyph-name="uni0409" unicode="&#x409;" horiz-adv-x="923" 
d="M22 34q54 7 88 50t53 115t26 169t7 213v119h329v-310h148q46 0 85 -13t67 -37.5t44 -61t16 -83.5q0 -46 -16.5 -82.5t-44.5 -61.5t-65.5 -38t-79.5 -13h-197v660h-244v-79q0 -123 -7 -228t-29.5 -183t-65.5 -124.5t-114 -53.5v42zM675 40q35 0 65.5 10t52.5 29.5
t34.5 48.5t12.5 67q0 37 -12.5 66t-35 48.5t-52.5 30t-65 10.5h-150v-310h150z" />
    <glyph glyph-name="uni040A" unicode="&#x40a;" horiz-adv-x="988" 
d="M107 700h43v-311h394v311h43v-310h158q44 0 81.5 -13t65 -37.5t43 -61t15.5 -83.5q0 -46 -16.5 -82.5t-44.5 -61.5t-65.5 -38t-79.5 -13h-200v349h-394v-349h-43v700zM740 40q35 0 65.5 10t52.5 29.5t34.5 48.5t12.5 67q0 37 -12.5 66t-35 48.5t-52.5 30t-65 10.5h-153
v-310h153z" />
    <glyph glyph-name="uni040B" unicode="&#x40b;" horiz-adv-x="712" 
d="M223 660h-206v40h492v-40h-243v-264q0 -5 -0.5 -11t-0.5 -11q-1 -6 -1 -11h2q13 7 33.5 16.5t47 18t57 14t63.5 5.5q98 0 143.5 -50t45.5 -143v-224h-43v217q0 78 -34 118.5t-112 40.5q-33 0 -64 -6t-57 -15.5t-47 -20t-33 -19.5v-315h-43v660z" />
    <glyph glyph-name="uni040C" unicode="&#x40c;" horiz-adv-x="571" 
d="M107 700h43v-312h130l200 312h52l-215 -330v-2l229 -368h-52l-214 348h-130v-348h-43v700zM339 861h56l-79 -111h-44z" />
    <glyph glyph-name="uni040D" unicode="&#x40d;" horiz-adv-x="750" 
d="M107 700h43v-549q0 -14 -1 -28.5t-2 -28.5q-1 -16 -2 -31h2q11 16 22 33q9 14 19.5 30t19.5 28l395 546h40v-700h-43v549q0 13 0.5 28t1.5 29q1 16 3 31h-2q-9 -16 -20 -32q-9 -14 -19.5 -29t-18.5 -27l-398 -549h-40v700zM281 861h56l67 -111h-44z" />
    <glyph glyph-name="uni040E" unicode="&#x40e;" horiz-adv-x="576" 
d="M113 62q12 -8 34 -21t48 -13q38 0 57.5 29.5t38.5 80.5l-280 562h48l212 -426q8 -15 14.5 -31t12.5 -29q6 -16 13 -30h2l10 30q5 13 10.5 29t11.5 31l160 426h47l-235 -606q-18 -46 -47 -76t-75 -30q-29 0 -55.5 12t-49.5 28zM285 734q-23 0 -44 7t-37.5 21t-26.5 34.5
t-10 46.5v18h42v-15q0 -35 23 -53.5t53 -18.5q29 0 53 18.5t24 54.5v14h41v-18q0 -26 -10 -46.5t-26.5 -34.5t-38 -21t-43.5 -7z" />
    <glyph glyph-name="uni040F" unicode="&#x40f;" horiz-adv-x="717" 
d="M107 700h43v-660h417v660h43v-700h-230v-140h-43v140h-230v700z" />
    <glyph glyph-name="uni0410" unicode="&#x410;" horiz-adv-x="624" 
d="M289 700h46l262 -700h-46l-91 242h-297l-90 -242h-46zM445 282l-106 284q-5 11 -9 25.5t-8 27.5q-4 15 -9 31h-2q-5 -16 -9 -31q-4 -13 -8.5 -27.5t-8.5 -25.5l-107 -284h267z" />
    <glyph glyph-name="uni0411" unicode="&#x411;" horiz-adv-x="584" 
d="M107 700h382v-40h-339v-260h180q42 0 79 -12t64 -37t43 -62.5t16 -89.5q0 -46 -14.5 -83t-41 -62.5t-62 -39.5t-77.5 -14h-230v700zM333 40q71 0 112.5 41.5t41.5 117.5q0 38 -11.5 68t-32 50.5t-49 31.5t-62.5 11h-182v-320h183z" />
    <glyph glyph-name="uni0412" unicode="&#x412;" horiz-adv-x="608" 
d="M107 700h235q38 0 70.5 -12.5t56 -35t37 -55t13.5 -72.5q0 -57 -25 -95t-66 -58v-2q52 -14 85.5 -61.5t33.5 -115.5q0 -44 -14.5 -79.5t-41 -61t-62 -39t-77.5 -13.5h-245v700zM341 388q59 0 96 37t37 100q0 62 -36 98.5t-98 36.5h-190v-272h191zM348 40q71 0 112.5 40.5
t41.5 112.5t-43.5 113.5t-111.5 41.5h-197v-308h198z" />
    <glyph glyph-name="uni0413" unicode="&#x413;" horiz-adv-x="476" 
d="M107 700h353v-40h-310v-660h-43v700z" />
    <glyph glyph-name="uni0414" unicode="&#x414;" horiz-adv-x="682" 
d="M517 40v620h-277v-88q0 -69 -4 -141t-16.5 -141.5t-35.5 -133.5t-61 -116h394zM74 40q43 55 68 120.5t37.5 135.5t15.5 140.5t3 134.5v129h362v-660h78v-180h-42v140h-549v-140h-43v180h70z" />
    <glyph glyph-name="uni0415" unicode="&#x415;" horiz-adv-x="556" 
d="M107 700h383v-40h-340v-287h279v-40h-279v-293h359v-40h-402v700z" />
    <glyph glyph-name="uni0416" unicode="&#x416;" horiz-adv-x="819" 
d="M241 368v2l-201 330h50l188 -312h110v312h43v-312h110l188 312h50l-201 -330v-2l215 -368h-50l-202 348h-110v-348h-43v348h-110l-202 -348h-50z" />
    <glyph glyph-name="uni0417" unicode="&#x417;" horiz-adv-x="530" 
d="M65 108q29 -33 76 -55.5t100 -22.5q39 0 73 11.5t58.5 32.5t39 51.5t14.5 68.5q0 36 -13.5 64.5t-36 47.5t-52.5 29t-64 10h-89v40h71q31 0 60 10.5t51 29t35 45.5t13 60q0 28 -8.5 53t-27.5 44.5t-48 31t-71 11.5q-41 0 -82.5 -12.5t-82.5 -47.5l-24 37q27 22 53.5 34.5
t51 19.5t46 9t38.5 2q50 0 87.5 -13.5t62.5 -37t37.5 -56.5t12.5 -72q0 -33 -9.5 -59t-25 -45.5t-35 -33t-39.5 -22.5v-2q60 -15 97 -60.5t37 -116.5q0 -47 -17.5 -85t-48.5 -65t-73.5 -41.5t-91.5 -14.5q-28 0 -57 6t-56 17t-50.5 27t-40.5 36z" />
    <glyph glyph-name="uni0418" unicode="&#x418;" horiz-adv-x="750" 
d="M107 700h43v-549q0 -14 -1 -28.5t-2 -28.5q-1 -16 -2 -31h2q11 16 22 33q9 14 19.5 30t19.5 28l395 546h40v-700h-43v549q0 13 0.5 28t1.5 29q1 16 3 31h-2q-9 -16 -20 -32q-9 -14 -19.5 -29t-18.5 -27l-398 -549h-40v700z" />
    <glyph glyph-name="uni0419" unicode="&#x419;" horiz-adv-x="750" 
d="M376 734q-23 0 -44 7t-37.5 21t-26.5 34.5t-10 46.5v18h42v-15q0 -35 23 -53.5t53 -18.5q29 0 53 18.5t24 54.5v14h41v-18q0 -26 -10 -46.5t-26.5 -34.5t-38 -21t-43.5 -7zM107 700h43v-549q0 -14 -1 -28.5t-2 -28.5q-1 -16 -2 -31h2q11 16 22 33q9 14 19.5 30t19.5 28
l395 546h40v-700h-43v549q0 13 0.5 28t1.5 29q1 16 3 31h-2q-9 -16 -20 -32q-9 -14 -19.5 -29t-18.5 -27l-398 -549h-40v700z" />
    <glyph glyph-name="uni041A" unicode="&#x41a;" horiz-adv-x="571" 
d="M107 700h43v-312h130l200 312h52l-215 -330v-2l229 -368h-52l-214 348h-130v-348h-43v700z" />
    <glyph glyph-name="uni041B" unicode="&#x41b;" horiz-adv-x="652" 
d="M9 34q54 7 88 50t53 115t26 169t7 213v119h362v-700h-43v660h-277v-79q0 -123 -7 -228t-29.5 -183t-65.5 -124.5t-114 -53.5v42v0z" />
    <glyph glyph-name="uni041C" unicode="&#x41c;" horiz-adv-x="834" 
d="M136 700h42l204 -440q6 -13 12 -27t11 -25q5 -14 11 -27h2q5 13 11 27q5 11 11 25t12 27l204 440h42l56 -700h-43l-43 534q-2 13 -2.5 29t-0.5 30v34h-2l-12 -34q-5 -14 -11.5 -30t-12.5 -29l-188 -399h-44l-187 399q-6 12 -12.5 28.5t-11.5 31.5q-6 18 -13 35h-2v-35
q0 -15 -1 -31t-2 -29l-43 -534h-43z" />
    <glyph glyph-name="uni041D" unicode="&#x41d;" horiz-adv-x="744" 
d="M107 700h43v-329h444v329h43v-700h-43v331h-444v-331h-43v700z" />
    <glyph glyph-name="uni041E" unicode="&#x41e;" horiz-adv-x="826" 
d="M59 355q0 75 28 140.5t76 113.5t112.5 75.5t137.5 27.5t137.5 -27.5t112.5 -75.5t76 -113.5t28 -140.5q0 -77 -28 -144t-76 -116.5t-112.5 -78t-137.5 -28.5t-137.5 28.5t-112.5 78t-76 116.5t-28 144zM104 355q0 -69 24 -128.5t66 -103.5t98.5 -69t120.5 -25t120.5 25
t98.5 69t66 103.5t24 128.5q0 67 -24 125t-66 100.5t-98.5 66.5t-120.5 24t-120.5 -24t-98.5 -66.5t-66 -100.5t-24 -125z" />
    <glyph glyph-name="uni041F" unicode="&#x41f;" horiz-adv-x="734" 
d="M107 700h520v-700h-43v660h-434v-660h-43v700z" />
    <glyph glyph-name="uni0420" unicode="&#x420;" horiz-adv-x="589" 
d="M107 700h230q46 0 85 -14t67.5 -40.5t44.5 -64t16 -85.5t-16 -86t-44.5 -64.5t-67.5 -41t-85 -14.5h-187v-290h-43v700zM335 330q77 0 123.5 43.5t46.5 122.5t-46.5 121.5t-123.5 42.5h-185v-330h185z" />
    <glyph glyph-name="uni0421" unicode="&#x421;" horiz-adv-x="719" 
d="M60 355q0 76 25.5 141.5t71.5 113.5t110 75t140 27q66 0 133 -20.5t117 -67.5l-26 -32q-43 38 -103 58.5t-120 20.5q-67 0 -122.5 -24t-95.5 -66t-62.5 -100t-22.5 -126t22 -127.5t62.5 -103.5t97 -69.5t124.5 -25.5q65 0 127 24t110 71l27 -30q-22 -21 -48.5 -40
t-59.5 -34t-71.5 -23.5t-84.5 -8.5q-79 0 -143.5 29t-110.5 78.5t-71.5 116.5t-25.5 143z" />
    <glyph glyph-name="uni0422" unicode="&#x422;" horiz-adv-x="601" 
d="M279 660h-261v40h565v-40h-261v-660h-43v660z" />
    <glyph glyph-name="uni0423" unicode="&#x423;" horiz-adv-x="576" 
d="M113 62q12 -8 34 -21t48 -13q38 0 57.5 29.5t38.5 80.5l-280 562h48l212 -426q8 -15 14.5 -31t12.5 -29q6 -16 13 -30h2l10 30q5 13 10.5 29t11.5 31l160 426h47l-235 -606q-18 -46 -47 -76t-75 -30q-29 0 -55.5 12t-49.5 28z" />
    <glyph glyph-name="uni0424" unicode="&#x424;" horiz-adv-x="809" 
d="M49 371q0 69 24 123t68 91.5t105.5 57.5t136.5 20v87h43v-87q74 0 135.5 -20t105.5 -57.5t68.5 -91.5t24.5 -123t-24 -123t-68 -91.5t-105.5 -57.5t-136.5 -20v-91h-43v91q-75 0 -136.5 20t-105.5 57.5t-68 91.5t-24 123zM426 117q66 0 119.5 16.5t91 49t58 79.5
t20.5 109q0 61 -20.5 108.5t-58 80t-91 49t-119.5 16.5v-508zM94 371q0 -62 20.5 -109t58 -79.5t91 -49t119.5 -16.5v508q-66 0 -119.5 -16.5t-91 -49t-58 -80t-20.5 -108.5z" />
    <glyph glyph-name="uni0425" unicode="&#x425;" horiz-adv-x="555" 
d="M247 370l-201 330h52l134 -223q8 -13 15.5 -26.5t14.5 -24.5l15 -25h2q7 12 14 25q6 11 14 24.5t16 26.5l135 223h52l-203 -330l227 -370h-51l-162 266l-16 26t-14 24l-14 24h-2l-14 -24q-6 -11 -13.5 -24.5t-15.5 -26.5l-160 -265h-51z" />
    <glyph glyph-name="uni0426" unicode="&#x426;" horiz-adv-x="732" 
d="M107 700h43v-660h417v660h43v-660h78v-180h-42v140h-539v700z" />
    <glyph glyph-name="uni0427" unicode="&#x427;" horiz-adv-x="600" 
d="M266 283q-108 0 -157 50t-49 143v224h43v-217q0 -78 37.5 -118.5t125.5 -40.5q28 0 56 6t52 15t44 19t32 19v317h43v-700h-43v305v11t1 11q0 5 1 11h-2q-14 -8 -34 -17.5t-44.5 -18t-51.5 -14t-54 -5.5z" />
    <glyph glyph-name="uni0428" unicode="&#x428;" horiz-adv-x="983" 
d="M107 700h43v-660h320v660h43v-660h320v660h43v-700h-769v700z" />
    <glyph glyph-name="uni0429" unicode="&#x429;" horiz-adv-x="1004" 
d="M107 700h43v-660h320v660h43v-660h320v660h43v-660h86v-180h-43v140h-812v700z" />
    <glyph glyph-name="uni042A" unicode="&#x42a;" horiz-adv-x="652" 
d="M197 660h-186v40h229v-300h170q42 0 79 -12t64 -37t43 -62.5t16 -89.5q0 -46 -14.5 -83t-41 -62.5t-62 -39.5t-77.5 -14h-220v660zM413 40q71 0 112.5 41.5t41.5 117.5q0 38 -11.5 68t-32 50.5t-49 31.5t-62.5 11h-172v-320h173z" />
    <glyph glyph-name="uni042B" unicode="&#x42b;" horiz-adv-x="785" 
d="M635 700h43v-700h-43v700zM107 700h43v-300h170q42 0 79 -12t64 -37t43 -62.5t16 -89.5q0 -46 -14.5 -83t-41 -62.5t-62 -39.5t-77.5 -14h-220v700zM323 40q71 0 112.5 41.5t41.5 117.5q0 38 -11.5 68t-32 50.5t-49 31.5t-62.5 11h-172v-320h173z" />
    <glyph glyph-name="uni042C" unicode="&#x42c;" horiz-adv-x="562" 
d="M107 700h43v-300h170q42 0 79 -12t64 -37t43 -62.5t16 -89.5q0 -46 -14.5 -83t-41 -62.5t-62 -39.5t-77.5 -14h-220v700zM323 40q71 0 112.5 41.5t41.5 117.5q0 38 -11.5 68t-32 50.5t-49 31.5t-62.5 11h-172v-320h173z" />
    <glyph glyph-name="uni042D" unicode="&#x42d;" horiz-adv-x="717" 
d="M69 124q18 -20 44.5 -37.5t58 -30.5t66 -20t69.5 -7q62 0 116 23t94.5 63.5t65 96t28.5 119.5h-421v40h422q-3 65 -27.5 120t-65 95t-94.5 62.5t-117 22.5q-59 0 -117.5 -20t-104.5 -59l-26 32q23 22 52 38.5t61.5 27.5t66.5 16.5t67 5.5q75 0 139.5 -27t111 -75
t73 -113.5t26.5 -141.5t-26.5 -143t-73 -116.5t-110.5 -78.5t-140 -29q-35 0 -71 6.5t-70.5 20t-66.5 33t-57 46.5z" />
    <glyph glyph-name="uni042E" unicode="&#x42e;" horiz-adv-x="1036" 
d="M107 700h43v-329h138q3 72 31 134.5t74.5 108.5t108 72t130.5 26q71 0 133.5 -27.5t109.5 -75.5t74 -113.5t27 -140.5q0 -77 -27 -144t-74 -116.5t-109.5 -78t-133.5 -28.5q-68 0 -128.5 26t-107 72t-75 109t-32.5 136h-139v-331h-43v700zM333 355q0 -69 23.5 -128
t64 -103t95 -69t116.5 -25t116.5 25t95 69t64 103t23.5 128q0 67 -23.5 124.5t-64 100t-95 66.5t-116.5 24t-116.5 -24t-95 -66.5t-64 -100t-23.5 -124.5z" />
    <glyph glyph-name="uni042F" unicode="&#x42f;" horiz-adv-x="601" 
d="M208 288l6 10t5 8q3 4 5 7v2q-75 18 -111.5 69.5t-36.5 126.5q0 60 26.5 103t70.5 65q21 11 49 16t77 5h195v-700h-43v310h-179l-188 -310h-51zM451 350v310h-150q-42 0 -62.5 -3.5t-35.5 -10.5q-38 -17 -60 -52.5t-22 -82.5q0 -36 10.5 -65.5t30 -50.5t47 -33t62.5 -12
h180z" />
    <glyph glyph-name="uni0430" unicode="&#x430;" horiz-adv-x="508" 
d="M41 133q0 42 17 71.5t44 48.5t61 29.5t68.5 15.5t66 6t53.5 1h33v17q0 42 -10 70.5t-28.5 46t-43.5 25t-55 7.5q-38 0 -75 -12.5t-68 -35.5l-24 34q29 26 75 40.5t94 14.5q87 0 132 -47.5t45 -141.5v-323h-42v66q0 10 0.5 18.5t1.5 14.5q1 7 2 12h-2q-9 -24 -25.5 -46.5
t-39 -39.5t-50 -27t-60.5 -10q-30 0 -60.5 8.5t-55 26.5t-39.5 45t-15 65zM85 136q0 -20 8 -39.5t24 -35t40 -25t56 -9.5q41 0 73 19t53.5 49.5t33 68.5t11.5 75v27h-32q-21 0 -49 -0.5t-58 -4t-58.5 -11.5t-51 -22.5t-36.5 -37t-14 -54.5z" />
    <glyph glyph-name="uni0431" unicode="&#x431;" horiz-adv-x="567" 
d="M65 279q0 60 7 111t27 94t56.5 79t96.5 65l191 95l19 -37l-194 -96q-47 -23 -78 -50.5t-49.5 -59.5t-27.5 -69t-12 -80h2q34 69 84.5 95t113.5 26q45 0 83 -15.5t66.5 -45t44.5 -72.5t16 -98q0 -52 -16 -95t-45.5 -73.5t-70 -47.5t-88.5 -17q-60 0 -102.5 22.5t-70 61.5
t-40.5 92t-13 115zM115 223q0 -47 14 -83t38 -61t56 -38t68 -13t68 13t56 37.5t38 60.5t14 81q0 46 -14 81.5t-37 60t-54.5 37.5t-65.5 13q-41 0 -74.5 -15t-57 -40.5t-36.5 -60t-13 -73.5z" />
    <glyph glyph-name="uni0432" unicode="&#x432;" horiz-adv-x="487" 
d="M87 500h157q77 0 120.5 -32t43.5 -95q0 -41 -21 -69t-59 -41v-2q50 -9 78.5 -42t28.5 -81q0 -61 -45.5 -99.5t-132.5 -38.5h-170v500zM246 278q58 0 87.5 24.5t29.5 70.5q0 89 -121 89h-113v-184h117zM253 39q72 0 105 26.5t33 72.5q0 51 -36.5 76t-102.5 25h-123v-200
h124z" />
    <glyph glyph-name="uni0433" unicode="&#x433;" horiz-adv-x="396" 
d="M87 500h284v-38h-242v-462h-42v500z" />
    <glyph glyph-name="uni0434" unicode="&#x434;" horiz-adv-x="553" 
d="M409 39v423h-198v-33q0 -28 -2.5 -75t-11.5 -102t-27 -111t-49 -102h288zM71 39q25 31 41.5 68t27.5 75t17 76t8.5 71t3 59t0.5 41v71h282v-461h70v-159h-42v120h-427v-120h-42v159h61z" />
    <glyph glyph-name="uni0435" unicode="&#x435;" horiz-adv-x="549" 
d="M52 249q0 63 20 112t53.5 82.5t77.5 51t92 17.5q51 0 89 -18.5t63.5 -50t38.5 -73t13 -86.5q0 -6 -0.5 -13t-1.5 -14h-401q0 -54 17 -96.5t46.5 -72t68 -44.5t82.5 -15q42 0 83.5 16.5t71.5 46.5l23 -35q-33 -32 -81.5 -50.5t-96.5 -18.5q-53 0 -100 18.5t-82 52.5
t-55.5 82t-20.5 108zM455 296q-2 46 -15.5 79t-35.5 55t-50.5 32.5t-59.5 10.5q-35 0 -67 -11t-58.5 -33.5t-44.5 -55.5t-25 -77h356z" />
    <glyph glyph-name="uni0436" unicode="&#x436;" horiz-adv-x="692" 
d="M199 255v2l-159 243h49l146 -224h90v224h42v-224h90l146 224h49l-159 -243v-2l176 -255h-53l-161 237h-88v-237h-42v237h-88l-161 -237h-53z" />
    <glyph glyph-name="uni0437" unicode="&#x437;" horiz-adv-x="431" 
d="M61 92q6 -7 18 -18t29.5 -21t40 -17.5t50.5 -7.5q24 0 48.5 6.5t44 20t31.5 34.5t12 50q0 49 -36 75t-103 26h-60v39h54q59 0 92.5 24t33.5 72q0 50 -33 73t-83 23q-42 0 -72 -13.5t-51 -33.5l-25 34q24 21 62 37.5t90 16.5q33 0 62 -8t50 -24.5t33 -41.5t12 -59
q0 -48 -23 -75t-58 -40v-2q45 -10 72 -40.5t27 -81.5q0 -38 -15.5 -66.5t-40.5 -47.5t-57.5 -28.5t-66.5 -9.5q-30 0 -55 6.5t-45.5 17t-36.5 23.5t-28 25z" />
    <glyph glyph-name="uni0438" unicode="&#x438;" horiz-adv-x="584" 
d="M87 500h42v-356q0 -13 -0.5 -27t-1.5 -26q-1 -14 -1 -28h2q9 15 20 29q8 12 18.5 26t18.5 26l273 356h39v-500h-42v357v27t1 25l2 26h-2q-10 -13 -20 -27q-9 -12 -19 -26t-18 -25l-273 -357h-39v500z" />
    <glyph glyph-name="uni0439" unicode="&#x439;" horiz-adv-x="584" 
d="M292 573q-23 0 -44 7t-37.5 21t-26.5 34.5t-10 46.5v18h42v-15q0 -35 23 -53.5t53 -18.5q29 0 53 18.5t24 54.5v14h41v-18q0 -26 -10 -46.5t-26.5 -34.5t-38 -21t-43.5 -7zM87 500h42v-356q0 -13 -0.5 -27t-1.5 -26q-1 -14 -1 -28h2q9 15 20 29q8 12 18.5 26t18.5 26
l273 356h39v-500h-42v357v27t1 25l2 26h-2q-10 -13 -20 -27q-9 -12 -19 -26t-18 -25l-273 -357h-39v500z" />
    <glyph glyph-name="uni043A" unicode="&#x43a;" horiz-adv-x="471" 
d="M87 500h42v-221h87l164 221h53l-181 -238v-2l201 -260h-55l-182 240h-87v-240h-42v500z" />
    <glyph glyph-name="uni043B" unicode="&#x43b;" horiz-adv-x="513" 
d="M20 35q70 11 98 93t28 223v149h280v-500h-42v461h-196v-110q0 -92 -10.5 -157t-31.5 -107.5t-52.5 -64t-73.5 -26.5v39z" />
    <glyph glyph-name="uni043C" unicode="&#x43c;" horiz-adv-x="705" 
d="M108 500h40l169 -331q6 -12 12 -25t11 -24q5 -12 11 -24h2q6 12 11 24q5 11 10.5 23.5t12.5 25.5l170 331h40l40 -500h-42l-28 347q-1 9 -1 23.5v28.5v34h-2q-4 -9 -8 -20q-4 -10 -10.5 -22.5t-14.5 -29.5l-157 -306h-43l-157 304q-8 15 -13.5 28t-10.5 24t-9 22h-2v-34
v-28.5t-1 -23.5l-28 -347h-42z" />
    <glyph glyph-name="uni043D" unicode="&#x43d;" horiz-adv-x="585" 
d="M87 500h42v-223h327v223h42v-500h-42v238h-327v-238h-42v500z" />
    <glyph glyph-name="uni043E" unicode="&#x43e;" horiz-adv-x="620" 
d="M51 253q0 55 20.5 102t55.5 82t82 55t101 20t101 -20t82 -55t55.5 -82t20.5 -102q0 -56 -20.5 -104.5t-55.5 -84t-82 -56t-101 -20.5t-101 20.5t-82 56t-55.5 84t-20.5 104.5zM95 253q0 -48 17 -89t46 -71t68 -47t84 -17t84 17t68 47t46 71t17 89q0 46 -17 86t-46 69.5
t-68 46t-84 16.5t-84 -16.5t-68 -46t-46 -69.5t-17 -86z" />
    <glyph glyph-name="uni043F" unicode="&#x43f;" horiz-adv-x="575" 
d="M87 500h401v-500h-42v461h-317v-461h-42v500z" />
    <glyph glyph-name="uni0440" unicode="&#x440;" horiz-adv-x="578" 
d="M87 500h42v-60q0 -9 -0.5 -16.5t-1.5 -12.5q-1 -6 -1 -11h2q23 53 70.5 82.5t109.5 29.5q50 0 90 -19t68 -53.5t43 -83t15 -106.5q0 -60 -16.5 -108t-46 -82.5t-70.5 -53t-89 -18.5q-57 0 -104 29.5t-71 83.5h-2q1 -5 2 -12q1 -6 1.5 -14t0.5 -18v-257h-42v700zM128 249
q0 -42 11.5 -81.5t33.5 -70t54.5 -49.5t74.5 -19q37 0 69.5 15t56.5 43t38 69t14 94q0 51 -13 91.5t-36 69.5t-55 44.5t-70 15.5q-35 0 -67 -12.5t-56.5 -39.5t-39.5 -69t-15 -101z" />
    <glyph glyph-name="uni0441" unicode="&#x441;" horiz-adv-x="540" 
d="M52 249q0 60 21 108.5t56 83t82 53t99 18.5q48 0 97 -17.5t82 -53.5l-26 -34q-27 29 -68 46.5t-85 17.5t-83 -15.5t-68 -44.5t-46 -70t-17 -92q0 -50 17 -90.5t46 -69.5t68 -44.5t83 -15.5q46 0 91 18.5t76 53.5l22 -35q-32 -35 -82 -56.5t-107 -21.5q-53 0 -100 18.5
t-82 52.5t-55.5 82t-20.5 108z" />
    <glyph glyph-name="uni0442" unicode="&#x442;" horiz-adv-x="472" 
d="M215 461h-190v39h422v-39h-190v-461h-42v461z" />
    <glyph glyph-name="uni0443" unicode="&#x443;" horiz-adv-x="517" 
d="M41 -146q8 -7 18 -12q8 -5 19.5 -8.5t24.5 -3.5q18 0 32.5 7.5t26.5 20t21.5 28.5t17.5 34l36 83l-207 497h45l165 -399q4 -9 7.5 -17.5t5.5 -15.5q3 -8 5 -14h2q2 6 5 14q2 7 5 15.5t7 17.5l165 399h45l-257 -617q-17 -39 -48 -66t-79 -27q-18 0 -33 4.5t-26 9.5
q-12 6 -22 14l19 36v0z" />
    <glyph glyph-name="uni0444" unicode="&#x444;" horiz-adv-x="684" 
d="M53 253q0 57 20 103.5t55.5 79.5t84.5 52.5t108 22.5v189h42v-189q59 -3 108 -22.5t84.5 -52.5t55.5 -79.5t20 -103.5q0 -58 -20 -105.5t-55.5 -81.5t-84.5 -54t-108 -23v-189h-42v189q-59 3 -108 23t-84.5 54t-55.5 81.5t-20 105.5zM363 29q50 3 91 19.5t70.5 45.5
t46 69t16.5 90q0 49 -16.5 88t-46 66.5t-70.5 43.5t-91 19v-441zM97 253q0 -50 16.5 -90t46 -69t70.5 -45.5t91 -19.5v441q-50 -3 -91 -19t-70.5 -43.5t-46 -66.5t-16.5 -88z" />
    <glyph glyph-name="uni0445" unicode="&#x445;" horiz-adv-x="462" 
d="M202 264l-161 236h51l121 -182l6 -10t5 -9q3 -4 6 -9h2q2 5 5 9q2 4 5.5 9t6.5 10l121 182h51l-161 -236l180 -264h-52l-138 207q-7 9 -12 20q-3 4 -6 9h-2q-2 -5 -5 -9q-2 -4 -5.5 -9.5t-7.5 -10.5l-138 -207h-52z" />
    <glyph glyph-name="uni0446" unicode="&#x446;" horiz-adv-x="584" 
d="M87 500h42v-461h311v461h42v-461h70v-159h-42v120h-423v500z" />
    <glyph glyph-name="uni0447" unicode="&#x447;" horiz-adv-x="484" 
d="M218 190q-47 0 -79 11.5t-51.5 32.5t-28 49.5t-8.5 61.5v155h42v-155q0 -20 4 -40.5t17 -37t37.5 -26.5t66.5 -10q46 0 83 16t54 29v224h42v-500h-42v199v12t1 11q0 5 1 11h-2q-13 -9 -30.5 -17t-36 -13.5t-37 -9t-33.5 -3.5z" />
    <glyph glyph-name="uni0448" unicode="&#x448;" horiz-adv-x="780" 
d="M87 500h42v-461h240v461h42v-461h240v461h42v-500h-606v500z" />
    <glyph glyph-name="uni0449" unicode="&#x449;" horiz-adv-x="795" 
d="M87 500h42v-461h240v461h42v-461h240v461h42v-461h70v-159h-42v120h-634v500z" />
    <glyph glyph-name="uni044A" unicode="&#x44a;" horiz-adv-x="518" 
d="M154 462h-141v38h183v-200h115q29 0 59 -6.5t54.5 -23.5t40 -46t15.5 -75q0 -66 -42 -107.5t-129 -41.5h-155v462zM309 39q68 0 97.5 30.5t29.5 79.5q0 51 -29.5 81.5t-95.5 30.5h-115v-222h113z" />
    <glyph glyph-name="uni044B" unicode="&#x44b;" horiz-adv-x="634" 
d="M505 500h42v-500h-42v500zM87 500h42v-200h115q29 0 59 -6.5t54.5 -23.5t40 -46t15.5 -75q0 -66 -42 -107.5t-129 -41.5h-155v500zM242 39q68 0 97.5 30.5t29.5 79.5q0 51 -29.5 81.5t-95.5 30.5h-115v-222h113z" />
    <glyph glyph-name="uni044C" unicode="&#x44c;" horiz-adv-x="451" 
d="M87 500h42v-200h115q29 0 59 -6.5t54.5 -23.5t40 -46t15.5 -75q0 -66 -42 -107.5t-129 -41.5h-155v500zM242 39q68 0 97.5 30.5t29.5 79.5q0 51 -29.5 81.5t-95.5 30.5h-115v-222h113z" />
    <glyph glyph-name="uni044D" unicode="&#x44d;" horiz-adv-x="539" 
d="M62 101q35 -40 81.5 -56t87.5 -16t77.5 14t65 40.5t47 63.5t21.5 83h-275v39h275q-3 46 -21.5 83.5t-47 63.5t-65.5 40.5t-77 14.5q-45 0 -84.5 -17t-70.5 -47l-26 34q31 35 80 53t100 18q52 0 98.5 -18.5t81.5 -53t56 -83t21 -108.5t-20.5 -108t-55.5 -82t-82 -52.5
t-100 -18.5t-103 19.5t-86 58.5z" />
    <glyph glyph-name="uni044E" unicode="&#x44e;" horiz-adv-x="785" 
d="M87 500h42v-231h107q3 52 23.5 96.5t54.5 77t77.5 51t93.5 18.5q51 0 96.5 -20t79.5 -55t53.5 -82t19.5 -102q0 -56 -19.5 -104.5t-53.5 -84t-79.5 -56t-96.5 -20.5q-49 0 -92 18.5t-76.5 51t-54.5 76.5t-25 96h-108v-230h-42v500zM280 253q0 -48 16 -89t44 -71t65.5 -47
t79.5 -17t79.5 17t65.5 47t44 71t16 89q0 46 -16 86t-44 69.5t-65.5 46t-79.5 16.5t-79.5 -16.5t-65.5 -46t-44 -69.5t-16 -86z" />
    <glyph glyph-name="uni044F" unicode="&#x44f;" horiz-adv-x="479" 
d="M160 177q4 5 7.5 10.5t7.5 10.5t8 9v2q-23 3 -44.5 13.5t-39 28.5t-28 43.5t-10.5 57.5q0 37 13.5 65t37 46.5t56 27.5t70.5 9h154v-500h-42v202h-122l-140 -202h-53zM350 240v222h-110q-63 0 -98.5 -25.5t-35.5 -84.5q0 -54 37 -83t91 -29h116z" />
    <glyph glyph-name="uni0450" unicode="&#x450;" horiz-adv-x="549" 
d="M52 249q0 63 20 112t53.5 82.5t77.5 51t92 17.5q51 0 89 -18.5t63.5 -50t38.5 -73t13 -86.5q0 -6 -0.5 -13t-1.5 -14h-401q0 -54 17 -96.5t46.5 -72t68 -44.5t82.5 -15q42 0 83.5 16.5t71.5 46.5l23 -35q-33 -32 -81.5 -50.5t-96.5 -18.5q-53 0 -100 18.5t-82 52.5
t-55.5 82t-20.5 108zM455 296q-2 46 -15.5 79t-35.5 55t-50.5 32.5t-59.5 10.5q-35 0 -67 -11t-58.5 -33.5t-44.5 -55.5t-25 -77h356zM207 700h56l67 -111h-44z" />
    <glyph glyph-name="uni0451" unicode="&#x451;" horiz-adv-x="549" 
d="M52 249q0 63 20 112t53.5 82.5t77.5 51t92 17.5q51 0 89 -18.5t63.5 -50t38.5 -73t13 -86.5q0 -6 -0.5 -13t-1.5 -14h-401q0 -54 17 -96.5t46.5 -72t68 -44.5t82.5 -15q42 0 83.5 16.5t71.5 46.5l23 -35q-33 -32 -81.5 -50.5t-96.5 -18.5q-53 0 -100 18.5t-82 52.5
t-55.5 82t-20.5 108zM455 296q-2 46 -15.5 79t-35.5 55t-50.5 32.5t-59.5 10.5q-35 0 -67 -11t-58.5 -33.5t-44.5 -55.5t-25 -77h356zM334 700h46v-73h-46v73zM197 700h46v-73h-46v73z" />
    <glyph glyph-name="uni0452" unicode="&#x452;" horiz-adv-x="586" 
d="M87 576h-66v38h66v86h42v-86h238v-38h-238v-209q0 -9 -0.5 -16.5t-0.5 -12.5q-1 -6 -1 -12h2q6 18 22 41.5t42.5 44.5t62.5 35.5t83 14.5q49 0 80.5 -14t50.5 -39.5t26.5 -61.5t7.5 -80v-293q0 -62 -17.5 -99t-42.5 -56t-52.5 -24.5t-46.5 -5.5q-14 0 -18 1q-4 0 -7 1v39
q2 -1 6 -1q4 -1 16 -1q15 0 35.5 4.5t39.5 19.5t32 44t13 77v279q0 33 -3.5 63.5t-16 54t-37 37.5t-66.5 14q-35 0 -67.5 -12t-59.5 -33t-46.5 -50t-28.5 -64q-5 -16 -6.5 -33t-1.5 -35v-194h-42v576z" />
    <glyph glyph-name="uni0453" unicode="&#x453;" horiz-adv-x="396" 
d="M87 500h284v-38h-242v-462h-42v500zM257 700h56l-79 -111h-44z" />
    <glyph glyph-name="uni0454" unicode="&#x454;" horiz-adv-x="539" 
d="M52 249q0 60 21 108.5t56 83t82 53t99 18.5q45 0 78 -11t56 -25q26 -16 45 -35l-26 -34q-18 18 -41 32q-20 12 -48 22t-64 10q-41 0 -78 -14t-65.5 -39.5t-47 -61.5t-22.5 -81h275v-39h-276q2 -47 20 -85.5t47 -65.5t67 -41.5t80 -14.5t73 11t52 25q25 16 42 36l22 -35
q-20 -22 -48 -39q-24 -15 -59 -27t-82 -12q-53 0 -100 18.5t-82 52.5t-55.5 82t-20.5 108z" />
    <glyph glyph-name="uni0455" unicode="&#x455;" horiz-adv-x="430" 
d="M68 92q29 -30 70.5 -46.5t84.5 -16.5q23 0 44 6t36.5 18t25 29.5t9.5 40.5q0 32 -20.5 51.5t-51 34.5t-66 27.5t-66 30.5t-51 43.5t-20.5 66.5q0 33 13 58.5t35 42.5t51 25.5t61 8.5q39 0 79 -12.5t69 -41.5l-25 -34q-22 23 -56.5 35t-69.5 12q-21 0 -41.5 -5t-36.5 -16
t-25.5 -28.5t-9.5 -41.5q0 -33 20.5 -53t51 -34.5t66 -27.5t66 -30.5t51 -44t20.5 -67.5q0 -30 -12 -55t-33.5 -42.5t-51 -27.5t-63.5 -10q-48 0 -97 17t-84 55z" />
    <glyph glyph-name="uni0456" unicode="&#x456;" horiz-adv-x="216" 
d="M83 700h50v-73h-50v73zM87 500h42v-500h-42v500z" />
    <glyph glyph-name="uni0457" unicode="&#x457;" horiz-adv-x="216" 
d="M87 500h42v-500h-42v500zM154 700h46v-73h-46v73zM17 700h46v-73h-46v73z" />
    <glyph glyph-name="uni0458" unicode="&#x458;" horiz-adv-x="216" 
d="M83 700h50v-73h-50v73zM87 500h42v-520q0 -62 -17.5 -99t-42.5 -56t-52.5 -24.5t-46.5 -5.5q-6 0 -12 0.5t-13 1.5v39q6 -2 22 -2q15 0 35.5 4.5t39.5 19.5t32 44t13 77v521z" />
    <glyph glyph-name="uni0459" unicode="&#x459;" horiz-adv-x="705" 
d="M31 35q70 11 98 93t28 223v149h226v-200h115q29 0 59 -6.5t54.5 -23.5t40 -46t15.5 -75q0 -66 -42 -107.5t-129 -41.5h-155v461h-142v-110q0 -92 -10.5 -157t-31.5 -107.5t-52.5 -64t-73.5 -26.5v39zM496 39q68 0 97.5 30.5t29.5 79.5q0 51 -29.5 81.5t-95.5 30.5h-115
v-222h113z" />
    <glyph glyph-name="uni045A" unicode="&#x45a;" horiz-adv-x="779" 
d="M87 500h42v-206h287v206h42v-206h109q29 0 60 -6.5t56.5 -22.5t42 -43.5t16.5 -70.5q0 -66 -42 -108.5t-129 -42.5h-155v255h-287v-255h-42v500zM571 39q69 0 98 29.5t29 82.5q0 51 -32.5 77.5t-98.5 26.5h-109v-216h113z" />
    <glyph glyph-name="uni045B" unicode="&#x45b;" horiz-adv-x="586" 
d="M87 576h-66v38h66v86h42v-86h238v-38h-238v-209q0 -9 -0.5 -16.5t-0.5 -12.5q-1 -6 -1 -12h2q6 18 22 41.5t42.5 44.5t62.5 35.5t83 14.5q49 0 80.5 -14t50.5 -39.5t26.5 -61.5t7.5 -80v-267h-42v252q0 33 -3.5 63.5t-16 54t-37 37.5t-66.5 14q-35 0 -67.5 -12t-59.5 -33
t-46.5 -50t-28.5 -64q-5 -16 -6.5 -33t-1.5 -35v-194h-42v576z" />
    <glyph glyph-name="uni045C" unicode="&#x45c;" horiz-adv-x="471" 
d="M87 500h42v-221h87l164 221h53l-181 -238v-2l201 -260h-55l-182 240h-87v-240h-42v500zM281 700h56l-79 -111h-44z" />
    <glyph glyph-name="uni045D" unicode="&#x45d;" horiz-adv-x="584" 
d="M218 700h56l67 -111h-44zM87 500h42v-356q0 -13 -0.5 -27t-1.5 -26q-1 -14 -1 -28h2q9 15 20 29q8 12 18.5 26t18.5 26l273 356h39v-500h-42v357v27t1 25l2 26h-2q-10 -13 -20 -27q-9 -12 -19 -26t-18 -25l-273 -357h-39v500z" />
    <glyph glyph-name="uni045E" unicode="&#x45e;" horiz-adv-x="517" 
d="M41 -146q8 -7 18 -12q8 -5 19.5 -8.5t24.5 -3.5q18 0 32.5 7.5t26.5 20t21.5 28.5t17.5 34l36 83l-207 497h45l165 -399q4 -9 7.5 -17.5t5.5 -15.5q3 -8 5 -14h2q2 6 5 14q2 7 5 15.5t7 17.5l165 399h45l-257 -617q-17 -39 -48 -66t-79 -27q-18 0 -33 4.5t-26 9.5
q-12 6 -22 14zM259 573q-23 0 -44 7t-37.5 21t-26.5 34.5t-10 46.5v18h42v-15q0 -35 23 -53.5t53 -18.5q29 0 53 18.5t24 54.5v14h41v-18q0 -26 -10 -46.5t-26.5 -34.5t-38 -21t-43.5 -7z" />
    <glyph glyph-name="uni045F" unicode="&#x45f;" horiz-adv-x="550" 
d="M87 500h42v-461h292v461h42v-500h-167v-120h-42v120h-167v500z" />
    <glyph glyph-name="uni0462" unicode="&#x462;" horiz-adv-x="668" 
d="M206 540h-190v40h190v120h43v-120h203v-40h-203v-140h173q43 0 81 -13t66 -37.5t44 -61t16 -83.5q0 -48 -16.5 -86.5t-44.5 -64.5t-65.5 -40t-79.5 -14h-217v540zM419 40q35 0 65.5 10.5t52.5 31.5t34.5 52t12.5 71q0 37 -12.5 66t-35 48.5t-52.5 30t-65 10.5h-170v-320
h170z" />
    <glyph glyph-name="uni0463" unicode="&#x463;" horiz-adv-x="489" 
d="M123 462h-121v38h121v200h42v-200h170v-38h-170v-162h115q29 0 59 -6.5t54.5 -23.5t40 -46t15.5 -75q0 -66 -42 -107.5t-129 -41.5h-155v462zM278 39q68 0 97.5 30.5t29.5 79.5q0 51 -29.5 81.5t-95.5 30.5h-115v-222h113z" />
    <glyph glyph-name="uni0472" unicode="&#x472;" horiz-adv-x="826" 
d="M59 355q0 75 27 140.5t74.5 113.5t112.5 75.5t140 27.5t140 -27.5t112.5 -75.5t74.5 -113.5t27 -140.5q0 -77 -27 -144t-74.5 -116.5t-112.5 -78t-140 -28.5t-140 28.5t-112.5 78t-74.5 116.5t-27 144zM413 29q64 0 118.5 23.5t95.5 64.5t66 97t28 121h-617
q3 -65 28 -121t66 -97t96 -64.5t119 -23.5zM413 671q-64 0 -119 -22.5t-96 -62t-65.5 -94t-28.5 -117.5h617q-3 63 -28 117.5t-66 94t-95.5 62t-118.5 22.5z" />
    <glyph glyph-name="uni0473" unicode="&#x473;" horiz-adv-x="620" 
d="M51 253q0 55 20.5 102t55.5 82t82 55t101 20t101 -20t82 -55t55.5 -82t20.5 -102q0 -56 -20.5 -104.5t-55.5 -84t-82 -56t-101 -20.5t-101 20.5t-82 56t-55.5 84t-20.5 104.5zM310 29q42 0 79.5 15.5t66 42.5t47 64.5t21.5 81.5h-429q4 -44 22 -81.5t47 -64.5t66.5 -42.5
t79.5 -15.5zM310 471q-42 0 -80 -15t-66.5 -41.5t-47 -63t-21.5 -79.5h429q-3 43 -21 79.5t-47 63t-66.5 41.5t-79.5 15z" />
    <glyph glyph-name="uni0474" unicode="&#x474;" horiz-adv-x="680" 
d="M25 700h47l210 -566q5 -13 9.5 -27t8.5 -27q4 -15 9 -30h2q5 15 9 30q4 13 8.5 27t9.5 27l163 471q12 34 24.5 53t28.5 28.5t37.5 11.5t52.5 2h24v-41h-21h-36.5t-27 -5.5t-21 -19t-19.5 -41.5l-209 -593h-47z" />
    <glyph glyph-name="uni0475" unicode="&#x475;" horiz-adv-x="539" 
d="M31 500h45l154 -392q3 -9 6.5 -18.5t5.5 -17.5q3 -10 5 -18h2q2 8 5 18q2 8 5.5 17.5t6.5 18.5l107 305q17 50 44 68.5t79 18.5h21v-41h-21q-18 0 -31 -2t-22.5 -9t-17 -19t-14.5 -31l-143 -398h-40z" />
    <glyph glyph-name="uni048A" unicode="&#x48a;" horiz-adv-x="767" 
d="M107 700h43v-549q0 -14 -1 -28.5t-2 -28.5q-1 -16 -2 -31h2q11 16 22 33q9 14 19.5 30t19.5 28l395 546h40v-660h90v-33l-60 -147h-40l49 140h-82v549q0 13 0.5 28t1.5 29q1 16 3 31h-2q-9 -16 -20 -32q-9 -14 -19.5 -29t-18.5 -27l-398 -549h-40v700zM377 734
q-23 0 -44 7t-37.5 21t-26.5 34.5t-10 46.5v18h42v-15q0 -35 23 -53.5t53 -18.5q29 0 53 18.5t24 54.5v14h41v-18q0 -26 -10 -46.5t-26.5 -34.5t-38 -21t-43.5 -7z" />
    <glyph glyph-name="uni048B" unicode="&#x48b;" horiz-adv-x="599" 
d="M87 500h42v-356q0 -13 -0.5 -27t-1.5 -26q-1 -14 -1 -28h2q9 15 20 29q8 12 18.5 26t18.5 26l273 356h39v-462h70v-33l-51 -125h-38l42 120h-65v357v27t1 25l2 26h-2q-10 -13 -20 -27q-9 -12 -19 -26t-18 -25l-273 -357h-39v500zM295 573q-23 0 -44 7t-37.5 21
t-26.5 34.5t-10 46.5v18h42v-15q0 -35 23 -53.5t53 -18.5q29 0 53 18.5t24 54.5v14h41v-18q0 -26 -10 -46.5t-26.5 -34.5t-38 -21t-43.5 -7z" />
    <glyph glyph-name="uni048C" unicode="&#x48c;" horiz-adv-x="649" 
d="M178 586h-164v40h164v124h43v-124h170v-40h-170v-176h183q43 0 81 -13.5t66 -40t44 -64.5t16 -87q0 -48 -16.5 -86.5t-44.5 -64.5t-65.5 -40t-79.5 -14h-227v586zM401 40q35 0 65.5 10.5t52.5 31.5t34.5 52t12.5 71q0 39 -12.5 70t-35 52t-52.5 32t-65 11h-180v-330h180z
" />
    <glyph glyph-name="uni048D" unicode="&#x48d;" horiz-adv-x="499" 
d="M133 462h-121v38h121v200h42v-200h170v-38h-170v-162h115q29 0 59 -6.5t54.5 -23.5t40 -46t15.5 -75q0 -66 -42 -107.5t-129 -41.5h-155v462zM288 39q68 0 97.5 30.5t29.5 79.5q0 51 -29.5 81.5t-95.5 30.5h-115v-222h113z" />
    <glyph glyph-name="uni048E" unicode="&#x48e;" horiz-adv-x="609" 
d="M107 700h230q46 0 85 -14t67.5 -40.5t44.5 -64t16 -85.5q0 -51 -18.5 -91t-50.5 -67l63 -90l-32 -23l-63 91q-49 -26 -112 -26h-187v-290h-43v700zM386 477l72 -104q47 44 47 123t-46.5 121.5t-123.5 42.5h-185v-330h185q26 0 48.5 4.5t41.5 15.5l-71 104z" />
    <glyph glyph-name="uni048F" unicode="&#x48f;" horiz-adv-x="588" 
d="M87 500h42v-60q0 -9 -0.5 -16.5t-1.5 -12.5q-1 -6 -1 -11h2q13 31 38 56q21 21 55 38.5t87 17.5q50 0 90 -19t68 -53.5t43 -83t15 -106.5q0 -60 -17 -108.5t-46 -82.5l57 -69l-30 -26l-56 67q-55 -43 -130 -43q-49 0 -82.5 17.5t-53.5 38.5q-25 25 -39 57h-2q1 -5 2 -12
q1 -6 1.5 -14t0.5 -18v-257h-42v700zM363 176l69 -83q23 28 35.5 67t12.5 90t-13 91.5t-36 69.5t-55 44.5t-70 15.5q-35 0 -67 -12.5t-56.5 -39.5t-39.5 -69t-15 -101q0 -42 11.5 -81.5t33.5 -70t54.5 -49.5t74.5 -19q58 0 102 35l-71 86z" />
    <glyph glyph-name="uni0490" unicode="&#x490;" horiz-adv-x="477" 
d="M107 700h312v80h42v-120h-311v-660h-43v700z" />
    <glyph glyph-name="uni0491" unicode="&#x491;" horiz-adv-x="386" 
d="M87 500h234v70h40v-108h-232v-462h-42v500z" />
    <glyph glyph-name="uni0492" unicode="&#x492;" horiz-adv-x="488" 
d="M113 328h-65v40h65v332h353v-40h-310v-292h163v-40h-163v-328h-43v328z" />
    <glyph glyph-name="uni0493" unicode="&#x493;" horiz-adv-x="400" 
d="M87 231h-64v38h64v231h284v-38h-242v-193h135v-38h-135v-231h-42v231z" />
    <glyph glyph-name="uni0494" unicode="&#x494;" horiz-adv-x="582" 
d="M107 700h353v-40h-310v-282q10 6 26.5 12.5t37 12.5t43.5 10t44 4q40 0 80.5 -8.5t73.5 -37.5t53.5 -84t20.5 -148q0 -86 -18.5 -144.5t-50 -95.5t-73 -53t-86.5 -16v39q33 0 66 11.5t59.5 42t43 83t16.5 133.5q0 68 -12 113.5t-35.5 73.5t-58 39.5t-79.5 11.5
q-50 0 -90 -14t-61 -25v-338h-43v700z" />
    <glyph glyph-name="uni0495" unicode="&#x495;" horiz-adv-x="473" 
d="M87 500h283v-39h-241v-214q29 15 61.5 24t63.5 9q54 0 88.5 -19.5t54 -50t27 -67.5t7.5 -73q0 -56 -11.5 -99.5t-31 -76.5t-44 -57t-49.5 -42l-23 34q25 16 46 38.5t37 51.5t25 66.5t9 84.5q0 33 -6.5 63.5t-22 54t-41.5 37.5t-65 14q-45 0 -77 -12.5t-48 -22.5v-204h-42
v500z" />
    <glyph glyph-name="uni0496" unicode="&#x496;" horiz-adv-x="863" 
d="M241 368v2l-201 330h50l188 -312h110v312h43v-312h110l188 312h50l-201 -330v-2l191 -328h81v-180h-42v140h-65l-202 348h-110v-348h-43v348h-110l-202 -348h-50z" />
    <glyph glyph-name="uni0497" unicode="&#x497;" horiz-adv-x="724" 
d="M199 255v2l-159 243h49l146 -224h90v224h42v-224h90l146 224h49l-159 -243v-2l149 -216h62v-159h-42v120h-46l-161 237h-88v-237h-42v237h-88l-161 -237h-53z" />
    <glyph glyph-name="uni0498" unicode="&#x498;" horiz-adv-x="532" 
d="M65 108q29 -33 76 -55.5t100 -22.5q39 0 73 11.5t58.5 32.5t39 51.5t14.5 68.5q0 36 -13.5 64.5t-36 47.5t-52.5 29t-64 10h-89v40h71q31 0 60 10.5t51 29t35 45.5t13 60q0 28 -8.5 53t-27.5 44.5t-48 31t-71 11.5q-41 0 -82.5 -12.5t-82.5 -47.5l-24 37q27 22 53.5 34.5
t51 19.5t46 9t38.5 2q50 0 87.5 -13.5t62.5 -37t37.5 -56.5t12.5 -72q0 -33 -9.5 -59t-25 -45.5t-35 -33t-39.5 -22.5v-2q60 -15 97 -60.5t37 -116.5q0 -44 -15.5 -80t-43 -62.5t-65 -42.5t-81.5 -20v-129h-42v129q-54 3 -105 25t-83 60z" />
    <glyph glyph-name="uni0499" unicode="&#x499;" horiz-adv-x="433" 
d="M62 92q6 -7 18 -18t29.5 -21t40 -17.5t50.5 -7.5q24 0 48.5 6.5t44 20t31.5 34.5t12 50q0 49 -36 75t-103 26h-60v39h54q59 0 92.5 24t33.5 72q0 50 -33 73t-83 23q-42 0 -72 -13.5t-51 -33.5l-25 34q24 21 62 37.5t90 16.5q33 0 62 -8t50 -24.5t33 -41.5t12 -59
q0 -48 -23 -75t-58 -40v-2q45 -10 72 -40.5t27 -81.5q0 -34 -12 -60t-32.5 -45t-47.5 -30t-57 -15v-110h-42v108q-56 3 -93.5 25.5t-60.5 46.5z" />
    <glyph glyph-name="uni049A" unicode="&#x49a;" horiz-adv-x="616" 
d="M107 700h43v-312h130l200 312h52l-215 -330v-2l204 -328h82v-180h-42v140h-67l-214 348h-130v-348h-43v700z" />
    <glyph glyph-name="uni049B" unicode="&#x49b;" horiz-adv-x="501" 
d="M87 500h42v-221h87l164 221h53l-181 -238v-2l171 -221h60v-159h-42v120h-43l-182 240h-87v-240h-42v500z" />
    <glyph glyph-name="uni049C" unicode="&#x49c;" horiz-adv-x="629" 
d="M107 700h43v-312h86v130h41v-130h61l200 312h52l-215 -330v-2l229 -368h-52l-214 348h-61v-130h-41v130h-86v-348h-43v700z" />
    <glyph glyph-name="uni049D" unicode="&#x49d;" horiz-adv-x="531" 
d="M87 500h42v-221h70v109h39v-109h38l164 221h53l-181 -238v-2l201 -260h-55l-182 240h-38v-111h-39v111h-70v-240h-42v500z" />
    <glyph glyph-name="uni049E" unicode="&#x49e;" horiz-adv-x="576" 
d="M6 573h106v127h43v-127h112v-40h-112v-145h130l200 312h52l-215 -330v-2l229 -368h-52l-214 348h-130v-348h-43v533h-106v40z" />
    <glyph glyph-name="uni049F" unicode="&#x49f;" horiz-adv-x="472" 
d="M87 530h-63v38h63v132h42v-132h136v-38h-136v-227h89l162 197h55l-181 -215v-2l198 -283h-53l-181 264h-89v-264h-42v530z" />
    <glyph glyph-name="uni04A0" unicode="&#x4a0;" horiz-adv-x="714" 
d="M250 660h-231v40h274v-312h130l200 312h52l-215 -330v-2l229 -368h-52l-214 348h-130v-348h-43v660z" />
    <glyph glyph-name="uni04A1" unicode="&#x4a1;" horiz-adv-x="538" 
d="M154 462h-141v38h183v-221h87l164 221h53l-181 -238v-2l201 -260h-55l-182 240h-87v-240h-42v462z" />
    <glyph glyph-name="uni04A2" unicode="&#x4a2;" horiz-adv-x="765" 
d="M107 700h43v-329h444v329h43v-660h86v-180h-42v140h-87v331h-444v-331h-43v700z" />
    <glyph glyph-name="uni04A3" unicode="&#x4a3;" horiz-adv-x="601" 
d="M87 500h42v-223h327v223h42v-461h75v-159h-42v120h-75v238h-327v-238h-42v500z" />
    <glyph glyph-name="uni04A4" unicode="&#x4a4;" horiz-adv-x="913" 
d="M107 700h43v-329h394v329h353v-40h-310v-660h-43v331h-394v-331h-43v700z" />
    <glyph glyph-name="uni04A5" unicode="&#x4a5;" horiz-adv-x="705" 
d="M87 500h42v-223h287v223h264v-38h-222v-462h-42v238h-287v-238h-42v500z" />
    <glyph glyph-name="uni04A6" unicode="&#x4a6;" horiz-adv-x="991" 
d="M107 700h457v-312q10 6 26.5 12.5t37 12.5t43.5 10t44 4q40 0 80.5 -9t73.5 -39t53.5 -87t20.5 -153q0 -86 -18.5 -144.5t-50 -95.5t-73 -53t-86.5 -16v39q33 0 66 11.5t59.5 42t43 83t16.5 133.5q0 71 -12 118.5t-35.5 76.5t-58 41t-79.5 12q-50 0 -90 -14.5t-61 -24.5
v-348h-43v660h-371v-660h-43v700z" />
    <glyph glyph-name="uni04A7" unicode="&#x4a7;" horiz-adv-x="781" 
d="M87 500h341v-233q29 15 61.5 24t63.5 9q57 0 93.5 -20.5t57 -52t28.5 -71t8 -76.5q0 -58 -11.5 -102.5t-31 -79t-44 -60t-49.5 -43.5l-23 34q25 17 46 40t37 54t25 69.5t9 87.5q0 35 -7 67.5t-23.5 57t-44.5 39.5t-70 15q-45 0 -77 -12.5t-48 -22.5v-224h-42v461h-257
v-461h-42v500z" />
    <glyph glyph-name="uni04A8" unicode="&#x4a8;" horiz-adv-x="929" 
d="M61 358q0 80 25.5 142t65.5 106t90 70.5t99 35.5v-41q-42 -10 -84 -34t-75.5 -63t-54.5 -92.5t-21 -123.5q0 -68 20 -127.5t57.5 -104t92 -70.5t123.5 -26q41 0 81 8.5t79 24.5q-91 54 -141.5 142t-50.5 200q0 79 24.5 135t62 91.5t82 52t84.5 16.5q46 0 90 -16.5
t78.5 -51.5t55.5 -91.5t21 -135.5q0 -54 -16 -103t-44.5 -92.5t-67 -80t-83.5 -64.5q36 -12 76.5 -18.5t85.5 -6.5h39v-40h-39q-118 0 -208 39q-51 -25 -103.5 -38t-104.5 -13q-77 0 -139.5 26.5t-107 75t-68.5 117t-24 151.5zM412 405q0 -50 12.5 -97.5t37 -89t60.5 -75.5
t84 -58q45 25 84 59t68 75t45.5 88t16.5 98q0 72 -18 120.5t-46.5 78.5t-64 42.5t-71.5 12.5q-32 0 -68.5 -14t-67.5 -45t-51.5 -79t-20.5 -116z" />
    <glyph glyph-name="uni04A9" unicode="&#x4a9;" horiz-adv-x="756" 
d="M53 255q0 55 17.5 98.5t44.5 75.5t60 52.5t65 30.5l13 -38q-25 -8 -52.5 -25t-50.5 -44t-38 -64.5t-15 -85.5q0 -47 13.5 -88t41.5 -72t71.5 -48.5t104.5 -17.5q66 0 128 24q-68 38 -111 102t-43 150q0 42 15.5 79.5t42.5 66t64 45t80 16.5q42 0 78 -14.5t61.5 -41
t40 -65t14.5 -86.5q0 -78 -42 -142t-108 -107q51 -15 108 -15h42v-41h-42q-82 0 -154 30q-42 -20 -86 -31t-88 -11q-73 0 -125 21.5t-85.5 58.5t-49 85.5t-15.5 101.5zM346 305q0 -78 43.5 -138t112.5 -93q33 18 60.5 42t48 53t32 63.5t11.5 72.5q0 40 -11.5 71t-31.5 52
t-47.5 32t-59.5 11q-31 0 -59.5 -12t-50.5 -34t-35 -52.5t-13 -67.5z" />
    <glyph glyph-name="uni04AA" unicode="&#x4aa;" horiz-adv-x="720" 
d="M61 355q0 76 25.5 141.5t71.5 113.5t110 75t140 27q66 0 133 -20.5t117 -67.5l-26 -32q-43 38 -103 58.5t-120 20.5q-67 0 -122.5 -24t-95.5 -66t-62.5 -100t-22.5 -126t22 -127.5t62.5 -103.5t97 -69.5t124.5 -25.5q65 0 127 24t110 71l27 -30q-41 -40 -101.5 -71
t-144.5 -34v-129h-42v129q-74 4 -134.5 34.5t-103 80t-66 114t-23.5 137.5z" />
    <glyph glyph-name="uni04AB" unicode="&#x4ab;" horiz-adv-x="542" 
d="M53 249q0 60 21 108.5t56 83t82 53t99 18.5q48 0 97 -17.5t82 -53.5l-26 -34q-27 29 -68 46.5t-85 17.5t-83 -15.5t-68 -44.5t-46 -70t-17 -92q0 -50 17 -90.5t46 -69.5t68 -44.5t83 -15.5q46 0 91 18.5t76 53.5l22 -35q-30 -34 -77 -55t-100 -23v-108h-42v110
q-48 5 -89.5 25t-72.5 53.5t-48.5 79t-17.5 101.5z" />
    <glyph glyph-name="uni04AC" unicode="&#x4ac;" horiz-adv-x="600" 
d="M277 660h-261v40h565v-40h-261v-620h86v-180h-42v140h-87v660z" />
    <glyph glyph-name="uni04AD" unicode="&#x4ad;" horiz-adv-x="475" 
d="M215 461h-190v39h422v-39h-190v-422h75v-159h-42v120h-75v461z" />
    <glyph glyph-name="uni04AE" unicode="&#x4ae;" horiz-adv-x="555" 
d="M256 304l-238 396h49l166 -276q8 -13 15.5 -27t13.5 -25q7 -14 14 -27h2q7 13 14 27q6 11 13.5 25t15.5 27l166 276h49l-237 -396v-304h-43v304z" />
    <glyph glyph-name="uni04AF" unicode="&#x4af;" horiz-adv-x="498" 
d="M30 500h45l154 -359q4 -10 8 -18.5t6 -16.5q3 -9 5 -16h2q2 7 5 16q4 13 14 35l154 359h44l-198 -461v-239h-40v239z" />
    <glyph glyph-name="uni04B0" unicode="&#x4b0;" horiz-adv-x="555" 
d="M121 304h135l-238 396h49l166 -276q8 -13 15.5 -27t13.5 -25q7 -14 14 -27h2q7 13 14 27q6 11 13.5 25t15.5 27l166 276h49l-237 -396h130v-39h-130v-265h-43v265h-135v39z" />
    <glyph glyph-name="uni04B1" unicode="&#x4b1;" horiz-adv-x="497" 
d="M115 39h114l-197 461h45l152 -359q4 -10 8 -18.5t6 -16.5q3 -9 5 -16h2q2 7 5 16q4 13 14 35l152 359h44l-196 -461h114v-39h-114v-200h-40v200h-114v39z" />
    <glyph glyph-name="uni04B2" unicode="&#x4b2;" horiz-adv-x="601" 
d="M247 370l-201 330h52l134 -223q8 -13 15.5 -27t14.5 -25l16 -26h2l14 26q6 11 13.5 25t15.5 27l135 223h52l-203 -330l202 -330h81v-180h-42v140h-65l-162 266l-45 75h-2q-6 -12 -13 -25q-6 -11 -13.5 -24.5t-15.5 -26.5l-160 -265h-51z" />
    <glyph glyph-name="uni04B3" unicode="&#x4b3;" horiz-adv-x="493" 
d="M202 264l-161 236h51l121 -182l6 -10t5 -9q3 -4 6 -9h2q2 5 5 9q2 4 5.5 9t6.5 10l121 182h51l-161 -236l153 -225h60v-159h-42v120h-43l-138 207q-7 9 -12 20q-3 4 -6 9h-2q-2 -5 -5 -9q-2 -4 -5.5 -9.5t-7.5 -10.5l-138 -207h-52z" />
    <glyph glyph-name="uni04B4" unicode="&#x4b4;" horiz-adv-x="881" 
d="M250 660h-231v40h505v-40h-231v-620h417v660h43v-660h86v-180h-42v140h-547v660z" />
    <glyph glyph-name="uni04B5" unicode="&#x4b5;" horiz-adv-x="708" 
d="M211 461h-186v39h414v-39h-186v-422h311v461h42v-461h70v-159h-42v120h-423v461z" />
    <glyph glyph-name="uni04B6" unicode="&#x4b6;" horiz-adv-x="621" 
d="M266 283q-108 0 -157 50t-49 143v224h43v-217q0 -78 37.5 -118.5t125.5 -40.5q28 0 56 6t52 15t44 19t32 19v317h43v-660h86v-180h-42v140h-87v305v11t1 11q0 5 1 11h-2q-14 -8 -34 -17.5t-44.5 -18t-51.5 -14t-54 -5.5z" />
    <glyph glyph-name="uni04B7" unicode="&#x4b7;" horiz-adv-x="505" 
d="M218 190q-47 0 -79 11.5t-51.5 32.5t-28 49.5t-8.5 61.5v155h42v-155q0 -20 4 -40.5t17 -37t37.5 -26.5t66.5 -10q46 0 83 16t54 29v224h42v-461h83v-159h-42v120h-83v199v12t1 11q0 5 1 11h-2q-13 -9 -30.5 -17t-36 -13.5t-37 -9t-33.5 -3.5z" />
    <glyph glyph-name="uni04B8" unicode="&#x4b8;" horiz-adv-x="599" 
d="M260 283q-106 1 -153.5 51t-47.5 142v224h43v-217q0 -78 36.5 -118t121.5 -41v146h41v-144q48 7 87.5 24.5t60.5 32.5v317h43v-700h-43v305v11t1 11q0 5 1 11h-2q-23 -14 -63 -30t-85 -23v-115h-41v113z" />
    <glyph glyph-name="uni04B9" unicode="&#x4b9;" horiz-adv-x="484" 
d="M214 190q-46 0 -77 12t-50 33t-27.5 49t-8.5 61v155h42v-155q0 -20 4 -40.5t16.5 -36.5t36.5 -26.5t64 -10.5v127h39v-124q35 5 61.5 18t40.5 24v224h42v-500h-42v199v12t1 11q0 5 1 11h-2q-20 -14 -47.5 -24.5t-54.5 -15.5v-84h-39v81z" />
    <glyph glyph-name="uni04BA" unicode="&#x4ba;" horiz-adv-x="605" 
d="M107 700h43v-261q0 -5 -0.5 -11t-0.5 -11q-1 -6 -1 -11h2q13 7 33.5 16.5t47 18t57 14t63.5 5.5q98 0 143.5 -50t45.5 -143v-267h-43v260q0 78 -34 118.5t-112 40.5q-33 0 -64 -6t-57 -15.5t-47 -20t-33 -19.5v-358h-43v700z" />
    <glyph glyph-name="uni04BB" unicode="&#x4bb;" horiz-adv-x="586" 
d="M87 700h42v-288q0 -9 -0.5 -16.5t-1.5 -12.5l-2 -12h2q6 18 22.5 42t43 46t63 37.5t83.5 15.5q49 0 80.5 -14t50.5 -39.5t26.5 -61.5t7.5 -80v-317h-42v302q0 33 -3.5 63.5t-16 54t-37 37.5t-66.5 14q-43 0 -81 -16.5t-66.5 -46.5t-45.5 -71.5t-17 -90.5v-246h-42v700z
" />
    <glyph glyph-name="uni04BC" unicode="&#x4bc;" horiz-adv-x="846" 
d="M50 505q0 20 1.5 40.5t4.5 36.5l9 45h44l-9 -45q-4 -19 -5.5 -35.5t-1.5 -41.5q0 -41 21.5 -69.5t65.5 -28.5h15q8 63 33 118.5t65 97t94.5 65.5t121.5 24q60 0 110 -20.5t86.5 -60.5t57 -99t20.5 -137v-28h-547q-3 -84 20.5 -147t64 -105.5t92.5 -64t106 -21.5t98 14
t75 31q36 20 64 46l24 -37q-28 -27 -67 -48q-33 -18 -82 -32.5t-113 -14.5q-71 0 -130.5 25.5t-103.5 72t-68.5 112.5t-24.5 147v22h-12q-63 0 -96 39t-33 99zM737 407q0 49 -13 96.5t-40.5 85t-71 60t-103.5 22.5q-56 0 -102 -20.5t-80.5 -56.5t-56.5 -84t-30 -103h497z
" />
    <glyph glyph-name="uni04BD" unicode="&#x4bd;" horiz-adv-x="652" 
d="M45 376q0 16 4.5 40t9.5 39h42q-7 -16 -11 -38.5t-4 -37.5q0 -44 15.5 -63t46.5 -19h10q7 52 29.5 92t54.5 67.5t72 41.5t84 14q51 0 89 -18.5t63.5 -50t38.5 -73t13 -86.5q0 -5 -0.5 -9.5t-0.5 -8.5q-1 -4 -1 -9h-401q0 -54 17 -96.5t46.5 -72t68 -44.5t82.5 -15
q36 0 64.5 9.5t48.5 21.5q24 14 42 32l23 -35q-22 -20 -49 -35q-23 -13 -55.5 -23.5t-73.5 -10.5q-53 0 -100 18.5t-82 52.5t-55.5 82t-20.5 108v8h-9q-49 0 -75 29t-26 90zM558 296q-2 46 -15.5 79t-35.5 55t-50.5 32.5t-59.5 10.5q-35 0 -67 -11t-58.5 -33.5t-44.5 -55.5
t-25 -77h356z" />
    <glyph glyph-name="uni04BE" unicode="&#x4be;" horiz-adv-x="846" 
d="M50 505q0 20 1.5 40.5t4.5 36.5l9 45h44l-9 -45q-4 -19 -5.5 -35.5t-1.5 -41.5q0 -41 21.5 -69.5t65.5 -28.5h15q8 63 33 118.5t65 97t94.5 65.5t121.5 24q60 0 110 -20.5t86.5 -60.5t57 -99t20.5 -137v-28h-547q-3 -84 20.5 -147t64 -105.5t92.5 -64t106 -21.5t98 14
t75 31q36 20 64 46l24 -37q-27 -26 -64 -46q-32 -17 -78 -32t-107 -17v-128h-42v129q-65 5 -119.5 32t-94.5 73.5t-62 110t-22 140.5v22h-12q-63 0 -96 39t-33 99zM737 407q0 49 -13 96.5t-40.5 85t-71 60t-103.5 22.5q-56 0 -102 -20.5t-80.5 -56.5t-56.5 -84t-30 -103h497
z" />
    <glyph glyph-name="uni04BF" unicode="&#x4bf;" horiz-adv-x="653" 
d="M46 376q0 16 4.5 40t9.5 39h42q-7 -16 -11 -38.5t-4 -37.5q0 -44 15.5 -63t46.5 -19h10q7 52 29.5 92t54.5 67.5t72 41.5t84 14q51 0 89 -18.5t63.5 -50t38.5 -73t13 -86.5q0 -5 -0.5 -9.5t-0.5 -8.5q-1 -4 -1 -9h-401q0 -54 17 -96.5t46.5 -72t68 -44.5t82.5 -15
q36 0 64.5 9.5t48.5 21.5q24 14 42 32l23 -35q-22 -20 -49 -35q-23 -13 -55.5 -23.5t-73.5 -10.5h-2v-108h-42v112q-45 7 -84.5 28t-68 54t-45 77.5t-16.5 97.5v8h-9q-49 0 -75 29t-26 90zM559 296q-2 46 -15.5 79t-35.5 55t-50.5 32.5t-59.5 10.5q-35 0 -67 -11
t-58.5 -33.5t-44.5 -55.5t-25 -77h356z" />
    <glyph glyph-name="uni04C0" unicode="&#x4c0;" horiz-adv-x="257" 
d="M107 700h43v-700h-43v700z" />
    <glyph glyph-name="uni04C1" unicode="&#x4c1;" horiz-adv-x="819" 
d="M241 368v2l-201 330h50l188 -312h110v312h43v-312h110l188 312h50l-201 -330v-2l215 -368h-50l-202 348h-110v-348h-43v348h-110l-202 -348h-50zM409 734q-23 0 -44 7t-37.5 21t-26.5 34.5t-10 46.5v18h42v-15q0 -35 23 -53.5t53 -18.5q29 0 53 18.5t24 54.5v14h41v-18
q0 -26 -10 -46.5t-26.5 -34.5t-38 -21t-43.5 -7z" />
    <glyph glyph-name="uni04C2" unicode="&#x4c2;" horiz-adv-x="692" 
d="M199 255v2l-159 243h49l146 -224h90v224h42v-224h90l146 224h49l-159 -243v-2l176 -255h-53l-161 237h-88v-237h-42v237h-88l-161 -237h-53zM346 573q-23 0 -44 7t-37.5 21t-26.5 34.5t-10 46.5v18h42v-15q0 -35 23 -53.5t53 -18.5q29 0 53 18.5t24 54.5v14h41v-18
q0 -26 -10 -46.5t-26.5 -34.5t-38 -21t-43.5 -7z" />
    <glyph glyph-name="uni04C3" unicode="&#x4c3;" horiz-adv-x="596" 
d="M107 700h43v-312h130l200 312h52l-207 -323q73 -17 116 -51t65 -72.5t28 -75.5t6 -61q0 -74 -18.5 -128t-50 -89t-73 -52.5t-86.5 -17.5v39q33 0 66 12t59.5 41t43 76.5t16.5 118.5q0 66 -22.5 110.5t-60.5 71t-87 38t-101 11.5h-76v-348h-43v700z" />
    <glyph glyph-name="uni04C4" unicode="&#x4c4;" horiz-adv-x="482" 
d="M87 500h42v-223h85l166 223h53l-173 -227v-2q59 -15 93.5 -43t52 -60.5t22 -66t4.5 -58.5q0 -50 -12.5 -89.5t-32 -70t-44.5 -52t-50 -36.5l-22 36q49 26 83 77.5t34 134.5q0 53 -15.5 90t-43.5 60.5t-66.5 34t-83.5 10.5h-50v-238h-42v500z" />
    <glyph glyph-name="uni04C5" unicode="&#x4c5;" horiz-adv-x="669" 
d="M9 34q54 7 88 50t53 115t26 169t7 213v119h362v-660h90v-33l-60 -147h-40l49 140h-82v660h-277v-79q0 -123 -7 -228t-29.5 -183t-65.5 -124.5t-114 -53.5v42v0z" />
    <glyph glyph-name="uni04C6" unicode="&#x4c6;" horiz-adv-x="528" 
d="M20 35q70 11 98 93t28 223v149h280v-462h70v-33l-51 -125h-38l42 120h-65v461h-196v-110q0 -92 -10.5 -157t-31.5 -107.5t-52.5 -64t-73.5 -26.5v39z" />
    <glyph glyph-name="uni04C7" unicode="&#x4c7;" horiz-adv-x="744" 
d="M107 700h43v-329h444v329h43v-685q0 -62 -18 -99t-43.5 -56t-53.5 -24.5t-47 -5.5v39q15 0 35.5 4.5t39 19.5t31.5 44t13 77v317h-444v-331h-43v700z" />
    <glyph glyph-name="uni04C8" unicode="&#x4c8;" horiz-adv-x="586" 
d="M87 500h42v-223h327v223h43v-467q0 -55 -12.5 -94t-32 -66.5t-44.5 -45.5t-50 -32l-22 36q25 12 46.5 28.5t37.5 41t25 57t9 75.5v205h-327v-238h-42v500z" />
    <glyph glyph-name="uni04C9" unicode="&#x4c9;" horiz-adv-x="761" 
d="M107 700h43v-329h444v329h43v-660h90v-33l-60 -147h-40l49 140h-82v331h-444v-331h-43v700z" />
    <glyph glyph-name="uni04CA" unicode="&#x4ca;" horiz-adv-x="600" 
d="M87 500h42v-223h327v223h42v-462h70v-33l-51 -125h-38l42 120h-65v238h-327v-238h-42v500z" />
    <glyph glyph-name="uni04CB" unicode="&#x4cb;" horiz-adv-x="600" 
d="M266 283q-108 0 -157 50t-49 143v224h43v-217q0 -78 37.5 -118.5t125.5 -40.5q28 0 56 6t52 15t44 19t32 19v317h43v-700h-87v-140h-42v180h86v265v11t1 11q0 5 1 11h-2q-14 -8 -34 -17.5t-44.5 -18t-51.5 -14t-54 -5.5z" />
    <glyph glyph-name="uni04CC" unicode="&#x4cc;" horiz-adv-x="492" 
d="M363 39v159v12t1 11q0 5 1 11h-2q-14 -9 -34 -16.5t-41 -13.5t-41.5 -9t-35.5 -3q-45 0 -75.5 12t-49 33t-27 49t-8.5 61v155h42v-155q0 -20 4 -40.5t16.5 -37t36 -26.5t61.5 -10q24 0 47.5 4.5t43.5 11.5t36 15t25 14v224h42v-500h-75v-120h-42v159h75z" />
    <glyph glyph-name="uni04CD" unicode="&#x4cd;" horiz-adv-x="851" 
d="M136 700h42l204 -440q6 -13 12 -27t11 -25q5 -14 11 -27h2q5 13 11 27q5 11 11 25t12 27l204 440h42l53 -660h88v-33l-60 -147h-40l49 140h-77l-43 534q-2 13 -2.5 29t-0.5 30v34h-2l-12 -34q-5 -14 -11.5 -30t-12.5 -29l-188 -399h-44l-187 399q-6 12 -12.5 28.5
t-11.5 31.5q-6 18 -13 35h-2v-35q0 -15 -1 -31t-2 -29l-43 -534h-43z" />
    <glyph glyph-name="uni04CE" unicode="&#x4ce;" horiz-adv-x="720" 
d="M108 500h40l169 -331q6 -12 12 -25t11 -24q5 -12 11 -24h2q6 12 11 24q5 11 10.5 23.5t12.5 25.5l170 331h40l37 -462h68v-33l-51 -125h-38l42 120h-60l-28 347q-1 9 -1 23.5v28.5v34h-2q-4 -9 -8 -20q-4 -10 -10.5 -22.5t-14.5 -29.5l-157 -306h-43l-157 304
q-8 15 -13.5 28t-10.5 24t-9 22h-2v-34v-28.5t-1 -23.5l-28 -347h-42z" />
    <glyph glyph-name="uni04CF" unicode="&#x4cf;" horiz-adv-x="216" 
d="M87 700h42v-700h-42v700z" />
    <glyph glyph-name="uni04D0" unicode="&#x4d0;" horiz-adv-x="624" 
d="M289 700h46l262 -700h-46l-91 242h-297l-90 -242h-46zM445 282l-106 284q-5 11 -9 25.5t-8 27.5q-4 15 -9 31h-2q-5 -16 -9 -31q-4 -13 -8.5 -27.5t-8.5 -25.5l-107 -284h267zM312 734q-23 0 -44 7t-37.5 21t-26.5 34.5t-10 46.5v18h42v-15q0 -35 23 -53.5t53 -18.5
q29 0 53 18.5t24 54.5v14h41v-18q0 -26 -10 -46.5t-26.5 -34.5t-38 -21t-43.5 -7z" />
    <glyph glyph-name="uni04D1" unicode="&#x4d1;" horiz-adv-x="509" 
d="M42 133q0 42 17 71.5t44 48.5t61 29.5t68.5 15.5t66 6t53.5 1h33v17q0 42 -10 70.5t-28.5 46t-43.5 25t-55 7.5q-38 0 -75 -12.5t-68 -35.5l-24 34q29 26 75 40.5t94 14.5q87 0 132 -47.5t45 -141.5v-323h-42v66q0 10 0.5 18.5t1.5 14.5q1 7 2 12h-2q-9 -24 -25.5 -46.5
t-39 -39.5t-50 -27t-60.5 -10q-30 0 -60.5 8.5t-55 26.5t-39.5 45t-15 65zM86 136q0 -20 8 -39.5t24 -35t40 -25t56 -9.5q41 0 73 19t53.5 49.5t33 68.5t11.5 75v27h-32q-21 0 -49 -0.5t-58 -4t-58.5 -11.5t-51 -22.5t-36.5 -37t-14 -54.5zM259 573q-23 0 -44 7t-37.5 21
t-26.5 34.5t-10 46.5v18h42v-15q0 -35 23 -53.5t53 -18.5q29 0 53 18.5t24 54.5v14h41v-18q0 -26 -10 -46.5t-26.5 -34.5t-38 -21t-43.5 -7z" />
    <glyph glyph-name="uni04D2" unicode="&#x4d2;" horiz-adv-x="624" 
d="M289 700h46l262 -700h-46l-91 242h-297l-90 -242h-46zM445 282l-106 284q-5 11 -9 25.5t-8 27.5q-4 15 -9 31h-2q-5 -16 -9 -31q-4 -13 -8.5 -27.5t-8.5 -25.5l-107 -284h267zM358 861h46v-73h-46v73zM221 861h46v-73h-46v73z" />
    <glyph glyph-name="uni04D3" unicode="&#x4d3;" horiz-adv-x="509" 
d="M42 133q0 42 17 71.5t44 48.5t61 29.5t68.5 15.5t66 6t53.5 1h33v17q0 42 -10 70.5t-28.5 46t-43.5 25t-55 7.5q-38 0 -75 -12.5t-68 -35.5l-24 34q29 26 75 40.5t94 14.5q87 0 132 -47.5t45 -141.5v-323h-42v66q0 10 0.5 18.5t1.5 14.5q1 7 2 12h-2q-9 -24 -25.5 -46.5
t-39 -39.5t-50 -27t-60.5 -10q-30 0 -60.5 8.5t-55 26.5t-39.5 45t-15 65zM86 136q0 -20 8 -39.5t24 -35t40 -25t56 -9.5q41 0 73 19t53.5 49.5t33 68.5t11.5 75v27h-32q-21 0 -49 -0.5t-58 -4t-58.5 -11.5t-51 -22.5t-36.5 -37t-14 -54.5zM297 700h46v-73h-46v73zM160 700
h46v-73h-46v73z" />
    <glyph glyph-name="uni04D4" unicode="&#x4d4;" horiz-adv-x="823" 
d="M308 700h449v-40h-340v-287h279v-40h-279v-293h359v-40h-402v333h-171l-136 -333h-46zM374 373v287h-36l-118 -287h154z" />
    <glyph glyph-name="uni04D5" unicode="&#x4d5;" horiz-adv-x="870" 
d="M43 133q0 61 30.5 95t76 50t98 19t97.5 3h40v22q0 42 -10 70.5t-29 46t-45 25t-57 7.5q-77 0 -139 -48l-24 34q29 26 74.5 40.5t90.5 14.5q79 0 119 -32t53 -85h2q31 59 82.5 88t115.5 29q50 0 87.5 -18t63 -48.5t38.5 -71t13 -85.5q0 -6 -0.5 -14t-1.5 -14h-391
q0 -56 15.5 -99.5t42.5 -73t64.5 -44.5t81.5 -15q42 0 83.5 16.5t71.5 46.5l23 -35q-32 -31 -80.5 -50t-97.5 -19q-78 0 -138 40.5t-87 112.5h-2q-2 -10 -12.5 -35t-32.5 -51.5t-57.5 -46.5t-86.5 -20q-34 0 -65 9t-55 27.5t-38 45.5t-14 63zM776 300q-2 46 -16 78.5
t-36.5 53.5t-50.5 30.5t-58 9.5q-69 0 -120 -42.5t-64 -129.5h345zM87 136q0 -21 8 -40.5t24.5 -35t40 -24.5t55.5 -9q41 0 72.5 19t53.5 49.5t33 68.5t11 75v22h-69q-35 0 -75 -3t-74 -15.5t-57 -37.5t-23 -69z" />
    <glyph glyph-name="uni04D6" unicode="&#x4d6;" horiz-adv-x="556" 
d="M107 700h383v-40h-340v-287h279v-40h-279v-293h359v-40h-402v700zM303 734q-23 0 -44 7t-37.5 21t-26.5 34.5t-10 46.5v18h42v-15q0 -35 23 -53.5t53 -18.5q29 0 53 18.5t24 54.5v14h41v-18q0 -26 -10 -46.5t-26.5 -34.5t-38 -21t-43.5 -7z" />
    <glyph glyph-name="uni04D7" unicode="&#x4d7;" horiz-adv-x="549" 
d="M52 249q0 63 20 112t53.5 82.5t77.5 51t92 17.5q51 0 89 -18.5t63.5 -50t38.5 -73t13 -86.5q0 -6 -0.5 -13t-1.5 -14h-401q0 -54 17 -96.5t46.5 -72t68 -44.5t82.5 -15q42 0 83.5 16.5t71.5 46.5l23 -35q-33 -32 -81.5 -50.5t-96.5 -18.5q-53 0 -100 18.5t-82 52.5
t-55.5 82t-20.5 108zM455 296q-2 46 -15.5 79t-35.5 55t-50.5 32.5t-59.5 10.5q-35 0 -67 -11t-58.5 -33.5t-44.5 -55.5t-25 -77h356zM290 573q-23 0 -44 7t-37.5 21t-26.5 34.5t-10 46.5v18h42v-15q0 -35 23 -53.5t53 -18.5q29 0 53 18.5t24 54.5v14h41v-18
q0 -26 -10 -46.5t-26.5 -34.5t-38 -21t-43.5 -7z" />
    <glyph glyph-name="uni04D8" unicode="&#x4d8;" horiz-adv-x="718" 
d="M59 363q0 4 1 8h551q0 66 -20.5 121t-57 95t-86.5 62t-109 22q-55 0 -98 -12.5t-73 -27.5q-35 -18 -62 -39l-26 32q27 25 66 44q33 17 81.5 30.5t112.5 13.5q69 0 127 -25t100.5 -71t66 -112.5t23.5 -148.5q0 -78 -20.5 -145t-60 -116.5t-97 -77.5t-130.5 -28
q-62 0 -115 19.5t-91.5 62.5t-60.5 110.5t-22 162.5v20zM105 331q0 -72 14.5 -128t45 -94.5t78 -58.5t114.5 -20q54 0 100.5 21t80 60.5t52.5 95t19 124.5h-504z" />
    <glyph glyph-name="uni04D9" unicode="&#x4d9;" horiz-adv-x="551" 
d="M51 232v9t1 9q0 4 1 9h401q0 46 -15 85t-41.5 67.5t-62 44t-75.5 15.5q-41 0 -73 -10t-55 -22q-26 -14 -47 -31l-23 35q23 19 54 34q26 13 63 24t82 11q50 0 93 -18.5t75 -52.5t50.5 -82t18.5 -108q0 -66 -19 -115.5t-51.5 -82.5t-74.5 -49t-88 -16q-54 0 -94 18
t-66.5 50.5t-40 77t-13.5 98.5zM95 220q2 -56 16.5 -93t38 -59t53.5 -31.5t63 -9.5t65 11t57.5 34.5t42.5 60t20 87.5h-356z" />
    <glyph glyph-name="uni04DA" unicode="&#x4da;" horiz-adv-x="718" 
d="M403 861h46v-73h-46v73zM266 861h46v-73h-46v73zM59 363q0 4 1 8h551q0 66 -20.5 121t-57 95t-86.5 62t-109 22q-55 0 -98 -12.5t-73 -27.5q-35 -18 -62 -39l-26 32q27 25 66 44q33 17 81.5 30.5t112.5 13.5q69 0 127 -25t100.5 -71t66 -112.5t23.5 -148.5
q0 -78 -20.5 -145t-60 -116.5t-97 -77.5t-130.5 -28q-62 0 -115 19.5t-91.5 62.5t-60.5 110.5t-22 162.5v20zM105 331q0 -72 14.5 -128t45 -94.5t78 -58.5t114.5 -20q54 0 100.5 21t80 60.5t52.5 95t19 124.5h-504z" />
    <glyph glyph-name="uni04DB" unicode="&#x4db;" horiz-adv-x="551" 
d="M312 700h46v-73h-46v73zM175 700h46v-73h-46v73zM51 232v9t1 9q0 4 1 9h401q0 46 -15 85t-41.5 67.5t-62 44t-75.5 15.5q-41 0 -73 -10t-55 -22q-26 -14 -47 -31l-23 35q23 19 54 34q26 13 63 24t82 11q50 0 93 -18.5t75 -52.5t50.5 -82t18.5 -108q0 -66 -19 -115.5
t-51.5 -82.5t-74.5 -49t-88 -16q-54 0 -94 18t-66.5 50.5t-40 77t-13.5 98.5zM95 220q2 -56 16.5 -93t38 -59t53.5 -31.5t63 -9.5t65 11t57.5 34.5t42.5 60t20 87.5h-356z" />
    <glyph glyph-name="uni04DC" unicode="&#x4dc;" horiz-adv-x="819" 
d="M456 861h46v-73h-46v73zM319 861h46v-73h-46v73zM241 368v2l-201 330h50l188 -312h110v312h43v-312h110l188 312h50l-201 -330v-2l215 -368h-50l-202 348h-110v-348h-43v348h-110l-202 -348h-50z" />
    <glyph glyph-name="uni04DD" unicode="&#x4dd;" horiz-adv-x="692" 
d="M391 700h46v-73h-46v73zM254 700h46v-73h-46v73zM199 255v2l-159 243h49l146 -224h90v224h42v-224h90l146 224h49l-159 -243v-2l176 -255h-53l-161 237h-88v-237h-42v237h-88l-161 -237h-53z" />
    <glyph glyph-name="uni04DE" unicode="&#x4de;" horiz-adv-x="530" 
d="M308 861h46v-73h-46v73zM171 861h46v-73h-46v73zM65 108q29 -33 76 -55.5t100 -22.5q39 0 73 11.5t58.5 32.5t39 51.5t14.5 68.5q0 36 -13.5 64.5t-36 47.5t-52.5 29t-64 10h-89v40h71q31 0 60 10.5t51 29t35 45.5t13 60q0 28 -8.5 53t-27.5 44.5t-48 31t-71 11.5
q-41 0 -82.5 -12.5t-82.5 -47.5l-24 37q27 22 53.5 34.5t51 19.5t46 9t38.5 2q50 0 87.5 -13.5t62.5 -37t37.5 -56.5t12.5 -72q0 -33 -9.5 -59t-25 -45.5t-35 -33t-39.5 -22.5v-2q60 -15 97 -60.5t37 -116.5q0 -47 -17.5 -85t-48.5 -65t-73.5 -41.5t-91.5 -14.5q-28 0 -57 6
t-56 17t-50.5 27t-40.5 36z" />
    <glyph glyph-name="uni04DF" unicode="&#x4df;" horiz-adv-x="431" 
d="M259 700h46v-73h-46v73zM122 700h46v-73h-46v73zM61 92q6 -7 18 -18t29.5 -21t40 -17.5t50.5 -7.5q24 0 48.5 6.5t44 20t31.5 34.5t12 50q0 49 -36 75t-103 26h-60v39h54q59 0 92.5 24t33.5 72q0 50 -33 73t-83 23q-42 0 -72 -13.5t-51 -33.5l-25 34q24 21 62 37.5
t90 16.5q33 0 62 -8t50 -24.5t33 -41.5t12 -59q0 -48 -23 -75t-58 -40v-2q45 -10 72 -40.5t27 -81.5q0 -38 -15.5 -66.5t-40.5 -47.5t-57.5 -28.5t-66.5 -9.5q-30 0 -55 6.5t-45.5 17t-36.5 23.5t-28 25z" />
    <glyph glyph-name="uni04E0" unicode="&#x4e0;" horiz-adv-x="516" 
d="M62 89q32 -27 77 -42.5t87 -15.5t77 12t60 33.5t38.5 51.5t13.5 66q0 62 -31 99t-108 48q-8 1 -17.5 2t-25.5 1.5t-41 0.5h-64v34l214 239q8 9 15.5 16.5l13.5 13.5q7 7 14 13l-1 2q-7 -1 -17 -1q-8 -1 -19.5 -1h-24.5h-267v39h388v-30l-230 -257l-18 -18q-4 -4 -9 -8v-2
q43 0 63 -1t35 -3q57 -8 91 -28t53 -45.5t25 -54t6 -53.5q0 -45 -16.5 -83.5t-47 -66.5t-74 -44t-96.5 -16q-50 0 -98 16.5t-89 45.5l23 37v0z" />
    <glyph glyph-name="uni04E1" unicode="&#x4e1;" horiz-adv-x="473" 
d="M37 -111q32 -27 77 -42.5t87 -15.5t77 12t60 33.5t38.5 51.5t13.5 66q0 62 -31 99t-108 48q-8 1 -17.5 2t-25.5 1.5t-41 0.5h-64v34l214 239q8 9 15.5 16.5l13.5 13.5q7 7 14 13l-1 2q-7 -1 -17 -1q-8 -1 -19.5 -1h-24.5h-267v39h388v-30l-230 -257l-18 -18q-4 -4 -9 -8
v-2q43 0 63 -1t35 -3q57 -8 91 -28t53 -45.5t25 -54t6 -53.5q0 -45 -16.5 -83.5t-47 -66.5t-74 -44t-96.5 -16q-50 0 -98 16.5t-89 45.5l23 37v0z" />
    <glyph glyph-name="uni04E2" unicode="&#x4e2;" horiz-adv-x="750" 
d="M257 827h239v-40h-239v40zM107 700h43v-549q0 -14 -1 -28.5t-2 -28.5q-1 -16 -2 -31h2q11 16 22 33q9 14 19.5 30t19.5 28l395 546h40v-700h-43v549q0 13 0.5 28t1.5 29q1 16 3 31h-2q-9 -16 -20 -32q-9 -14 -19.5 -29t-18.5 -27l-398 -549h-40v700z" />
    <glyph glyph-name="uni04E3" unicode="&#x4e3;" horiz-adv-x="584" 
d="M174 665h239v-40h-239v40zM87 500h42v-356q0 -13 -0.5 -27t-1.5 -26q-1 -14 -1 -28h2q9 15 20 29q8 12 18.5 26t18.5 26l273 356h39v-500h-42v357v27t1 25l2 26h-2q-10 -13 -20 -27q-9 -12 -19 -26t-18 -25l-273 -357h-39v500z" />
    <glyph glyph-name="uni04E4" unicode="&#x4e4;" horiz-adv-x="750" 
d="M420 861h46v-73h-46v73zM283 861h46v-73h-46v73zM107 700h43v-549q0 -14 -1 -28.5t-2 -28.5q-1 -16 -2 -31h2q11 16 22 33q9 14 19.5 30t19.5 28l395 546h40v-700h-43v549q0 13 0.5 28t1.5 29q1 16 3 31h-2q-9 -16 -20 -32q-9 -14 -19.5 -29t-18.5 -27l-398 -549h-40v700
z" />
    <glyph glyph-name="uni04E5" unicode="&#x4e5;" horiz-adv-x="584" 
d="M343 700h46v-73h-46v73zM206 700h46v-73h-46v73zM87 500h42v-356q0 -13 -0.5 -27t-1.5 -26q-1 -14 -1 -28h2q9 15 20 29q8 12 18.5 26t18.5 26l273 356h39v-500h-42v357v27t1 25l2 26h-2q-10 -13 -20 -27q-9 -12 -19 -26t-18 -25l-273 -357h-39v500z" />
    <glyph glyph-name="uni04E6" unicode="&#x4e6;" horiz-adv-x="826" 
d="M59 355q0 75 27 140.5t74.5 113.5t112.5 75.5t140 27.5t140 -27.5t112.5 -75.5t74.5 -113.5t27 -140.5q0 -77 -27 -144t-74.5 -116.5t-112.5 -78t-140 -28.5t-140 28.5t-112.5 78t-74.5 116.5t-27 144zM104 355q0 -69 23.5 -128.5t64.5 -103.5t98 -69t123 -25t123 25
t98 69t64.5 103.5t23.5 128.5q0 67 -23.5 125t-64.5 100.5t-98 66.5t-123 24t-123 -24t-98 -66.5t-64.5 -100.5t-23.5 -125zM457 861h46v-73h-46v73zM320 861h46v-73h-46v73z" />
    <glyph glyph-name="uni04E7" unicode="&#x4e7;" horiz-adv-x="620" 
d="M51 253q0 55 20.5 102t55.5 82t82 55t101 20t101 -20t82 -55t55.5 -82t20.5 -102q0 -56 -20.5 -104.5t-55.5 -84t-82 -56t-101 -20.5t-101 20.5t-82 56t-55.5 84t-20.5 104.5zM95 253q0 -48 17 -89t46 -71t68 -47t84 -17t84 17t68 47t46 71t17 89q0 46 -17 86t-46 69.5
t-68 46t-84 16.5t-84 -16.5t-68 -46t-46 -69.5t-17 -86zM357 700h46v-73h-46v73zM220 700h46v-73h-46v73z" />
    <glyph glyph-name="uni04E8" unicode="&#x4e8;" horiz-adv-x="826" 
d="M59 355q0 75 27 140.5t74.5 113.5t112.5 75.5t140 27.5t140 -27.5t112.5 -75.5t74.5 -113.5t27 -140.5q0 -77 -27 -144t-74.5 -116.5t-112.5 -78t-140 -28.5t-140 28.5t-112.5 78t-74.5 116.5t-27 144zM413 29q64 0 118.5 23.5t95.5 64.5t66 97t28 121h-617
q3 -65 28 -121t66 -97t96 -64.5t119 -23.5zM413 671q-64 0 -119 -22.5t-96 -62t-65.5 -94t-28.5 -117.5h617q-3 63 -28 117.5t-66 94t-95.5 62t-118.5 22.5z" />
    <glyph glyph-name="uni04E9" unicode="&#x4e9;" horiz-adv-x="620" 
d="M51 253q0 55 20.5 102t55.5 82t82 55t101 20t101 -20t82 -55t55.5 -82t20.5 -102q0 -56 -20.5 -104.5t-55.5 -84t-82 -56t-101 -20.5t-101 20.5t-82 56t-55.5 84t-20.5 104.5zM310 29q42 0 79.5 15.5t66 42.5t47 64.5t21.5 81.5h-429q4 -44 22 -81.5t47 -64.5t66.5 -42.5
t79.5 -15.5zM310 471q-42 0 -80 -15t-66.5 -41.5t-47 -63t-21.5 -79.5h429q-3 43 -21 79.5t-47 63t-66.5 41.5t-79.5 15z" />
    <glyph glyph-name="uni04EA" unicode="&#x4ea;" horiz-adv-x="826" 
d="M59 355q0 75 27 140.5t74.5 113.5t112.5 75.5t140 27.5t140 -27.5t112.5 -75.5t74.5 -113.5t27 -140.5q0 -77 -27 -144t-74.5 -116.5t-112.5 -78t-140 -28.5t-140 28.5t-112.5 78t-74.5 116.5t-27 144zM413 29q64 0 118.5 23.5t95.5 64.5t66 97t28 121h-617
q3 -65 28 -121t66 -97t96 -64.5t119 -23.5zM413 671q-64 0 -119 -22.5t-96 -62t-65.5 -94t-28.5 -117.5h617q-3 63 -28 117.5t-66 94t-95.5 62t-118.5 22.5zM322 861h46v-73h-46v73zM459 861h46v-73h-46v73z" />
    <glyph glyph-name="uni04EB" unicode="&#x4eb;" horiz-adv-x="620" 
d="M51 253q0 55 20.5 102t55.5 82t82 55t101 20t101 -20t82 -55t55.5 -82t20.5 -102q0 -56 -20.5 -104.5t-55.5 -84t-82 -56t-101 -20.5t-101 20.5t-82 56t-55.5 84t-20.5 104.5zM310 29q42 0 79.5 15.5t66 42.5t47 64.5t21.5 81.5h-429q4 -44 22 -81.5t47 -64.5t66.5 -42.5
t79.5 -15.5zM310 471q-42 0 -80 -15t-66.5 -41.5t-47 -63t-21.5 -79.5h429q-3 43 -21 79.5t-47 63t-66.5 41.5t-79.5 15zM215 700h46v-73h-46v73zM352 700h46v-73h-46v73z" />
    <glyph glyph-name="uni04EC" unicode="&#x4ec;" horiz-adv-x="717" 
d="M373 861h46v-73h-46v73zM236 861h46v-73h-46v73zM69 124q18 -20 44.5 -37.5t58 -30.5t66 -20t69.5 -7q62 0 116 23t94.5 63.5t65 96t28.5 119.5h-421v40h422q-3 65 -27.5 120t-65 95t-94.5 62.5t-117 22.5q-59 0 -117.5 -20t-104.5 -59l-26 32q23 22 52 38.5t61.5 27.5
t66.5 16.5t67 5.5q75 0 139.5 -27t111 -75t73 -113.5t26.5 -141.5t-26.5 -143t-73 -116.5t-110.5 -78.5t-140 -29q-35 0 -71 6.5t-70.5 20t-66.5 33t-57 46.5z" />
    <glyph glyph-name="uni04ED" unicode="&#x4ed;" horiz-adv-x="539" 
d="M297 700h46v-73h-46v73zM160 700h46v-73h-46v73zM62 101q35 -40 81.5 -56t87.5 -16t77.5 14t65 40.5t47 63.5t21.5 83h-275v39h275q-3 46 -21.5 83.5t-47 63.5t-65.5 40.5t-77 14.5q-45 0 -84.5 -17t-70.5 -47l-26 34q31 35 80 53t100 18q52 0 98.5 -18.5t81.5 -53
t56 -83t21 -108.5t-20.5 -108t-55.5 -82t-82 -52.5t-100 -18.5t-103 19.5t-86 58.5z" />
    <glyph glyph-name="uni04EE" unicode="&#x4ee;" horiz-adv-x="576" 
d="M169 827h239v-40h-239v40zM113 62q12 -8 34 -21t48 -13q38 0 57.5 29.5t38.5 80.5l-280 562h48l212 -426q8 -15 14.5 -31t12.5 -29q6 -16 13 -30h2l10 30q5 13 10.5 29t11.5 31l160 426h47l-235 -606q-18 -46 -47 -76t-75 -30q-29 0 -55.5 12t-49.5 28z" />
    <glyph glyph-name="uni04EF" unicode="&#x4ef;" horiz-adv-x="517" 
d="M41 -146q8 -7 18 -12q8 -5 19.5 -8.5t24.5 -3.5q18 0 32.5 7.5t26.5 20t21.5 28.5t17.5 34l36 83l-207 497h45l165 -399q4 -9 7.5 -17.5t5.5 -15.5q3 -8 5 -14h2q2 6 5 14q2 7 5 15.5t7 17.5l165 399h45l-257 -617q-17 -39 -48 -66t-79 -27q-18 0 -33 4.5t-26 9.5
q-12 6 -22 14zM139 665h239v-40h-239v40z" />
    <glyph glyph-name="uni04F0" unicode="&#x4f0;" horiz-adv-x="576" 
d="M334 861h46v-73h-46v73zM197 861h46v-73h-46v73zM113 62q12 -8 34 -21t48 -13q38 0 57.5 29.5t38.5 80.5l-280 562h48l212 -426q8 -15 14.5 -31t12.5 -29q6 -16 13 -30h2l10 30q5 13 10.5 29t11.5 31l160 426h47l-235 -606q-18 -46 -47 -76t-75 -30q-29 0 -55.5 12
t-49.5 28z" />
    <glyph glyph-name="uni04F1" unicode="&#x4f1;" horiz-adv-x="517" 
d="M41 -146q8 -7 18 -12q8 -5 19.5 -8.5t24.5 -3.5q18 0 32.5 7.5t26.5 20t21.5 28.5t17.5 34l36 83l-207 497h45l165 -399q4 -9 7.5 -17.5t5.5 -15.5q3 -8 5 -14h2q2 6 5 14q2 7 5 15.5t7 17.5l165 399h45l-257 -617q-17 -39 -48 -66t-79 -27q-18 0 -33 4.5t-26 9.5
q-12 6 -22 14zM304 700h46v-73h-46v73zM167 700h46v-73h-46v73z" />
    <glyph glyph-name="uni04F2" unicode="&#x4f2;" horiz-adv-x="576" 
d="M113 62q12 -8 34 -21t48 -13q38 0 57.5 29.5t38.5 80.5l-280 562h48l212 -426q8 -15 14.5 -31t12.5 -29q6 -16 13 -30h2l10 30q5 13 10.5 29t11.5 31l160 426h47l-235 -606q-18 -46 -47 -76t-75 -30q-29 0 -55.5 12t-49.5 28zM387 861h56l-79 -111h-44zM267 861h50
l-65 -111h-47z" />
    <glyph glyph-name="uni04F3" unicode="&#x4f3;" horiz-adv-x="517" 
d="M41 -146q8 -7 18 -12q8 -5 19.5 -8.5t24.5 -3.5q18 0 32.5 7.5t26.5 20t21.5 28.5t17.5 34l36 83l-207 497h45l165 -399q4 -9 7.5 -17.5t5.5 -15.5q3 -8 5 -14h2q2 6 5 14q2 7 5 15.5t7 17.5l165 399h45l-257 -617q-17 -39 -48 -66t-79 -27q-18 0 -33 4.5t-26 9.5
q-12 6 -22 14zM351 700h56l-79 -111h-44zM231 700h50l-65 -111h-47z" />
    <glyph glyph-name="uni04F4" unicode="&#x4f4;" horiz-adv-x="600" 
d="M329 861h46v-73h-46v73zM192 861h46v-73h-46v73zM266 283q-108 0 -157 50t-49 143v224h43v-217q0 -78 37.5 -118.5t125.5 -40.5q28 0 56 6t52 15t44 19t32 19v317h43v-700h-43v305v11t1 11q0 5 1 11h-2q-14 -8 -34 -17.5t-44.5 -18t-51.5 -14t-54 -5.5z" />
    <glyph glyph-name="uni04F5" unicode="&#x4f5;" horiz-adv-x="484" 
d="M278 700h46v-73h-46v73zM141 700h46v-73h-46v73zM218 190q-47 0 -79 11.5t-51.5 32.5t-28 49.5t-8.5 61.5v155h42v-155q0 -20 4 -40.5t17 -37t37.5 -26.5t66.5 -10q46 0 83 16t54 29v224h42v-500h-42v199v12t1 11q0 5 1 11h-2q-13 -9 -30.5 -17t-36 -13.5t-37 -9
t-33.5 -3.5z" />
    <glyph glyph-name="uni04F6" unicode="&#x4f6;" horiz-adv-x="478" 
d="M107 700h353v-40h-310v-620h86v-180h-42v140h-87v700z" />
    <glyph glyph-name="uni04F7" unicode="&#x4f7;" horiz-adv-x="398" 
d="M87 500h284v-38h-242v-423h75v-159h-42v120h-75v500z" />
    <glyph glyph-name="uni04F8" unicode="&#x4f8;" horiz-adv-x="785" 
d="M439 861h46v-73h-46v73zM302 861h46v-73h-46v73zM635 700h43v-700h-43v700zM107 700h43v-300h170q42 0 79 -12t64 -37t43 -62.5t16 -89.5q0 -46 -14.5 -83t-41 -62.5t-62 -39.5t-77.5 -14h-220v700zM323 40q71 0 112.5 41.5t41.5 117.5q0 38 -11.5 68t-32 50.5t-49 31.5
t-62.5 11h-172v-320h173z" />
    <glyph glyph-name="uni04F9" unicode="&#x4f9;" horiz-adv-x="634" 
d="M361 700h46v-73h-46v73zM224 700h46v-73h-46v73zM505 500h42v-500h-42v500zM87 500h42v-200h115q29 0 59 -6.5t54.5 -23.5t40 -46t15.5 -75q0 -66 -42 -107.5t-129 -41.5h-155v500zM242 39q68 0 97.5 30.5t29.5 79.5q0 51 -29.5 81.5t-95.5 30.5h-115v-222h113z" />
    <glyph glyph-name="uni0524" unicode="&#x524;" horiz-adv-x="755" 
d="M107 700h520v-660h86v-180h-42v140h-87v660h-434v-660h-43v700z" />
    <glyph glyph-name="uni0525" unicode="&#x525;" horiz-adv-x="591" 
d="M87 500h401v-461h75v-159h-42v120h-75v461h-317v-461h-42v500z" />
    <glyph glyph-name="uni1E9E" unicode="&#x1e9e;" horiz-adv-x="656" 
d="M101 525q0 36 13.5 68t37.5 56t56 37.5t68 13.5h299v-30l-173 -242q-7 -10 -12 -16t-8 -11q-4 -5 -7 -9v-2h36q40 0 75 -15.5t61.5 -41.5t41.5 -61.5t15 -75.5t-15 -75.5t-41.5 -62.5t-61.5 -42.5t-75 -15.5h-171v40h169q33 0 60.5 12.5t47.5 33.5t31 49.5t11 60.5
t-11 60t-31 49t-47 33t-59 12h-93v32l156 220q11 17 20 27.5t14 17.5q6 8 10 13v2q-3 -1 -8 -1q-5 -1 -12.5 -1h-21.5h-194q-30 0 -55.5 -10.5t-44 -29t-28.5 -43t-10 -52.5v-525h-43v525z" />
    <glyph glyph-name="uni2009" unicode="&#x2009;" horiz-adv-x="10" 
 />
    <glyph glyph-name="endash" unicode="&#x2013;" horiz-adv-x="632" 
d="M78 303h476v-40h-476v40z" />
    <glyph glyph-name="emdash" unicode="&#x2014;" horiz-adv-x="832" 
d="M78 303h676v-40h-676v40z" />
    <glyph glyph-name="quoteleft" unicode="&#x2018;" horiz-adv-x="228" 
d="M122 708h39l-35 -151h-52z" />
    <glyph glyph-name="quoteright" unicode="&#x2019;" horiz-adv-x="224" 
d="M111 708h52l-48 -151h-39z" />
    <glyph glyph-name="quotesinglbase" unicode="&#x201a;" horiz-adv-x="244" 
d="M102 61h52l-48 -151h-39z" />
    <glyph glyph-name="quotedblleft" unicode="&#x201c;" horiz-adv-x="328" 
d="M222 708h39l-35 -151h-52zM122 708h39l-35 -151h-52z" />
    <glyph glyph-name="quotedblright" unicode="&#x201d;" horiz-adv-x="324" 
d="M211 708h52l-48 -151h-39zM111 708h52l-48 -151h-39z" />
    <glyph glyph-name="quotedblbase" unicode="&#x201e;" horiz-adv-x="344" 
d="M202 61h52l-48 -151h-39zM102 61h52l-48 -151h-39z" />
    <glyph glyph-name="dagger" unicode="&#x2020;" horiz-adv-x="379" 
d="M166 460h-114v40h114v200h42v-200h119v-40h-119v-510h-42v510z" />
    <glyph glyph-name="daggerdbl" unicode="&#x2021;" horiz-adv-x="403" 
d="M64 226h114v234h-114v40h114v200h42v-200h119v-40h-119v-234h119v-40h-119v-236h-42v236h-114v40z" />
    <glyph glyph-name="bullet" unicode="&#x2022;" horiz-adv-x="444" 
d="M222 159q-27 0 -51 10.5t-42 28.5t-28.5 42t-10.5 51t10.5 51t28.5 42t42 28.5t51 10.5t51 -10.5t42 -28.5t28.5 -42t10.5 -51t-10.5 -51t-28.5 -42t-42 -28.5t-51 -10.5z" />
    <glyph glyph-name="ellipsis" unicode="&#x2026;" horiz-adv-x="643" 
d="M504 63h61v-63h-61v63zM291 63h61v-63h-61v63zM78 63h61v-63h-61v63z" />
    <glyph glyph-name="perthousand" unicode="&#x2030;" horiz-adv-x="995" 
d="M190 451q-27 0 -50.5 10t-41.5 28t-28 41.5t-10 50.5t10 51t28 41.5t41.5 28t50.5 10.5t51 -10.5t41.5 -28t28 -41.5t10.5 -51t-10.5 -50.5t-28 -41.5t-41.5 -28t-51 -10zM589 700h52l-531 -700h-52zM190 491q38 0 63 26t25 64t-25 64.5t-63 26.5t-62.5 -26.5
t-24.5 -64.5t24.5 -64t62.5 -26zM696 118q0 27 10 51t28 41.5t41.5 28t50.5 10.5t51 -10.5t41.5 -28t28 -41.5t10.5 -51t-10.5 -50.5t-28 -41.5t-41.5 -28t-51 -10t-50.5 10t-41.5 28t-28 41.5t-10 50.5zM376 118q0 27 10 51t28 41.5t41.5 28t50.5 10.5t51 -10.5t41.5 -28
t28 -41.5t10.5 -51t-10.5 -50.5t-28 -41.5t-41.5 -28t-51 -10t-50.5 10t-41.5 28t-28 41.5t-10 50.5zM739 118q0 -38 24.5 -64t62.5 -26t63 26t25 64t-25 64.5t-63 26.5t-62.5 -26.5t-24.5 -64.5zM419 118q0 -38 24.5 -64t62.5 -26t63 26t25 64t-25 64.5t-63 26.5
t-62.5 -26.5t-24.5 -64.5z" />
    <glyph glyph-name="guilsinglleft" unicode="&#x2039;" horiz-adv-x="334" 
d="M55 282l164 206h53l-164 -206l164 -205h-53z" />
    <glyph glyph-name="guilsinglright" unicode="&#x203a;" horiz-adv-x="334" 
d="M226 282l-164 206h53l164 -206l-164 -205h-53z" />
    <glyph glyph-name="fraction" unicode="&#x2044;" horiz-adv-x="150" 
d="M-114 0l336 700h43l-335 -700h-44z" />
    <glyph glyph-name="uni2070" unicode="&#x2070;" 
d="M188 413q-42 0 -70.5 17.5t-45.5 48t-24.5 72t-7.5 89.5t7.5 89.5t24.5 72t45.5 48t70.5 17.5t70.5 -17.5t45.5 -48t24.5 -72t7.5 -89.5t-7.5 -89.5t-24.5 -72t-45.5 -48t-70.5 -17.5zM188 449q31 0 52 14.5t34 40.5t18 60.5t5 75.5q0 40 -5 75t-18 60.5t-34 40.5t-52 15
q-32 0 -53 -15t-33.5 -40.5t-17.5 -60.5t-5 -75q0 -41 5 -75.5t17.5 -60.5t33.5 -40.5t53 -14.5z" />
    <glyph glyph-name="uni2074" unicode="&#x2074;" 
d="M240 544h-215v26l222 287h31v-277h68v-36h-68v-121h-38v121zM240 580v147v22t1 21l2 22h-2q-6 -7 -11 -16q-5 -8 -11 -17t-13 -17l-126 -160v-2h160z" />
    <glyph glyph-name="uni2075" unicode="&#x2075;" 
d="M175 413q-39 0 -73 19t-56 51l32 21q14 -25 41 -40t56 -15q23 0 43.5 8.5t35.5 23t24 34t9 42.5q0 22 -9 41.5t-24 34.5t-35.5 23.5t-43.5 8.5q-21 0 -42.5 -7t-38.5 -20l-26 10l26 209h206v-36h-174l-10 -91q-2 -11 -3 -19t-2 -13q-1 -6 -2 -11h2q30 14 65 14
q32 0 59.5 -11.5t47.5 -31t31.5 -45.5t11.5 -56t-12 -56.5t-32.5 -46t-48 -30.5t-58.5 -11z" />
    <glyph glyph-name="uni2076" unicode="&#x2076;" 
d="M198 413q-36 0 -64.5 15.5t-48 42.5t-29.5 63.5t-10 77.5t10 86t32.5 82.5t57.5 62t86 24.5q43 0 83 -20l-19 -32q-12 7 -31.5 11.5t-33.5 4.5q-32 0 -57 -15t-43 -40t-29.5 -57t-15.5 -66h2q17 21 49 34.5t61 13.5q30 0 55 -10t43.5 -28t29 -44t10.5 -58
q0 -37 -11 -64.5t-30 -46t-44 -28t-53 -9.5zM198 449q48 0 73.5 32.5t25.5 79.5q0 48 -28 76t-72 28q-22 0 -42 -7t-35 -18.5t-24 -25.5t-9 -27q0 -21 7.5 -45.5t22 -45t35 -34t46.5 -13.5z" />
    <glyph glyph-name="uni2077" unicode="&#x2077;" 
d="M250 756q7 13 13.5 25t11.5 21q6 11 12 19v2q-6 -1 -14 -1q-7 -1 -17.5 -1h-23.5h-178v36h279v-26l-214 -408h-43z" />
    <glyph glyph-name="uni2078" unicode="&#x2078;" 
d="M188 413q-27 0 -53.5 8.5t-47.5 25.5t-33.5 41.5t-12.5 57.5q0 25 9.5 45t22 35t25.5 25t20 14q-24 16 -39.5 38t-15.5 55q0 27 11 47.5t29.5 34t42 20.5t47.5 7t47.5 -7t42 -21t30 -35t11.5 -49q0 -24 -8.5 -45t-19 -36.5t-20 -25.5t-12.5 -13q28 -17 47.5 -40t19.5 -59
q0 -25 -11 -47.5t-30 -39t-45.5 -26.5t-56.5 -10zM233 651q5 5 14 14.5t17.5 23t14.5 30.5t6 36t-8 33.5t-21 24t-30 14t-34 4.5t-33.5 -4.5t-29 -13.5t-20 -23t-7.5 -32q0 -22 11.5 -37.5t30.5 -27.5t42 -22t47 -20zM188 449q19 0 37.5 6.5t33.5 18t24 27t9 34.5
q0 24 -13.5 40t-34.5 28.5t-46.5 23t-49.5 22.5q-8 -5 -20 -14t-22.5 -22t-18 -29.5t-7.5 -37.5q0 -23 9 -41t24 -30.5t34.5 -19t40.5 -6.5z" />
    <glyph glyph-name="uni2079" unicode="&#x2079;" 
d="M80 465q10 -6 29 -11t36 -5q32 0 57 15t43 40t29.5 57t15.5 66h-2q-17 -21 -49 -34.5t-61 -13.5q-30 0 -55 10t-43.5 28t-29 44t-10.5 58q0 37 11 64.5t30 46t44 28t53 9.5q36 0 64.5 -15.5t48 -42.5t29.5 -63.5t10 -77.5t-10 -86t-32.5 -82.5t-57.5 -62t-86 -24.5
q-19 0 -42.5 5.5t-40.5 14.5zM179 615q22 0 42 7t35 18.5t24 25t9 27.5q0 21 -7.5 45.5t-22 45t-35 34t-46.5 13.5q-48 0 -73.5 -32.5t-25.5 -79.5q0 -48 28 -76t72 -28z" />
    <glyph glyph-name="uni2080" unicode="&#x2080;" 
d="M188 -167q-42 0 -70.5 17.5t-45.5 48t-24.5 72t-7.5 89.5t7.5 89.5t24.5 72t45.5 48t70.5 17.5t70.5 -17.5t45.5 -48t24.5 -72t7.5 -89.5t-7.5 -89.5t-24.5 -72t-45.5 -48t-70.5 -17.5zM188 -131q31 0 52 14.5t34 40.5t18 60.5t5 75.5q0 40 -5 75t-18 60.5t-34 40.5
t-52 15q-32 0 -53 -15t-33.5 -40.5t-17.5 -60.5t-5 -75q0 -41 5 -75.5t17.5 -60.5t33.5 -40.5t53 -14.5z" />
    <glyph glyph-name="uni2081" unicode="&#x2081;" 
d="M83 -121h96v325v15q0 4 1 7h-1q-1 -2 -4 -6q-6 -8 -19 -21l-44 -43l-26 27l93 94h38v-398h93v-36h-227v36z" />
    <glyph glyph-name="uni2082" unicode="&#x2082;" 
d="M54 -157q-1 7 -1.5 14t-0.5 13q0 40 16.5 69t41 51.5t53 40.5t53 37.5t41 42t16.5 53.5q0 35 -25 61t-66 26q-29 0 -53 -14.5t-41 -35.5l-24 26q17 24 49.5 42t68.5 18q32 0 56.5 -10t41 -27t24.5 -39.5t8 -46.5q0 -37 -16 -64t-40.5 -47.5t-52.5 -38t-52.5 -36.5
t-41.5 -42.5t-18 -56.5h229v-36h-266v0z" />
    <glyph glyph-name="uni2083" unicode="&#x2083;" 
d="M179 -168q-38 0 -76 16t-62 49l28 26q14 -20 43 -37.5t68 -17.5q18 0 36.5 7.5t33.5 21t24 32t9 40.5q0 23 -9.5 41t-24.5 30t-34.5 18.5t-38.5 6.5h-32l-11 24l108 127q4 5 8.5 9t8.5 8l8 8v2l-12 -2q-5 -1 -11.5 -1h-14.5h-164v36h255v-26l-128 -150q20 -2 43 -9
t42.5 -22t32.5 -39.5t13 -60.5q0 -29 -11.5 -54t-31 -43.5t-45.5 -29t-55 -10.5z" />
    <glyph glyph-name="uni2084" unicode="&#x2084;" 
d="M240 -36h-215v26l222 287h31v-277h68v-36h-68v-121h-38v121zM240 0v147v22t1 21l2 22h-2q-6 -7 -11 -16q-5 -8 -11 -17t-13 -17l-126 -160v-2h160z" />
    <glyph glyph-name="uni2085" unicode="&#x2085;" 
d="M176 -167q-39 0 -73 19t-56 51l32 21q14 -25 41 -40t56 -15q23 0 43.5 8.5t35.5 23t24 34t9 42.5q0 22 -9 41.5t-24 34.5t-35.5 23.5t-43.5 8.5q-21 0 -42.5 -7t-38.5 -20l-26 10l26 209h206v-36h-174l-10 -91q-2 -11 -3 -19t-2 -13q-1 -6 -2 -11h2q30 14 65 14
q32 0 59.5 -11.5t47.5 -31t31.5 -45.5t11.5 -56t-12 -56.5t-32.5 -46t-48 -30.5t-58.5 -11z" />
    <glyph glyph-name="uni2086" unicode="&#x2086;" 
d="M198 -167q-36 0 -64.5 15.5t-48 42.5t-29.5 63.5t-10 77.5t10 86t32.5 82.5t57.5 62t86 24.5q43 0 83 -20l-19 -32q-12 7 -31.5 11.5t-33.5 4.5q-32 0 -57 -15t-43 -40t-29.5 -57t-15.5 -66h2q17 21 49 34.5t61 13.5q30 0 55 -10t43.5 -28t29 -44t10.5 -58
q0 -37 -11 -64.5t-30 -46t-44 -28t-53 -9.5zM198 -131q48 0 73.5 32.5t25.5 79.5q0 48 -28 76t-72 28q-22 0 -42 -7t-35 -18.5t-24 -25.5t-9 -27q0 -21 7.5 -45.5t22 -45t35 -34t46.5 -13.5z" />
    <glyph glyph-name="uni2087" unicode="&#x2087;" 
d="M250 175q7 13 13.5 25t11.5 21q6 11 12 19v2q-6 -1 -14 -1q-7 -1 -17.5 -1h-23.5h-178v36h279v-26l-214 -408h-43z" />
    <glyph glyph-name="uni2088" unicode="&#x2088;" 
d="M188 -166q-27 0 -53.5 8.5t-47.5 25.5t-33.5 41.5t-12.5 57.5q0 25 9.5 45t22 35t25.5 25t20 14q-24 16 -39.5 38t-15.5 55q0 27 11 47.5t29.5 34t42 20.5t47.5 7t47.5 -7t42 -21t30 -35t11.5 -49q0 -24 -8.5 -45t-19 -36.5t-20 -25.5t-12.5 -13q28 -17 47.5 -40
t19.5 -59q0 -25 -11 -47.5t-30 -39t-45.5 -26.5t-56.5 -10zM233 72q5 5 14 14.5t17.5 23t14.5 30.5t6 36t-8 33.5t-21 24t-30 14t-34 4.5t-33.5 -4.5t-29 -13.5t-20 -23t-7.5 -32q0 -22 11.5 -37.5t30.5 -27.5t42 -22t47 -20zM188 -130q19 0 37.5 6.5t33.5 18t24 27t9 34.5
q0 24 -13.5 40t-34.5 28.5t-46.5 23t-49.5 22.5q-8 -5 -20 -14t-22.5 -22t-18 -29.5t-7.5 -37.5q0 -23 9 -41t24 -30.5t34.5 -19t40.5 -6.5z" />
    <glyph glyph-name="uni2089" unicode="&#x2089;" 
d="M80 -115q10 -6 29 -11t36 -5q32 0 57 15t43 40t29.5 57t15.5 66h-2q-17 -21 -49 -34.5t-61 -13.5q-30 0 -55 10t-43.5 28t-29 44t-10.5 58q0 37 11 64.5t30 46t44 28t53 9.5q36 0 64.5 -15.5t48 -42.5t29.5 -63.5t10 -77.5t-10 -86t-32.5 -82.5t-57.5 -62t-86 -24.5
q-19 0 -42.5 5.5t-40.5 14.5zM179 35q22 0 42 7t35 18.5t24 25t9 27.5q0 21 -7.5 45.5t-22 45t-35 34t-46.5 13.5q-48 0 -73.5 -32.5t-25.5 -79.5q0 -48 28 -76t72 -28z" />
    <glyph glyph-name="Euro" unicode="&#x20ac;" horiz-adv-x="560" 
d="M27 313h54q-1 7 -1.5 18.5t-0.5 24t0.5 25t2.5 21.5h-55v40h62q14 59 44.5 108.5t74 85.5t98 56t116.5 20q23 0 45 -2.5t44 -8.5l-10 -42q-36 11 -79 11q-54 0 -100.5 -16.5t-83.5 -46.5t-63.5 -72t-39.5 -93h328l-8 -40h-328q-4 -20 -4 -44t2 -45h314l-7 -40h-301
q11 -54 37 -98.5t64 -76.5t86 -50t104 -18q21 0 44.5 3t43.5 10l12 -41q-20 -7 -47.5 -10.5t-52.5 -3.5q-64 0 -120 21t-100 59t-74 90.5t-42 114.5h-59v40z" />
    <glyph glyph-name="uni2116" unicode="&#x2116;" horiz-adv-x="1015" 
d="M100 700h40l399 -549q8 -12 18.5 -27t18.5 -29l20 -32h2q-2 15 -3 31q-1 14 -1.5 28.5t-0.5 28.5v549h43v-700h-40l-399 549q-9 12 -19 27t-18 29l-20 32h-2q1 -15 2 -31q1 -14 2 -29t1 -28v-549h-43v700zM715 480q0 26 9.5 48t26 38.5t39 26t47.5 9.5t47.5 -9.5
t39.5 -26t26.5 -38.5t9.5 -48q0 -27 -9.5 -49.5t-26.5 -39.5t-39.5 -26.5t-47.5 -9.5t-47.5 9.5t-39 26.5t-26 39.5t-9.5 49.5zM755 480q0 -37 24 -62t58 -25q35 0 59 25t24 62q0 36 -24 59.5t-59 23.5q-34 0 -58 -23.5t-24 -59.5zM724 280h226v-37h-226v37z" />
    <glyph glyph-name="trademark" unicode="&#x2122;" horiz-adv-x="970" 
d="M502 700h35l126 -270q3 -8 5.5 -15.5t4.5 -12.5q2 -7 4 -12h2q2 5 4 12q2 5 4 12.5t6 15.5l126 270h35l35 -436h-38l-28 328q-1 5 -0.5 10.5t0.5 9.5t1 8h-2l-127 -274h-34l-127 274h-2q1 -4 1 -8v-20l-28 -328h-38zM226 662h-160v38h360v-38h-161v-398h-39v398z" />
    <glyph glyph-name="minus" unicode="&#x2212;" horiz-adv-x="560" 
d="M32 303h496v-40h-496v40z" />
    <glyph glyph-name="infinity" unicode="&#x221e;" horiz-adv-x="460" 
d="M230 184q-34 0 -64 13t-52.5 35.5t-35.5 52.5t-13 64t13 64t35.5 52t52.5 35t64 13t64 -13t52 -35t35 -52t13 -64t-13 -64t-35 -52.5t-52 -35.5t-64 -13z" />
    <glyph glyph-name="approxequal" unicode="&#x2248;" horiz-adv-x="560" 
d="M40 351q11 12 26.5 23.5t33.5 21t38.5 15.5t42.5 6q35 0 60.5 -11t47 -24t42.5 -24t48 -11q33 0 64 17.5t52 38.5l25 -30q-11 -12 -26.5 -23.5t-33.5 -21t-38.5 -15.5t-42.5 -6q-35 0 -60.5 11t-47 24t-42.5 24t-48 11q-33 0 -64 -17.5t-52 -38.5zM40 191
q11 12 26.5 23.5t33.5 21t38.5 15.5t42.5 6q35 0 60.5 -11t47 -24t42.5 -24t48 -11q33 0 64 17.5t52 38.5l25 -30q-11 -12 -26.5 -23.5t-33.5 -21t-38.5 -15.5t-42.5 -6q-35 0 -60.5 11t-47 24t-42.5 24t-48 11q-33 0 -64 -17.5t-52 -38.5z" />
    <glyph glyph-name="notequal" unicode="&#x2260;" horiz-adv-x="560" 
d="M177 183h-126v40h156l91 120h-247v40h277l90 119l33 -25l-71 -94h127v-40h-157l-91 -120h248v-40h-278l-87 -116l-33 25z" />
    <glyph glyph-name="lessequal" unicode="&#x2264;" horiz-adv-x="560" 
d="M54 301l439 197v-48l-377 -166v-2l377 -166v-48l-439 197v36zM493 -113v-40h-439v40h439z" />
    <glyph glyph-name="greaterequal" unicode="&#x2265;" horiz-adv-x="560" 
d="M67 116l377 166v2l-377 166v48l439 -197v-36l-439 -197v48zM505 -113v-40h-439v40h439z" />
    <glyph glyph-name="uniF6C3" unicode="&#xf6c3;" horiz-adv-x="335" 
d="M190 -66q6 -26 6 -47q0 -22 -5.5 -42.5t-16.5 -44.5h-39q8 22 13 40.5t5 37.5q0 27 -11 56h48z" />
    <glyph glyph-name="uniF6D4" unicode="&#xf6d4;" horiz-adv-x="276" 
d="M138 734q-23 0 -44 7t-37.5 21t-26.5 34.5t-10 46.5v18h42v-15q0 -35 23 -53.5t53 -18.5q29 0 53 18.5t24 54.5v14h41v-18q0 -26 -10 -46.5t-26.5 -34.5t-38 -21t-43.5 -7z" />
    <glyph glyph-name="uniF8FF" unicode="&#xf8ff;" horiz-adv-x="1130" 
d="M168 147l-126 72v278l126 71v151l265 142l134 -71l132 71l265 -142v-151l124 -71v-278l-124 -72v-152l-265 -141l-132 71l-134 -71l-265 141v152zM446 -96l121 66l118 -66l238 126v139l114 64v249l-114 66v136l-238 126l-118 -64l-121 64l-238 -126v-136l-114 -66v-249
l114 -64v-139zM242 185l-99 60v225l99 58v123l215 114l110 -59l107 59l214 -114v-123l100 -58v-225l-100 -60v-121l-214 -114l-107 58l-110 -58l-215 114v121zM490 91v228h228v40h-228v192h199q17 0 23 -6.5t6 -22.5v-42h42v54q0 29 -13 43t-45 14h-320v-40h65v-460h43z" />
    <glyph glyph-name="zero.tnum" horiz-adv-x="560" 
d="M280 -12q-67 0 -112 28t-72.5 77t-39.5 115t-12 142t12 142t39.5 115t72.5 77t112 28t112 -28t72.5 -77t39.5 -115t12 -142t-12 -142t-39.5 -115t-72.5 -77t-112 -28zM280 30q56 0 93 24.5t58.5 67.5t30.5 101.5t9 126.5q0 67 -9 125.5t-30.5 102t-58.5 68t-93 24.5
t-93 -24.5t-58.5 -68t-30.5 -102t-9 -125.5q0 -68 9 -126.5t30.5 -101.5t58.5 -67.5t93 -24.5z" />
    <glyph glyph-name="one.tnum" horiz-adv-x="560" 
d="M112 40h159v570v24q0 5 1 11h-2q-3 -4 -7 -10q-5 -5 -12 -13.5t-18 -19.5l-83 -83l-30 29l151 152h43v-660h155v-40h-357v40z" />
    <glyph glyph-name="two.tnum" horiz-adv-x="560" 
d="M66 0q-3 19 -3 37q0 61 27.5 105.5t69 80.5t90 67t90 64.5t69 73t27.5 92.5q0 31 -11.5 58.5t-32.5 48t-51 32t-68 11.5q-53 0 -97.5 -27.5t-72.5 -72.5l-32 22q15 26 36.5 48t47.5 38t56.5 25t62.5 9q52 0 90.5 -16t64.5 -42.5t39 -61.5t13 -72q0 -60 -27.5 -104
t-69 -80t-89.5 -66.5t-89.5 -64t-69 -73t-27.5 -92.5h383v-40h-426v0z" />
    <glyph glyph-name="three.tnum" horiz-adv-x="560" 
d="M87 117q30 -34 80 -60.5t108 -26.5q33 0 64.5 12.5t56 35t39.5 54t15 70.5q0 41 -16 72t-42 52t-59.5 32t-69.5 11h-48l-12 30l196 229q5 7 10.5 12.5l10.5 10.5t10 9v2q-6 -1 -14 -1q-7 -1 -17 -1h-23h-287v40h401v-30l-226 -261q31 0 71.5 -9t75.5 -32.5t59.5 -63.5
t24.5 -102q0 -45 -17.5 -84t-48 -68t-71 -45.5t-85.5 -16.5q-61 0 -118.5 26t-99.5 71z" />
    <glyph glyph-name="four.tnum" horiz-adv-x="560" 
d="M24 230l363 470h40v-460h104v-40h-104v-200h-43v200h-360v30zM384 240v328v22t1 20q1 11 2 21h-2q-6 -7 -11 -15q-5 -7 -11 -16t-13 -17l-266 -341v-2h300z" />
    <glyph glyph-name="five.tnum" horiz-adv-x="560" 
d="M98 116q10 -15 24.5 -30.5t34.5 -27.5t45.5 -20t57.5 -8q41 0 76.5 14t61.5 38.5t41 58t15 72.5q0 40 -15 73.5t-41 58.5t-61.5 39t-76.5 14q-35 0 -72 -11t-64 -31l-32 11l40 333h325v-40h-287l-25 -209q-2 -11 -3 -19t-2 -13q-1 -6 -2 -11h2q17 11 50.5 21.5t69.5 10.5
q50 0 93.5 -18t76 -48.5t51 -72t18.5 -88.5t-19 -88t-51 -71.5t-76 -48t-93 -17.5q-60 0 -112.5 26.5t-84.5 74.5z" />
    <glyph glyph-name="six.tnum" horiz-adv-x="560" 
d="M54 314q0 43 7.5 89t22.5 90.5t39 84t57.5 69.5t76.5 47.5t97 17.5q66 0 123 -28l-21 -39q-21 12 -49 18.5t-56 6.5q-60 0 -105.5 -28.5t-77 -74.5t-48.5 -103.5t-21 -115.5h2q29 45 82.5 70.5t115.5 25.5q46 0 85.5 -15.5t68 -44.5t45 -71t16.5 -95q0 -55 -17.5 -98
t-47 -72t-68.5 -44.5t-82 -15.5q-58 0 -103.5 26t-77 70.5t-48 104t-16.5 125.5zM304 30q37 0 67.5 14t52 39.5t33.5 60.5t12 76q0 86 -48 134t-124 48q-36 0 -71 -11t-62.5 -31t-44 -47.5t-16.5 -59.5q0 -26 12 -64t36.5 -73.5t62.5 -60.5t90 -25z" />
    <glyph glyph-name="seven.tnum" horiz-adv-x="560" 
d="M426 595q6 13 13 25t12 21q6 11 12 19v2q-6 -1 -14 -1q-7 -1 -17.5 -1h-23.5h-340v40h443v-30l-332 -670h-45z" />
    <glyph glyph-name="eight.tnum" horiz-adv-x="560" 
d="M48 195q0 45 15.5 80.5t36.5 60.5t41.5 40t30.5 21q-39 24 -64.5 57.5t-25.5 84.5q0 34 13 65.5t39 55.5t64.5 38t89.5 14q49 0 87.5 -13t65.5 -36.5t41 -56t14 -70.5t-12 -70.5t-27.5 -59t-31.5 -44.5t-24 -25q45 -25 74.5 -60t29.5 -90q0 -41 -17.5 -77.5t-48 -63.5
t-71.5 -42.5t-88 -15.5q-43 0 -84.5 14t-74.5 40.5t-53 65t-20 87.5zM361 356q7 7 22 22.5t30 39t26.5 52.5t11.5 63q0 32 -12 57.5t-34 43t-51.5 27t-65.5 9.5q-38 0 -68 -10t-50.5 -27.5t-31.5 -41t-11 -50.5q0 -39 21.5 -66t55.5 -47t75.5 -36.5t81.5 -35.5zM93 198
q0 -39 16 -70t42 -52.5t59 -33.5t68 -12q34 0 67 11.5t58.5 32t41 49t15.5 61.5q0 41 -23.5 68.5t-59.5 48t-79.5 37.5t-84.5 37q-10 -5 -30 -19t-40 -36t-35 -52.5t-15 -69.5z" />
    </font>
</defs>
</svg>
